<?xml version="1.0" encoding="UTF-8"?>
<svg version="1.1" xmlns="http://www.w3.org/2000/svg" width="624" height="244">
<path d="M0 0 C205.92 0 411.84 0 624 0 C624 80.52 624 161.04 624 244 C418.08 244 212.16 244 0 244 C0 163.48 0 82.96 0 0 Z " fill="#FEFEFE" transform="translate(0,0)"/>
<path d="M0 0 C47.19 0 94.38 0 143 0 C143 41.58 143 83.16 143 126 C95.81 126 48.62 126 0 126 C0 84.42 0 42.84 0 0 Z " fill="#ED3338" transform="translate(240,0)"/>
<path d="M0 0 C3.09584403 1.57606605 4.22468291 3.04999529 5.5625 6.25 C5.8925 4.27 6.2225 2.29 6.5625 0.25 C10.1925 0.25 13.8225 0.25 17.5625 0.25 C18.04323706 4.0414734 18.52213098 7.83316493 19 11.625 C19.13470703 12.68589844 19.26941406 13.74679688 19.40820312 14.83984375 C20.2209624 21.30227119 20.95323956 27.76514451 21.5625 34.25 C21.67843506 33.3621582 21.79437012 32.47431641 21.91381836 31.55957031 C22.34620637 28.25691247 22.78067765 24.95454247 23.21655273 21.65234375 C23.40456006 20.22471881 23.59174313 18.79698506 23.77807617 17.36914062 C24.04648221 15.31350824 24.31787732 13.25828898 24.58984375 11.203125 C24.75218506 9.96723633 24.91452637 8.73134766 25.08178711 7.45800781 C25.5625 4.25 25.5625 4.25 26.5625 0.25 C30.1925 0.25 33.8225 0.25 37.5625 0.25 C39.2125 10.48 40.8625 20.71 42.5625 31.25 C43.5078092 22.5447627 43.5078092 22.5447627 44.44702148 13.83886719 C44.56634033 12.75250977 44.68565918 11.66615234 44.80859375 10.546875 C44.92904053 9.43666992 45.0494873 8.32646484 45.17358398 7.18261719 C45.5625 4.25 45.5625 4.25 46.5625 0.25 C50.1925 0.25 53.8225 0.25 57.5625 0.25 C56.34697492 10.84063338 54.78938955 21.3269216 52.90307617 31.81860352 C52.49228823 34.1054309 52.08852291 36.39342494 51.68554688 38.68164062 C51.42487973 40.14850874 51.16382724 41.61530844 50.90234375 43.08203125 C50.78253647 43.76006302 50.66272919 44.43809479 50.53929138 45.13667297 C50.03417911 47.93289337 49.46287903 50.54886292 48.5625 53.25 C44.9325 53.58 41.3025 53.91 37.5625 54.25 C37.5625 54.91 37.5625 55.57 37.5625 56.25 C41.5225 56.25 45.4825 56.25 49.5625 56.25 C49.5625 57.57 49.5625 58.89 49.5625 60.25 C45.2725 60.25 40.9825 60.25 36.5625 60.25 C36.28535156 58.62449219 36.00820313 56.99898437 35.72265625 55.32421875 C35.35689341 53.19529144 34.99100128 51.06638633 34.625 48.9375 C34.35139648 47.3297168 34.35139648 47.3297168 34.07226562 45.68945312 C33.89501953 44.66142578 33.71777344 43.63339844 33.53515625 42.57421875 C33.37281494 41.62635498 33.21047363 40.67849121 33.04321289 39.7019043 C32.59278628 37.12786089 32.59278628 37.12786089 31.5625 34.25 C30.2425 42.83 28.9225 51.41 27.5625 60.25 C23.2725 60.25 18.9825 60.25 14.5625 60.25 C14.5625 58.93 14.5625 57.61 14.5625 56.25 C18.5225 56.25 22.4825 56.25 26.5625 56.25 C26.5625 55.26 26.5625 54.27 26.5625 53.25 C22.6025 53.25 18.6425 53.25 14.5625 53.25 C14.0675 54.24 14.0675 54.24 13.5625 55.25 C11.2525 42.71 8.9425 30.17 6.5625 17.25 C4.46944292 23.45079366 4.46944292 23.45079366 5.5625 28.25 C4.85546875 30.28515625 4.85546875 30.28515625 3.75 32.3125 C3.39292969 32.98410156 3.03585937 33.65570313 2.66796875 34.34765625 C1.69606108 36.02016168 0.63550856 37.64048716 -0.4375 39.25 C0.8825 39.25 2.2025 39.25 3.5625 39.25 C5.17980978 46.74843627 3.53822514 52.92753847 1.5625 60.25 C-4.2347617 60.82546348 -9.00169177 61.16252431 -13.875 57.625 C-19.22163288 52.95487985 -22.76158307 47.15593354 -24.4375 40.25 C-24.13722883 38.57706064 -23.80192233 36.91014616 -23.4375 35.25 C-23.70538531 33.92767252 -24.02527744 32.61557584 -24.375 31.3125 C-26.55198848 22.39579377 -26.90248776 12.43581089 -22.4375 4.25 C-16.30581174 -2.41779215 -8.15928275 -3.79674654 0 0 Z " fill="#ED353A" transform="translate(314.4375,165.75)"/>
<path d="M0 0 C9.24 0 18.48 0 28 0 C30 7 30 7 30 16 C24.06 16 18.12 16 12 16 C12 16.99 12 17.98 12 19 C17.94 19 23.88 19 30 19 C30.33 20.65 30.66 22.3 31 24 C24.73 24 18.46 24 12 24 C12 24.99 12 25.98 12 27 C17.61 27 23.22 27 29 27 C29.18907482 35.03567973 28.65546231 42.13655403 27 50 C22.05 50 17.1 50 12 50 C12 51.98 12 53.96 12 56 C18.6 56 25.2 56 32 56 C32 58.31 32 60.62 32 63 C36.38030431 53.61363362 38.70224576 47.52525951 35.15185547 37.60302734 C34.46067338 35.74963889 33.72901983 33.91149957 32.99609375 32.07421875 C32 29 32 29 33 26 C33.66 27.32 34.32 28.64 35 30 C34.01 26.37 33.02 22.74 32 19 C35.96 19 39.92 19 44 19 C44.99 22.96 45.98 26.92 47 31 C48.46167915 26.90729837 49.27365611 23.35806333 50 19 C54.29 19 58.58 19 63 19 C62.34 21.31 61.68 23.62 61 26 C61.66 26 62.32 26 63 26 C62.56599454 27.64675829 62.12756083 29.29234953 61.6875 30.9375 C61.419375 31.94425781 61.15125 32.95101562 60.875 33.98828125 C60.11111618 36.61754208 59.19505189 39.08363028 58.1875 41.625 C55.42424271 49.91477187 60.05241833 58.20265903 62.9765625 65.9609375 C64 69 64 69 64 72 C58.06 72.495 58.06 72.495 52 73 C52 73.66 52 74.32 52 75 C55.63 75 59.26 75 63 75 C63.33 76.32 63.66 77.64 64 79 C59.71 79 55.42 79 51 79 C50.01 74.38 49.02 69.76 48 65 C46.40964498 68.18071004 45.35151732 70.87657653 44.375 74.25 C43.92125 75.8175 43.4675 77.385 43 79 C39.04 79 35.08 79 31 79 C31 77.68 31 76.36 31 75 C34.96 75 38.92 75 43 75 C43 74.01 43 73.02 43 72 C37.06 72.495 37.06 72.495 31 73 C30.34 74.98 29.68 76.96 29 79 C19.43 79 9.86 79 0 79 C0 77.68 0 76.36 0 75 C9.57 75 19.14 75 29 75 C29 74.01 29 73.02 29 72 C19.43 72 9.86 72 0 72 C0 48.24 0 24.48 0 0 Z " fill="#EC3338" transform="translate(421,147)"/>
<path d="M0 0 C3.96 0 7.92 0 12 0 C14.97 6.27 17.94 12.54 21 19 C24.3 12.73 27.6 6.46 31 0 C34.96 0 38.92 0 43 0 C43 23.76 43 47.52 43 72 C39.04 72 35.08 72 31 72 C30.67 60.78 30.34 49.56 30 38 C27.36 43.28 24.72 48.56 22 54 C18 50 18 50 13 39 C12.67 49.89 12.34 60.78 12 72 C8.04 72 4.08 72 0 72 C0 48.24 0 24.48 0 0 Z " fill="#ED373C" transform="translate(0,147)"/>
<path d="M0 0 C3.96 0 7.92 0 12 0 C14.76421482 3.53205227 16.23318328 6.019404 18 10 C19.11084352 12.04940344 20.23553475 14.09137105 21.375 16.125 C22.24125 17.73375 23.1075 19.3425 24 21 C24.33 14.07 24.66 7.14 25 0 C29.29 0 33.58 0 38 0 C38 23.76 38 47.52 38 72 C33.71 72 29.42 72 25 72 C25.04382813 71.06542969 25.08765625 70.13085938 25.1328125 69.16796875 C25.10735041 56.19503561 20.51007163 48.20721191 14 37 C13.67 48.55 13.34 60.1 13 72 C8.71 72 4.42 72 0 72 C0 48.24 0 24.48 0 0 Z " fill="#EC373C" transform="translate(246,147)"/>
<path d="M0 0 C6.166875 -0.103125 12.33375 -0.20625 18.6875 -0.3125 C21.59502075 -0.38078003 21.59502075 -0.38078003 24.5612793 -0.45043945 C26.10724153 -0.46505008 27.65322307 -0.4777894 29.19921875 -0.48828125 C29.9941272 -0.51386108 30.78903564 -0.53944092 31.60803223 -0.5657959 C35.74658194 -0.56903978 37.498516 -0.36955198 40.92504883 2.15551758 C45.28409773 8.13119456 45.27810038 13.65376072 45.1953125 20.7734375 C45.1924826 21.6971817 45.18965271 22.6209259 45.18673706 23.57266235 C45.17559179 26.50690976 45.15049765 29.4408457 45.125 32.375 C45.11496289 34.37108932 45.10583832 36.36718346 45.09765625 38.36328125 C45.07567097 43.24230649 45.04118017 48.12110054 45 53 C41.37 53 37.74 53 34 53 C33.67 43.1 33.34 33.2 33 23 C31.35 22.67 29.7 22.34 28 22 C28 32.23 28 42.46 28 53 C24.37 53 20.74 53 17 53 C17 53.99 17 54.98 17 56 C20.63 56 24.26 56 28 56 C28 57.32 28 58.64 28 60 C24.04 60 20.08 60 16 60 C16 47.46 16 34.92 16 22 C14.35 22 12.7 22 11 22 C11 34.54 11 47.08 11 60 C7.37 60 3.74 60 0 60 C0 58.68 0 57.36 0 56 C3.3 56 6.6 56 10 56 C10 55.01 10 54.02 10 53 C6.7 53 3.4 53 0 53 C0 35.51 0 18.02 0 0 Z " fill="#ED3338" transform="translate(86,166)"/>
<path d="M0 0 C22 0 22 0 27 3 C32.12353948 9.34301206 31.59903664 15.92670723 31.5 23.8125 C31.51546875 25.03259766 31.5309375 26.25269531 31.546875 27.50976562 C31.49799332 38.88086753 28.62624729 47.48926527 21 56 C18.23927638 58.50391212 16.52397996 59.82534001 13 61 C12.67 66.61 12.34 72.22 12 78 C8.04 78 4.08 78 0 78 C0 52.26 0 26.52 0 0 Z " fill="#EC3338" transform="translate(486,166)"/>
<path d="M0 0 C0 20.13 0 40.26 0 61 C-18.09127825 61 -18.09127825 61 -21.68359375 57.6796875 C-31.33948245 45.35911735 -32.83660251 31.16532187 -32 16 C-30.9431611 9.900292 -28.91268488 5.95411222 -24 2 C-20 0 -20 0 0 0 Z " fill="#ED373C" transform="translate(202,165)"/>
<path d="M0 0 C3.63 0 7.26 0 11 0 C11 6.27 11 12.54 11 19 C13.5678125 18.9071875 13.5678125 18.9071875 16.1875 18.8125 C23.76296884 18.8610607 23.76296884 18.8610607 27 22 C30.54717623 27.48638648 31.66100933 32.28232523 31.5 38.75 C31.48791504 39.5349585 31.47583008 40.31991699 31.46337891 41.12866211 C31.11486875 51.43717019 28.00732811 61.22544618 21 69 C14.20025458 73.67482497 8.96369569 72 0 72 C0 48.24 0 24.48 0 0 Z " fill="#EC353A" transform="translate(137,147)"/>
<path d="M0 0 C2.9703095 1.65345261 4.83559113 3.30273833 6.625 6.25 C6.955 6.25 7.285 6.25 7.625 6.25 C8.81680151 12.90415819 9.99100636 19.56124609 11.15283203 26.22070312 C11.55044218 28.48737358 11.95212589 30.7533333 12.35791016 33.01855469 C12.93935906 36.26841336 13.50627004 39.52051871 14.0703125 42.7734375 C14.25562531 43.79118256 14.44093811 44.80892761 14.63186646 45.85751343 C14.79218353 46.79833771 14.95250061 47.73916199 15.11767578 48.70849609 C15.26423615 49.53900482 15.41079651 50.36951355 15.5617981 51.22518921 C15.58265472 51.89337677 15.60351135 52.56156433 15.625 53.25 C14.965 53.91 14.305 54.57 13.625 55.25 C11.315 42.71 9.005 30.17 6.625 17.25 C4.53194292 23.45079366 4.53194292 23.45079366 5.625 28.25 C4.91796875 30.28515625 4.91796875 30.28515625 3.8125 32.3125 C3.45542969 32.98410156 3.09835937 33.65570313 2.73046875 34.34765625 C1.75856108 36.02016168 0.69800856 37.64048716 -0.375 39.25 C0.945 39.25 2.265 39.25 3.625 39.25 C5.24230978 46.74843627 3.60072514 52.92753847 1.625 60.25 C-4.1722617 60.82546348 -8.93919177 61.16252431 -13.8125 57.625 C-19.15913288 52.95487985 -22.69908307 47.15593354 -24.375 40.25 C-24.07472883 38.57706064 -23.73942233 36.91014616 -23.375 35.25 C-23.64288531 33.92767252 -23.96277744 32.61557584 -24.3125 31.3125 C-26.48948848 22.39579377 -26.83998776 12.43581089 -22.375 4.25 C-16.27338279 -2.38509194 -8.12040951 -3.82754977 0 0 Z " fill="#E83D41" transform="translate(314.375,165.75)"/>
<path d="M0 0 C3.96 0 7.92 0 12 0 C12.99 3.96 13.98 7.92 15 12 C16.46167915 7.90729837 17.27365611 4.35806333 18 0 C22.29 0 26.58 0 31 0 C30.34 2.31 29.68 4.62 29 7 C29.66 7 30.32 7 31 7 C30.56599454 8.64675829 30.12756083 10.29234953 29.6875 11.9375 C29.419375 12.94425781 29.15125 13.95101562 28.875 14.98828125 C28.11111618 17.61754208 27.19505189 20.08363028 26.1875 22.625 C23.42424271 30.91477187 28.05241833 39.20265903 30.9765625 46.9609375 C32 50 32 50 32 53 C26.06 53.495 26.06 53.495 20 54 C20 54.66 20 55.32 20 56 C23.63 56 27.26 56 31 56 C31.495 57.98 31.495 57.98 32 60 C27.71 60 23.42 60 19 60 C18.01 55.38 17.02 50.76 16 46 C14.40964498 49.18071004 13.35151732 51.87657653 12.375 55.25 C11.92125 56.8175 11.4675 58.385 11 60 C7.04 60 3.08 60 -1 60 C-1 58.68 -1 57.36 -1 56 C2.96 56 6.92 56 11 56 C11 55.01 11 54.02 11 53 C5.06 53.495 5.06 53.495 -1 54 C-1.66 55.98 -2.32 57.96 -3 60 C-12.57 60 -22.14 60 -32 60 C-32 58.68 -32 57.36 -32 56 C-22.43 56 -12.86 56 -3 56 C-2.67 52.04 -2.34 48.08 -2 44 C-0.515 43.505 -0.515 43.505 1 43 C4.00895879 37.27392124 6.33152056 30.46114893 5 24 C3.7694911 20.30021484 2.44091076 16.69605 0.99609375 13.07421875 C0 10 0 10 1 7 C1.66 8.32 2.32 9.64 3 11 C2.01 7.37 1.02 3.74 0 0 Z " fill="#E9383D" transform="translate(453,166)"/>
<path d="M0 0 C1.794375 -0.01160156 1.794375 -0.01160156 3.625 -0.0234375 C7.25629704 0.40525729 9.11062005 1.17700739 12 3.375 C15.64908802 8.84863203 14.6260654 16.93501272 14 23.375 C12.37991384 29.87474687 7.50367095 34.61831383 3 39.375 C7.77135213 35.79648591 10.29076328 32.68927203 13 27.375 C13.65234375 29.109375 13.65234375 29.109375 14 31.375 C13.00390625 33.515625 13.00390625 33.515625 11.5625 35.625 C11.08941406 36.33140625 10.61632812 37.0378125 10.12890625 37.765625 C9.75636719 38.29671875 9.38382813 38.8278125 9 39.375 C10.32 39.705 11.64 40.035 13 40.375 C13.22424141 47.73759293 12.90120099 54.24549629 11 61.375 C1.31520241 61.99537849 1.31520241 61.99537849 -3.3125 59.8125 C-9.10342438 54.56026626 -12.84183642 49.99204792 -15 42.375 C-14.67 41.385 -14.34 40.395 -14 39.375 C-13.45472656 40.47908203 -13.45472656 40.47908203 -12.8984375 41.60546875 C-9.53205875 48.13969622 -6.74159997 53.00420001 0 56.375 C1.70363822 56.60122081 3.41328701 56.78388473 5.125 56.9375 C6.03507813 57.02128906 6.94515625 57.10507813 7.8828125 57.19140625 C8.58148437 57.25199219 9.28015625 57.31257813 10 57.375 C10 56.715 10 56.055 10 55.375 C9.02160156 55.33632812 9.02160156 55.33632812 8.0234375 55.296875 C0.59857549 54.81502555 -3.28610965 53.08889035 -8.625 47.75 C-14.72347429 40.03838089 -16.2027667 30.62058815 -16.3125 21.125 C-16.34150391 20.30386719 -16.37050781 19.48273438 -16.40039062 18.63671875 C-16.46106433 12.74670183 -15.49783442 8.20750594 -12 3.375 C-8.18971992 0.11824034 -4.92039035 -0.03181287 0 0 Z " fill="#EC353A" transform="translate(559,164.625)"/>
<path d="M0 0 C3.63 0 7.26 0 11 0 C11 17.82 11 35.64 11 54 C-11 54 -11 54 -16 51 C-20.46708008 44.84155632 -20.63219412 37.7704547 -20.5 30.4375 C-20.48731079 28.86826782 -20.48731079 28.86826782 -20.47436523 27.26733398 C-19.99274418 5.99274418 -19.99274418 5.99274418 -15 1 C-13.14712498 0.92773498 -11.29166122 0.9161878 -9.4375 0.9375 C-8.42558594 0.94652344 -7.41367187 0.95554688 -6.37109375 0.96484375 C-5.19740234 0.98224609 -5.19740234 0.98224609 -4 1 C-4.185625 2.0725 -4.37125 3.145 -4.5625 4.25 C-5.22199128 7.71522334 -5.22199128 7.71522334 -4.4375 9.828125 C-3.80356427 12.97516309 -4.65299719 15.40382892 -5.4375 18.5 C-6.96472147 25.12258764 -7.33476378 31.2303325 -7 38 C-4.69 38.66 -2.38 39.32 0 40 C0 26.8 0 13.6 0 0 Z " fill="#EC363B" transform="translate(69,165)"/>
<path d="M0 0 C1.18851563 0.00902344 2.37703125 0.01804688 3.6015625 0.02734375 C4.51679687 0.03894531 5.43203125 0.05054688 6.375 0.0625 C8.67112756 9.47252278 8.67112756 9.47252278 8.375 14.0625 C7.240625 14.18625 6.10625 14.31 4.9375 14.4375 C3.1740625 14.746875 3.1740625 14.746875 1.375 15.0625 C1.045 15.7225 0.715 16.3825 0.375 17.0625 C3.015 17.0625 5.655 17.0625 8.375 17.0625 C8.375 18.3825 8.375 19.7025 8.375 21.0625 C6.725 21.0625 5.075 21.0625 3.375 21.0625 C3.79652344 21.89394531 4.21804688 22.72539062 4.65234375 23.58203125 C5.20019531 24.66871094 5.74804688 25.75539062 6.3125 26.875 C6.85777344 27.95394531 7.40304687 29.03289062 7.96484375 30.14453125 C11.26878332 36.98121508 11.50328676 45.02669071 9.84375 52.43359375 C8.41605213 56.04163455 6.71021078 58.16142986 3.375 60.0625 C-0.078125 60.35546875 -0.078125 60.35546875 -3.875 60.25 C-5.13828125 60.22292969 -6.4015625 60.19585937 -7.703125 60.16796875 C-8.66734375 60.13316406 -9.6315625 60.09835938 -10.625 60.0625 C-12.34830907 52.96923679 -12.8744783 46.35281024 -12.625 39.0625 C-10.315 39.0625 -8.005 39.0625 -5.625 39.0625 C-6.38296875 37.52529297 -6.38296875 37.52529297 -7.15625 35.95703125 C-7.81300983 34.59660017 -8.46923163 33.23590927 -9.125 31.875 C-9.45886719 31.20146484 -9.79273438 30.52792969 -10.13671875 29.83398438 C-11.92200132 26.09946471 -13.08627195 23.30455451 -12.625 19.0625 C-11.965 19.7225 -11.305 20.3825 -10.625 21.0625 C-10.955 20.216875 -11.285 19.37125 -11.625 18.5 C-13.1763684 13.16717113 -13.44544362 9.10567884 -10.75 4.1875 C-7.51102954 -0.57569185 -5.53921283 -0.05430601 0 0 Z " fill="#E73A3F" transform="translate(613.625,165.9375)"/>
<path d="M0 0 C1.93166016 0.01740234 1.93166016 0.01740234 3.90234375 0.03515625 C5.19269531 0.04417969 6.48304688 0.05320313 7.8125 0.0625 C8.81152344 0.07410156 9.81054688 0.08570313 10.83984375 0.09765625 C12.17568274 4.94007258 13.09312494 9.03203242 12.83984375 14.09765625 C10.19984375 14.09765625 7.55984375 14.09765625 4.83984375 14.09765625 C4.83984375 15.08765625 4.83984375 16.07765625 4.83984375 17.09765625 C7.47984375 17.09765625 10.11984375 17.09765625 12.83984375 17.09765625 C12.83984375 18.41765625 12.83984375 19.73765625 12.83984375 21.09765625 C11.18984375 21.09765625 9.53984375 21.09765625 7.83984375 21.09765625 C8.27296875 21.8246875 8.70609375 22.55171875 9.15234375 23.30078125 C13.26114407 30.7194485 15.11953173 36.6165869 13.83984375 45.09765625 C12.31491032 49.30937715 11.56005064 50.61751833 7.83984375 53.09765625 C4.703125 53.51171875 4.703125 53.51171875 1.15234375 53.72265625 C-0.61689453 53.83480469 -0.61689453 53.83480469 -2.421875 53.94921875 C-3.32550781 53.99820313 -4.22914063 54.0471875 -5.16015625 54.09765625 C-5.16015625 54.75765625 -5.16015625 55.41765625 -5.16015625 56.09765625 C-3.07602718 56.03742131 -0.9927119 55.94857304 1.08984375 55.84765625 C2.25 55.80125 3.41015625 55.75484375 4.60546875 55.70703125 C8.35931083 54.99978564 9.4604837 54.00091209 11.83984375 51.09765625 C12.49984375 50.43765625 13.15984375 49.77765625 13.83984375 49.09765625 C13.59368113 52.6259872 12.95050039 54.90913012 11.15234375 57.97265625 C5.79201958 61.41135477 0.03619271 60.47497114 -6.16015625 60.09765625 C-8.06135724 52.96815254 -8.38439766 46.46024918 -8.16015625 39.09765625 C-5.85015625 39.09765625 -3.54015625 39.09765625 -1.16015625 39.09765625 C-1.66546875 38.21207031 -2.17078125 37.32648438 -2.69140625 36.4140625 C-6.4948992 29.33052857 -8.84765625 23.15580675 -8.84765625 15.03515625 C-8.85410156 14.33398682 -8.86054687 13.63281738 -8.8671875 12.91040039 C-8.66456037 7.04476717 -6.49766621 0.20079315 0 0 Z " fill="#E63D42" transform="translate(584.16015625,165.90234375)"/>
<path d="M0 0 C1.27617187 0.02320313 2.55234375 0.04640625 3.8671875 0.0703125 C5.78917969 0.09738281 5.78917969 0.09738281 7.75 0.125 C9.23113281 0.15980469 9.23113281 0.15980469 10.7421875 0.1953125 C11.08038916 1.7776131 11.41254689 3.36120625 11.7421875 4.9453125 C11.9278125 5.82703125 12.1134375 6.70875 12.3046875 7.6171875 C12.7421875 10.1953125 12.7421875 10.1953125 12.7421875 14.1953125 C10.1021875 14.1953125 7.4621875 14.1953125 4.7421875 14.1953125 C4.7421875 15.1853125 4.7421875 16.1753125 4.7421875 17.1953125 C7.3821875 17.1953125 10.0221875 17.1953125 12.7421875 17.1953125 C12.7421875 18.5153125 12.7421875 19.8353125 12.7421875 21.1953125 C11.0921875 21.1953125 9.4421875 21.1953125 7.7421875 21.1953125 C8.1753125 22.00613281 8.6084375 22.81695312 9.0546875 23.65234375 C12.73794826 30.97623494 15.11971455 36.95716053 13.7421875 45.1953125 C12.20915117 49.3564111 11.43315393 50.73466821 7.7421875 53.1953125 C4.38671875 53.390625 4.38671875 53.390625 0.5546875 53.3203125 C-0.71761719 53.30226562 -1.98992187 53.28421875 -3.30078125 53.265625 C-4.27660156 53.24242187 -5.25242187 53.21921875 -6.2578125 53.1953125 C-6.5878125 53.8553125 -6.9178125 54.5153125 -7.2578125 55.1953125 C-7.93982406 49.82447144 -8.37302515 44.61030691 -8.2578125 39.1953125 C-5.9478125 39.1953125 -3.6378125 39.1953125 -1.2578125 39.1953125 C-1.70253906 38.37546875 -2.14726562 37.555625 -2.60546875 36.7109375 C-3.17136719 35.63328125 -3.73726563 34.555625 -4.3203125 33.4453125 C-4.88878906 32.37796875 -5.45726562 31.310625 -6.04296875 30.2109375 C-7.2578125 27.1953125 -7.2578125 27.1953125 -6.2578125 23.1953125 C-4.2778125 26.8253125 -2.2978125 30.4553125 -0.2578125 34.1953125 C-0.75152344 33.14730469 -1.24523437 32.09929687 -1.75390625 31.01953125 C-2.40112877 29.64066588 -3.04825939 28.26175738 -3.6953125 26.8828125 C-4.02080078 26.19251953 -4.34628906 25.50222656 -4.68164062 24.79101562 C-7.34906217 19.09868306 -8.9528749 14.53476095 -8.2578125 8.1953125 C-5.04213515 0.30228628 -5.04213515 0.30228628 0 0 Z " fill="#E6373C" transform="translate(381.2578125,165.8046875)"/>
<path d="M0 0 C0.13501894 2.43934225 0.23403897 4.87124104 0.3125 7.3125 C0.35439453 8.00279297 0.39628906 8.69308594 0.43945312 9.40429688 C0.48828125 11.42578125 0.48828125 11.42578125 0 15 C-2.51953125 16.85546875 -2.51953125 16.85546875 -5 18 C-5 18.66 -5 19.32 -5 20 C-4.34 19.34 -3.68 18.68 -3 18 C-2.01 18 -1.02 18 0 18 C0 19.32 0 20.64 0 22 C-0.97195313 22.44859375 -1.94390625 22.8971875 -2.9453125 23.359375 C-4.70523468 24.29603006 -4.70523468 24.29603006 -6 26 C-6.94772002 30.73074174 -6.88452873 35.43798936 -6.875 40.25 C-6.895625 41.56742188 -6.91625 42.88484375 -6.9375 44.2421875 C-6.98464831 47.49542113 -7.00443602 50.74649409 -7 54 C-10.63 54 -14.26 54 -18 54 C-18 36.51 -18 19.02 -18 1 C-14.04 1 -10.08 1 -6 1 C-4 0 -4 0 0 0 Z " fill="#ED3338" transform="translate(540,165)"/>
<path d="M0 0 C3.63 0 7.26 0 11 0 C11 18.15 11 36.3 11 55 C7.37 55 3.74 55 0 55 C0 36.85 0 18.7 0 0 Z " fill="#E93439" transform="translate(208,164)"/>
<path d="M0 0 C4.29 0 8.58 0 13 0 C13 0.33 13 0.66 13 1 C9.04 1 5.08 1 1 1 C1.55880859 2.46373047 1.55880859 2.46373047 2.12890625 3.95703125 C2.60725502 5.24200736 3.08509308 6.52717367 3.5625 7.8125 C3.80935547 8.45509766 4.05621094 9.09769531 4.31054688 9.75976562 C6.11328125 14.66015625 6.11328125 14.66015625 5 18 C4.34 16.68 3.68 15.36 3 14 C3.28875 14.70125 3.5775 15.4025 3.875 16.125 C8.62543861 28.26500978 6.62266453 35.24522448 2 47 C1.34 46.34 0.68 45.68 0 45 C0.33 42.69 0.66 40.38 1 38 C-5.6 38 -12.2 38 -19 38 C-19 36.02 -19 34.04 -19 32 C-14.05 32 -9.1 32 -4 32 C-3.93941406 30.92621094 -3.87882812 29.85242188 -3.81640625 28.74609375 C-3.73192349 27.30988685 -3.64727946 25.87368942 -3.5625 24.4375 C-3.52318359 23.73302734 -3.48386719 23.02855469 -3.44335938 22.30273438 C-3.38051758 21.25375977 -3.38051758 21.25375977 -3.31640625 20.18359375 C-3.26141968 19.23311157 -3.26141968 19.23311157 -3.20532227 18.26342773 C-2.92401179 15.16232265 -2.44036322 12.08254255 -2 9 C-7.61 9 -13.22 9 -19 9 C-19 8.01 -19 7.02 -19 6 C-12.73 6 -6.46 6 0 6 C0 4.02 0 2.04 0 0 Z " fill="#FAF5F5" transform="translate(452,165)"/>
<path d="M0 0 C12.21 0 24.42 0 37 0 C37 3.63 37 7.26 37 11 C24.79 11 12.58 11 0 11 C0 7.37 0 3.74 0 0 Z " fill="#FDF5F5" transform="translate(337,71)"/>
<path d="M0 0 C12.21 0 24.42 0 37 0 C37 3.63 37 7.26 37 11 C24.79 11 12.58 11 0 11 C0 7.37 0 3.74 0 0 Z " fill="#FDF5F5" transform="translate(337,44)"/>
<path d="M0 0 C4.18087152 -0.07441989 8.3613873 -0.12872818 12.54272461 -0.16479492 C13.96369141 -0.1798376 15.38461213 -0.20027704 16.80541992 -0.22631836 C18.85346886 -0.26290347 20.9009015 -0.27977097 22.94921875 -0.29296875 C24.79519653 -0.31653442 24.79519653 -0.31653442 26.6784668 -0.34057617 C30.30742508 0.03152209 32.12172368 0.80051691 35 3 C37 6 37 6 37 11 C24.79 11 12.58 11 0 11 C0 7.37 0 3.74 0 0 Z " fill="#FDF8F9" transform="translate(249,44)"/>
<path d="M0 0 C4.14414141 -0.14930394 8.28682373 -0.25765166 12.43286133 -0.32958984 C13.84036556 -0.35960197 15.24768527 -0.40042758 16.65454102 -0.45263672 C29.83703208 -0.9292812 29.83703208 -0.9292812 34.46484375 2.7109375 C36.01147461 4.21240234 36.01147461 4.21240234 37 6 C37 7.65 37 9.3 37 11 C24.79 11 12.58 11 0 11 C0 7.37 0 3.74 0 0 Z " fill="#FDF9F9" transform="translate(293,44)"/>
<path d="M0 0 C3.63 0 7.26 0 11 0 C11 7.92 11 15.84 11 24 C7.37 24 3.74 24 0 24 C0 16.08 0 8.16 0 0 Z " fill="#FDF4F4" transform="translate(293,58)"/>
<path d="M0 0 C3.63 0 7.26 0 11 0 C11 7.92 11 15.84 11 24 C7.37 24 3.74 24 0 24 C0 16.08 0 8.16 0 0 Z " fill="#FDF6F6" transform="translate(276,58)"/>
<path d="M0 0 C3.63 0 7.26 0 11 0 C11 7.92 11 15.84 11 24 C7.37 24 3.74 24 0 24 C0 16.08 0 8.16 0 0 Z " fill="#FDF7F7" transform="translate(249,58)"/>
<path d="M0 0 C0.33 0 0.66 0 1 0 C1.02578125 0.87140625 1.0515625 1.7428125 1.078125 2.640625 C1.59797785 13.55753484 3.440328 23.097588 10 32 C10 32.66 10 33.32 10 34 C10.804375 34.309375 11.60875 34.61875 12.4375 34.9375 C15 36 15 36 16 37 C18.69235776 37.23678716 21.36498156 37.42198025 24.0625 37.5625 C25.20041992 37.62727539 25.20041992 37.62727539 26.36132812 37.69335938 C28.24065438 37.79973633 30.12030244 37.90039934 32 38 C32 40.31 32 42.62 32 45 C16.08501658 45.85975301 16.08501658 45.85975301 11.8125 43.0625 C4.55251036 36.35222237 1.0723182 25.53281044 0 16 C-0.10594782 13.1853862 -0.09599368 10.37854577 -0.0625 7.5625 C-0.05798828 6.83095703 -0.05347656 6.09941406 -0.04882812 5.34570312 C-0.03718148 3.56376581 -0.01925191 1.78187137 0 0 Z " fill="#E6D7D8" transform="translate(170,181)"/>
<path d="M0 0 C7.92 0 15.84 0 24 0 C24 3.3 24 6.6 24 10 C16.08 10 8.16 10 0 10 C0 6.7 0 3.4 0 0 Z " fill="#FDFAFA" transform="translate(337,58)"/>
<path d="M0 0 C3.3 0 6.6 0 10 0 C10 7.92 10 15.84 10 24 C6.7 24 3.4 24 0 24 C0 16.08 0 8.16 0 0 Z " fill="#FDFDFD" transform="translate(320,58)"/>
<path d="M0 0 C3.3 0 6.6 0 10 0 C10 7.92 10 15.84 10 24 C6.7 24 3.4 24 0 24 C0 16.08 0 8.16 0 0 Z " fill="#FDFDFD" transform="translate(263,58)"/>
<path d="M0 0 C0.33 0 0.66 0 1 0 C1 23.43 1 46.86 1 71 C4.3 71 7.6 71 11 71 C11 65.39 11 59.78 11 54 C12.19625 53.484375 13.3925 52.96875 14.625 52.4375 C21.32311008 49.08251743 25.0236279 43.77951423 28 37 C29 40 29 40 27.99609375 42.3046875 C23.8048311 49.21659432 20.33397207 53.33301397 13 57 C12.67 63.93 12.34 70.86 12 78 C8.04 78 4.08 78 0 78 C0 52.26 0 26.52 0 0 Z " fill="#DA9A9C" transform="translate(486,166)"/>
<path d="M0 0 C0.99 0.33 1.98 0.66 3 1 C3.67020269 5.43697351 4.33555866 9.87466037 5 14.3125 C5.19078125 15.57513672 5.3815625 16.83777344 5.578125 18.13867188 C5.84882813 19.95141602 5.84882813 19.95141602 6.125 21.80078125 C6.29257812 22.91622314 6.46015625 24.03166504 6.6328125 25.1809082 C7 28 7 28 7 31 C10.96 31 14.92 31 19 31 C19 32.32 19 33.64 19 35 C14.71 35 10.42 35 6 35 C5.72285156 33.37449219 5.44570313 31.74898437 5.16015625 30.07421875 C4.79439341 27.94529144 4.42850128 25.81638633 4.0625 23.6875 C3.88009766 22.61564453 3.69769531 21.54378906 3.50976562 20.43945312 C3.24389648 18.89741211 3.24389648 18.89741211 2.97265625 17.32421875 C2.81031494 16.37635498 2.64797363 15.42849121 2.48071289 14.4519043 C2.03028628 11.87786089 2.03028628 11.87786089 1 9 C-0.32 17.58 -1.64 26.16 -3 35 C-7.29 35 -11.58 35 -16 35 C-16 33.68 -16 32.36 -16 31 C-12.04 31 -8.08 31 -4 31 C-3.8453125 28.339375 -3.8453125 28.339375 -3.6875 25.625 C-3.03858787 16.98874294 -1.52023039 8.51902692 0 0 Z " fill="#AE9496" transform="translate(345,191)"/>
<path d="M0 0 C2.37120047 3.55680071 2.90599395 6.8767204 3.625 11 C3.7590625 11.72445312 3.893125 12.44890625 4.03125 13.1953125 C4.56927538 16.17092227 5 18.97019156 5 22 C8.63 22 12.26 22 16 22 C16.495 23.98 16.495 23.98 17 26 C12.71 26 8.42 26 4 26 C2.515 19.07 2.515 19.07 1 12 C-0.59035502 15.18071004 -1.64848268 17.87657653 -2.625 21.25 C-3.07875 22.8175 -3.5325 24.385 -4 26 C-7.96 26 -11.92 26 -16 26 C-16 24.68 -16 23.36 -16 22 C-12.04 22 -8.08 22 -4 22 C-3.896875 20.411875 -3.79375 18.82375 -3.6875 17.1875 C-3.16081224 11.22353563 -1.75579388 5.7090908 0 0 Z " fill="#B89395" transform="translate(468,200)"/>
<path d="M0 0 C0.33 0 0.66 0 1 0 C1.57146194 15.26015045 1.57146194 15.26015045 -2 21 C-4.53885812 23.55083387 -5.80473517 23.98343341 -9.453125 24.29296875 C-10.70609375 24.25816406 -11.9590625 24.22335938 -13.25 24.1875 C-14.51328125 24.16042969 -15.7765625 24.13335937 -17.078125 24.10546875 C-18.04234375 24.07066406 -19.0065625 24.03585938 -20 24 C-20.36644578 22.44033408 -20.71760862 20.87707349 -21.0625 19.3125 C-21.25972656 18.44238281 -21.45695313 17.57226562 -21.66015625 16.67578125 C-22.02032279 13.83998724 -21.70909969 11.75210018 -21 9 C-20.67 9 -20.34 9 -20 9 C-19.67 11.64 -19.34 14.28 -19 17 C-16.91587093 16.93976506 -14.83255565 16.85091679 -12.75 16.75 C-11.00976562 16.68039063 -11.00976562 16.68039063 -9.234375 16.609375 C-5.4968859 15.90521039 -4.32223904 14.94150278 -2 12 C-0.78306124 9.56612247 -0.68040104 7.58161154 -0.4375 4.875 C-0.35371094 3.96492187 -0.26992188 3.05484375 -0.18359375 2.1171875 C-0.09271484 1.06917969 -0.09271484 1.06917969 0 0 Z " fill="#E6DBDB" transform="translate(623,202)"/>
<path d="M0 0 C2.31 0 4.62 0 7 0 C7 11.55 7 23.1 7 35 C10.63 35 14.26 35 18 35 C18 36.32 18 37.64 18 39 C14.04 39 10.08 39 6 39 C6 26.46 6 13.92 6 1 C4.35 1 2.7 1 1 1 C1 13.54 1 26.08 1 39 C-2.63 39 -6.26 39 -10 39 C-10 37.68 -10 36.36 -10 35 C-6.7 35 -3.4 35 0 35 C0 23.45 0 11.9 0 0 Z " fill="#DAB9BA" transform="translate(96,187)"/>
<path d="M0 0 C3.63 0 7.26 0 11 0 C11 4.62 11 9.24 11 14 C7.37 14 3.74 14 0 14 C0 9.38 0 4.76 0 0 Z " fill="#ED3338" transform="translate(208,147)"/>
<path d="M0 0 C6 0 6 0 9 2 C8.67 2.99 8.34 3.98 8 5 C5.69 4.34 3.38 3.68 1 3 C1 4.32 1 5.64 1 7 C2.1446875 6.9071875 2.1446875 6.9071875 3.3125 6.8125 C6 7 6 7 7.875 8.0625 C9.72623416 11.2507366 8.88482581 13.51968514 8 17 C5.62689466 21.33705459 4.49522012 22.75238994 0 25 C0 16.75 0 8.5 0 0 Z " fill="#FEFAFA" transform="translate(497,180)"/>
<path d="M0 0 C2 3 2 3 3.375 5.5625 C5.17498779 8.26248169 6.04013182 8.83724107 9 10 C11.50965963 10.36254806 11.50965963 10.36254806 14.203125 10.4140625 C15.1828125 10.45273438 16.1625 10.49140625 17.171875 10.53125 C18.18765625 10.5621875 19.2034375 10.593125 20.25 10.625 C21.796875 10.68300781 21.796875 10.68300781 23.375 10.7421875 C25.9164894 10.83631674 28.45797433 10.92194979 31 11 C31 12.32 31 13.64 31 15 C27.43765572 15.08741124 23.87558892 15.14052896 20.3125 15.1875 C19.30509766 15.21263672 18.29769531 15.23777344 17.25976562 15.26367188 C7.75107521 15.35781732 7.75107521 15.35781732 4 12 C2.63671875 10.09765625 2.63671875 10.09765625 1.6875 8.0625 C1.36136719 7.39347656 1.03523438 6.72445312 0.69921875 6.03515625 C0 4 0 4 0 0 Z " fill="#403D3E" transform="translate(49,211)"/>
<path d="M0 0 C0.33 0.99 0.66 1.98 1 3 C1.66 3.33 2.32 3.66 3 4 C2.70488525 4.96115723 2.40977051 5.92231445 2.10571289 6.91259766 C0.83885861 11.35504541 0.06931677 15.84638726 -0.69140625 20.3984375 C-0.841577 21.27400299 -0.99174774 22.14956848 -1.14646912 23.05166626 C-1.78467575 26.77321217 -2.41383306 30.49627352 -3.04370117 34.21923828 C-3.50639051 36.94619733 -3.97375581 39.67232564 -4.44140625 42.3984375 C-4.58308731 43.24626801 -4.72476837 44.09409851 -4.8707428 44.96762085 C-5.88715914 50.88715914 -5.88715914 50.88715914 -7 52 C-9.01964199 52.07244053 -11.04167124 52.08377188 -13.0625 52.0625 C-14.71958984 52.04896484 -14.71958984 52.04896484 -16.41015625 52.03515625 C-17.26480469 52.02355469 -18.11945313 52.01195312 -19 52 C-19.495 50.515 -19.495 50.515 -20 49 C-16.04 49 -12.08 49 -8 49 C-7.73445313 47.06898438 -7.46890625 45.13796875 -7.1953125 43.1484375 C-5.92795785 34.27695498 -4.40783168 25.45381884 -2.875 16.625 C-2.59486791 15.00263596 -2.31491895 13.38024028 -2.03515625 11.7578125 C-1.35887377 7.83817512 -0.68014117 3.91896957 0 0 Z " fill="#B09091" transform="translate(371,170)"/>
<path d="M0 0 C0.33 0.99 0.66 1.98 1 3 C0.67 3.66 0.34 4.32 0 5 C-9.57 5 -19.14 5 -29 5 C-29 3.68 -29 2.36 -29 1 C-19.43 0.67 -9.86 0.34 0 0 Z " fill="#383536" transform="translate(450,221)"/>
<path d="M0 0 C1.51314795 4.35275677 0.15136347 6.69307516 -1.76171875 10.68359375 C-4.65181634 16.08999082 -7.27314287 20.36345512 -13 23 C-15.85672736 23.20984775 -18.47201222 23.28649823 -21.3125 23.1875 C-22.42334961 23.16719727 -22.42334961 23.16719727 -23.55664062 23.14648438 C-25.37141075 23.11135979 -27.18580288 23.05755972 -29 23 C-29 21.68 -29 20.36 -29 19 C-27.91460937 18.97421875 -26.82921875 18.9484375 -25.7109375 18.921875 C-24.26558651 18.86556262 -22.82027556 18.808216 -21.375 18.75 C-20.66214844 18.73582031 -19.94929687 18.72164062 -19.21484375 18.70703125 C-14.0926973 18.4720704 -11.06086235 17.36608354 -7 14 C-3.56438544 9.88059808 -1.41860174 5.15855179 0 0 Z " fill="#444142" transform="translate(166,203)"/>
<path d="M0 0 C1.55243375 2.32865063 2.66383201 4.36259426 3.8125 6.875 C6.24218769 11.80690338 9.43056465 14.95370977 14 18 C16.75417318 18.30066154 19.42645147 18.50925299 22.1875 18.625 C22.93708984 18.66367188 23.68667969 18.70234375 24.45898438 18.7421875 C26.30559199 18.83628216 28.1527619 18.91922319 30 19 C30 20.32 30 21.64 30 23 C14.08501658 23.85975301 14.08501658 23.85975301 9.8125 21.0625 C6.20180154 17.74481634 4.04846112 13.39298888 2 9 C1.566875 8.071875 1.13375 7.14375 0.6875 6.1875 C0 4 0 4 0 0 Z " fill="#444142" transform="translate(172,203)"/>
<path d="M0 0 C0.33 0 0.66 0 1 0 C1.02578125 1.19496094 1.0515625 2.38992187 1.078125 3.62109375 C1.06283168 16.00606066 1.06283168 16.00606066 6 27 C9.1073509 28.89775772 11.59055827 29.28804273 15.203125 29.4140625 C16.1828125 29.45273438 17.1625 29.49140625 18.171875 29.53125 C19.18765625 29.5621875 20.2034375 29.593125 21.25 29.625 C22.796875 29.68300781 22.796875 29.68300781 24.375 29.7421875 C26.9164894 29.83631674 29.45797433 29.92194979 32 30 C32 30.99 32 31.98 32 33 C28.43765572 33.08741124 24.87558892 33.14052896 21.3125 33.1875 C19.80139648 33.22520508 19.80139648 33.22520508 18.25976562 33.26367188 C8.78479949 33.35748342 8.78479949 33.35748342 5 30 C3.33392403 27.77060894 2.27209987 25.49708494 1 23 C0.67 23 0.34 23 0 23 C0 15.41 0 7.82 0 0 Z " fill="#EFDEDE" transform="translate(48,189)"/>
<path d="M0 0 C1.98 0 3.96 0 6 0 C6 5.61 6 11.22 6 17 C1.6323084 15.9080771 1.21367705 15.62238063 -1 12 C-2.47091354 9.1317186 -3.05027329 7.54043791 -2.75 4.3125 C-2 2 -2 2 0 0 Z " fill="#F4E9EA" transform="translate(185,187)"/>
<path d="M0 0 C6 0 6 0 7.91015625 1.2265625 C9 3 9 3 8.99609375 5.0859375 C7.82473353 9.886057 6.72113265 13.50439054 3 17 C2.01 17 1.02 17 0 17 C0 11.39 0 5.78 0 0 Z " fill="#F4EBEB" transform="translate(148,187)"/>
<path d="M0 0 C2.11198504 2.11198504 2.76333342 3.57927018 3.875 6.3125 C6.35511261 12.01401349 9.10616588 16.49198548 15 19 C18.65918006 19.53233834 22.30831301 19.81250626 26 20 C26 21.32 26 22.64 26 24 C20.2027383 24.57546348 15.43580823 24.91252431 10.5625 21.375 C5.16172266 16.65758633 1.84335412 10.89861314 0 4 C0 2.68 0 1.36 0 0 Z " fill="#474445" transform="translate(290,202)"/>
<path d="M0 0 C2.0242281 2.55691971 3.71848661 5.19908146 5.375 8 C7.88727182 12.07580051 10.67707489 14.83853745 15 17 C16.87056791 17.2275015 18.74685958 17.40962811 20.625 17.5625 C21.62789062 17.64628906 22.63078125 17.73007813 23.6640625 17.81640625 C24.43492187 17.87699219 25.20578125 17.93757813 26 18 C26 19.32 26 20.64 26 22 C16.31520241 22.62037849 16.31520241 22.62037849 11.6875 20.4375 C5.85577003 15.14825654 2.28371536 10.61238454 0 3 C0 2.01 0 1.02 0 0 Z " fill="#413E3F" transform="translate(544,204)"/>
<path d="M0 0 C0.33 0 0.66 0 1 0 C1.03738281 0.89460937 1.07476563 1.78921875 1.11328125 2.7109375 C1.76616575 14.71889161 3.37873554 25.99466712 12.6875 34.4375 C16.17541102 36.79419663 18.44103872 37.22194501 22.625 37.5625 C23.62789062 37.64628906 24.63078125 37.73007813 25.6640625 37.81640625 C26.43492187 37.87699219 27.20578125 37.93757813 28 38 C27.67 38.99 27.34 39.98 27 41 C22.07017894 41.35073826 18.19484365 41.58614972 13.6875 39.375 C8.92896494 35.16978297 5.52407855 30.84523454 3 25 C3 24.34 3 23.68 3 23 C2.34 23 1.68 23 1 23 C0.13190561 17.79826905 -0.12515348 12.83021184 -0.0625 7.5625 C-0.05798828 6.83095703 -0.05347656 6.09941406 -0.04882812 5.34570312 C-0.03718148 3.56376581 -0.01925191 1.78187137 0 0 Z " fill="#E8DCDC" transform="translate(542,181)"/>
<path d="M0 0 C4.29 0 8.58 0 13 0 C13 0.33 13 0.66 13 1 C9.04 1 5.08 1 1 1 C1.55880859 2.46373047 1.55880859 2.46373047 2.12890625 3.95703125 C2.60725502 5.24200736 3.08509308 6.52717367 3.5625 7.8125 C3.80935547 8.45509766 4.05621094 9.09769531 4.31054688 9.75976562 C6.11328125 14.66015625 6.11328125 14.66015625 5 18 C4.01 15.36 3.02 12.72 2 10 C0.68 10.33 -0.64 10.66 -2 11 C-2 10.34 -2 9.68 -2 9 C-7.61 9 -13.22 9 -19 9 C-19 8.01 -19 7.02 -19 6 C-12.73 6 -6.46 6 0 6 C0 4.02 0 2.04 0 0 Z " fill="#F7E1E1" transform="translate(452,165)"/>
<path d="M0 0 C5.94 0 11.88 0 18 0 C18.33 1.65 18.66 3.3 19 5 C12.73 5 6.46 5 0 5 C0 3.35 0 1.7 0 0 Z " fill="#4F4C4D" transform="translate(433,166)"/>
<path d="M0 0 C0.66 0.33 1.32 0.66 2 1 C2 8.59 2 16.18 2 24 C0.23772048 21.35658072 -1.19871008 18.76922765 -2.625 15.9375 C-3.07101562 15.05964844 -3.51703125 14.18179688 -3.9765625 13.27734375 C-5 11 -5 11 -5 9 C-3.35 9 -1.7 9 0 9 C0 7.68 0 6.36 0 5 C-2.64 5 -5.28 5 -8 5 C-7.67 4.01 -7.34 3.02 -7 2 C-4.69 2 -2.38 2 0 2 C0 1.34 0 0.68 0 0 Z " fill="#FEFBFB" transform="translate(622,178)"/>
<path d="M0 0 C0.33 0 0.66 0 1 0 C1 17.49 1 34.98 1 53 C4.3 53 7.6 53 11 53 C11 53.99 11 54.98 11 56 C7.7 56 4.4 56 1 56 C0.67 57.32 0.34 58.64 0 60 C0 40.2 0 20.4 0 0 Z " fill="#DDADAE" transform="translate(85,166)"/>
<path d="M0 0 C0.66 0 1.32 0 2 0 C7.95703125 11.9140625 7.95703125 11.9140625 8.99853516 14.01660156 C9.90348438 15.80885107 10.8609214 17.57436161 11.82421875 19.3359375 C13 22 13 22 12 25 C8.7 18.73 5.4 12.46 2 6 C1.67 18.87 1.34 31.74 1 45 C0.67 45 0.34 45 0 45 C0 30.15 0 15.3 0 0 Z " fill="#E29FA1" transform="translate(258,174)"/>
<path d="M0 0 C0.75 1.625 0.75 1.625 1 4 C-2.17808219 9.5890411 -2.17808219 9.5890411 -5 11 C-7.37402501 11.07116382 -9.75000677 11.08409085 -12.125 11.0625 C-13.40632812 11.05347656 -14.68765625 11.04445312 -16.0078125 11.03515625 C-17.48894531 11.01775391 -17.48894531 11.01775391 -19 11 C-19 9.68 -19 8.36 -19 7 C-18.03578125 6.97421875 -17.0715625 6.9484375 -16.078125 6.921875 C-14.81484375 6.86515625 -13.5515625 6.8084375 -12.25 6.75 C-10.99703125 6.70359375 -9.7440625 6.6571875 -8.453125 6.609375 C-4.55860305 5.92210642 -3.38245417 5.07637286 -1 2 C-0.67 1.34 -0.34 0.68 0 0 Z " fill="#3F3C3D" transform="translate(597,215)"/>
<path d="M0 0 C0.75 1.625 0.75 1.625 1 4 C-2.17808219 9.5890411 -2.17808219 9.5890411 -5 11 C-7.37402501 11.07116382 -9.75000677 11.08409085 -12.125 11.0625 C-13.40632813 11.05347656 -14.68765625 11.04445312 -16.0078125 11.03515625 C-17.48894531 11.01775391 -17.48894531 11.01775391 -19 11 C-19 9.68 -19 8.36 -19 7 C-18.03578125 6.97421875 -17.0715625 6.9484375 -16.078125 6.921875 C-14.81484375 6.86515625 -13.5515625 6.8084375 -12.25 6.75 C-10.99703125 6.70359375 -9.7440625 6.6571875 -8.453125 6.609375 C-4.55860305 5.92210642 -3.38245417 5.07637286 -1 2 C-0.67 1.34 -0.34 0.68 0 0 Z " fill="#3F3C3D" transform="translate(394,215)"/>
<path d="M0 0 C0.33 0 0.66 0 1 0 C0.55262788 9.66323769 -2.63325179 16.15722438 -9.1171875 23.30078125 C-11.87815157 25.79252268 -14.48271006 26.85149716 -18 28 C-18 25.8125 -18 25.8125 -17 23 C-15.36328125 21.87109375 -15.36328125 21.87109375 -13.3125 20.75 C-5.98645547 16.54868414 -2.78160005 9.50710363 -0.4453125 1.65234375 C-0.29835938 1.10707031 -0.15140625 0.56179687 0 0 Z " fill="#464344" transform="translate(516,199)"/>
<path d="M0 0 C1.04398649 4.17594596 1.09768837 4.55546362 -0.65234375 8.109375 C-1.01650391 8.86347656 -1.38066406 9.61757812 -1.75585938 10.39453125 C-2.14580078 11.17183594 -2.53574219 11.94914063 -2.9375 12.75 C-3.51661133 13.93916016 -3.51661133 13.93916016 -4.10742188 15.15234375 C-5.06107367 17.10674125 -6.0291649 19.05408106 -7 21 C-7.99 21 -8.98 21 -10 21 C-11.36907416 18.42362412 -12.72028455 15.84031896 -14.0625 13.25 C-14.45244141 12.52039063 -14.84238281 11.79078125 -15.24414062 11.0390625 C-15.60830078 10.33007812 -15.97246094 9.62109375 -16.34765625 8.890625 C-16.68804932 8.24125977 -17.02844238 7.59189453 -17.37915039 6.92285156 C-18 5 -18 5 -17 1 C-14.36 6.28 -11.72 11.56 -9 17 C-6.03 11.39 -3.06 5.78 0 0 Z " fill="#514B4C" transform="translate(30,179)"/>
<path d="M0 0 C1 3 1 3 -0.25 5.5625 C-2 8 -2 8 -5 10 C-8.35546875 10.1953125 -8.35546875 10.1953125 -12.1875 10.125 C-13.45980469 10.10695312 -14.73210938 10.08890625 -16.04296875 10.0703125 C-17.50669922 10.03550781 -17.50669922 10.03550781 -19 10 C-19 8.68 -19 7.36 -19 6 C-17.57107422 5.97873047 -17.57107422 5.97873047 -16.11328125 5.95703125 C-8.1996583 6.08312159 -8.1996583 6.08312159 -1.625 2.4375 C-1.08875 1.633125 -0.5525 0.82875 0 0 Z " fill="#3F3D3E" transform="translate(622,216)"/>
<path d="M0 0 C1.42694199 1.87755525 2.8354958 3.75126513 4.13671875 5.71875 C6.66915093 9.48943767 8.64633219 12.29639086 13 14 C16.66030482 14.52290069 20.30839399 14.81251038 24 15 C24 15.99 24 16.98 24 18 C18.33339229 18.56249415 13.45548653 18.92163144 8.625 15.5625 C4.63068558 12.11062334 1.93960816 7.8956456 0 3 C0 2.01 0 1.02 0 0 Z " fill="#F3EBEC" transform="translate(292,204)"/>
<path d="M0 0 C0.33 0 0.66 0 1 0 C2.02403597 10.9555594 2.02403597 10.9555594 -0.1015625 15.19921875 C-2.99636634 18.143933 -5.24385255 18.92174753 -9.359375 19.34765625 C-12.59868962 19.37241084 -15.77224885 19.2621031 -19 19 C-19.33 18.01 -19.66 17.02 -20 16 C-18.55367187 15.96132812 -18.55367187 15.96132812 -17.078125 15.921875 C-15.81484375 15.86515625 -14.5515625 15.8084375 -13.25 15.75 C-11.99703125 15.70359375 -10.7440625 15.6571875 -9.453125 15.609375 C-5.49495798 14.91087494 -4.29012067 14.25901788 -2 11 C-1.09947335 8.20766243 -1.09947335 8.20766243 -0.75 5.25 C-0.60046875 4.26515625 -0.4509375 3.2803125 -0.296875 2.265625 C-0.19890625 1.51796875 -0.1009375 0.7703125 0 0 Z " fill="#F4EAEA" transform="translate(598,203)"/>
<path d="M0 0 C0.33 0 0.66 0 1 0 C1.02726927 2.35424675 1.04696719 4.70816962 1.0625 7.0625 C1.07410156 8.37347656 1.08570313 9.68445313 1.09765625 11.03515625 C0.84848485 21.15151515 0.84848485 21.15151515 -2 24 C-2.65868068 25.25370735 -3.2802804 26.52721756 -3.875 27.8125 C-6.10115672 32.33874484 -8.04770843 36.06822448 -12.75 38.3125 C-13.86375 38.6528125 -13.86375 38.6528125 -15 39 C-15 38.34 -15 37.68 -15 37 C-15.66 36.67 -16.32 36.34 -17 36 C-15.96875 35.71125 -14.9375 35.4225 -13.875 35.125 C-7.80617731 32.5082809 -5.40350137 26.38587879 -2.99609375 20.578125 C-0.72573347 13.86575546 -0.32002355 7.04051809 0 0 Z " fill="#DFC9CA" transform="translate(168,182)"/>
<path d="M0 0 C0.66 0 1.32 0 2 0 C2 1.32 2 2.64 2 4 C1.34 4 0.68 4 0 4 C-0.268125 4.78375 -0.53625 5.5675 -0.8125 6.375 C-2 9 -2 9 -5 11 C-7.58885171 11.29991069 -10.09149082 11.50865225 -12.6875 11.625 C-13.38939453 11.66367188 -14.09128906 11.70234375 -14.81445312 11.7421875 C-16.54254655 11.8362334 -18.27123675 11.9191968 -20 12 C-19.67 10.68 -19.34 9.36 -19 8 C-18.03578125 7.97421875 -17.0715625 7.9484375 -16.078125 7.921875 C-14.81484375 7.86515625 -13.5515625 7.8084375 -12.25 7.75 C-10.99703125 7.70359375 -9.7440625 7.6571875 -8.453125 7.609375 C-4.54743151 6.92013497 -3.35039049 6.12624754 -1 3 C-0.67 2.01 -0.34 1.02 0 0 Z " fill="#F1EDED" transform="translate(394,211)"/>
<path d="M0 0 C0.99 0 1.98 0 3 0 C3 1.32 3 2.64 3 4 C2.02804687 4.44859375 1.05609375 4.8971875 0.0546875 5.359375 C-1.70523468 6.29603006 -1.70523468 6.29603006 -3 8 C-3.94772002 12.73074174 -3.88452873 17.43798936 -3.875 22.25 C-3.895625 23.56742188 -3.91625 24.88484375 -3.9375 26.2421875 C-3.98464831 29.49542113 -4.00443602 32.74649409 -4 36 C-4.33 36 -4.66 36 -5 36 C-5 24.78 -5 13.56 -5 2 C-4.01 2 -3.02 2 -2 2 C-1.34 1.34 -0.68 0.68 0 0 Z " fill="#EE3C41" transform="translate(537,183)"/>
<path d="M0 0 C0 1.65 0 3.3 0 5 C-4.95 5 -9.9 5 -15 5 C-15 3.68 -15 2.36 -15 1 C-12.68753088 0.83290546 -10.37502385 0.66633538 -8.0625 0.5 C-6.77472656 0.4071875 -5.48695313 0.314375 -4.16015625 0.21875 C-1 0 -1 0 0 0 Z " fill="#403D3E" transform="translate(448,192)"/>
<path d="M0 0 C1.65 0 3.3 0 5 0 C5.66 0.66 6.32 1.32 7 2 C6.67 2.99 6.34 3.98 6 5 C3.525 4.01 3.525 4.01 1 3 C1 4.32 1 5.64 1 7 C2.98 7.495 2.98 7.495 5 8 C3.68 8 2.36 8 1 8 C1 18.23 1 28.46 1 39 C0.67 39 0.34 39 0 39 C0 26.13 0 13.26 0 0 Z " fill="#D87678" transform="translate(113,180)"/>
<path d="M0 0 C4.75 0.75 4.75 0.75 7 3 C7.17495606 5.50920846 7.23169569 7.90624941 7.1953125 10.4140625 C7.1924826 11.14370209 7.18965271 11.87334167 7.18673706 12.62509155 C7.17553002 14.95856028 7.1504251 17.29164703 7.125 19.625 C7.11497085 21.20572363 7.10584489 22.78645327 7.09765625 24.3671875 C7.07558905 28.24493914 7.04105615 32.12240478 7 36 C6.67 36 6.34 36 6 36 C5.67 26.1 5.34 16.2 5 6 C2.525 5.01 2.525 5.01 0 4 C0 2.68 0 1.36 0 0 Z " fill="#EE474C" transform="translate(114,183)"/>
<path d="M0 0 C6 0 6 0 9 2 C8.67 2.99 8.34 3.98 8 5 C5.69 4.34 3.38 3.68 1 3 C1 4.32 1 5.64 1 7 C2.65 7 4.3 7 6 7 C6 7.33 6 7.66 6 8 C4.35 8 2.7 8 1 8 C1.33 13.61 1.66 19.22 2 25 C1.34 25 0.68 25 0 25 C0 16.75 0 8.5 0 0 Z " fill="#CA8889" transform="translate(497,180)"/>
<path d="M0 0 C1 3 1 3 -0.00390625 5.3046875 C-4.51308381 12.74087505 -8.21994108 17.70046076 -17 20 C-17 19.01 -17 18.02 -17 17 C-15.80375 16.484375 -14.6075 15.96875 -13.375 15.4375 C-6.67688992 12.08251743 -2.9763721 6.77951423 0 0 Z " fill="#F3E3E4" transform="translate(514,203)"/>
<path d="M0 0 C4.29 0 8.58 0 13 0 C13 1.32 13 2.64 13 4 C8.71 4 4.42 4 0 4 C0 2.68 0 1.36 0 0 Z " fill="#3F3C3D" transform="translate(351,222)"/>
<path d="M0 0 C4.29 0 8.58 0 13 0 C13 1.32 13 2.64 13 4 C8.71 4 4.42 4 0 4 C0 2.68 0 1.36 0 0 Z " fill="#423F40" transform="translate(246,222)"/>
<path d="M0 0 C0.33 0 0.66 0 1 0 C1 6.27 1 12.54 1 19 C0.34 19 -0.32 19 -1 19 C-1.20625 19.680625 -1.4125 20.36125 -1.625 21.0625 C-3.42895027 24.91639375 -5.9010345 28.07787764 -9 31 C-9.66 31 -10.32 31 -11 31 C-9.33556574 27.34304587 -7.14871282 24.80023806 -4.4375 21.87890625 C-0.99014839 17.37299287 -0.62817676 12.699369 -0.375 7.1875 C-0.33632813 6.49462891 -0.29765625 5.80175781 -0.2578125 5.08789062 C-0.16426432 3.39232985 -0.08107636 1.69620288 0 0 Z " fill="#E4BEBF" transform="translate(573,173)"/>
<path d="M0 0 C3.96 0 7.92 0 12 0 C12.33 1.32 12.66 2.64 13 4 C8.71 4 4.42 4 0 4 C0 2.68 0 1.36 0 0 Z " fill="#3D3A3B" transform="translate(472,222)"/>
<path d="M0 0 C3.55880028 3.30066556 5.49064081 7.19318328 7.75 11.4375 C8.17410156 12.20126953 8.59820312 12.96503906 9.03515625 13.75195312 C9.62876953 14.86280273 9.62876953 14.86280273 10.234375 15.99609375 C10.77916504 17.00434204 10.77916504 17.00434204 11.33496094 18.03295898 C12.13887679 20.41076735 11.8147307 21.66433002 11 24 C9.15664797 20.56778191 7.32707091 17.12840873 5.5 13.6875 C4.97535156 12.71103516 4.45070313 11.73457031 3.91015625 10.72851562 C3.41386719 9.79072266 2.91757812 8.85292969 2.40625 7.88671875 C1.94541016 7.02264404 1.48457031 6.15856934 1.00976562 5.26831055 C0 3 0 3 0 0 Z " fill="#4D4A4B" transform="translate(259,179)"/>
<path d="M0 0 C3.96 0 7.92 0 12 0 C12 1.32 12 2.64 12 4 C8.04 4 4.08 4 0 4 C0 2.68 0 1.36 0 0 Z " fill="#3A3738" transform="translate(452,222)"/>
<path d="M0 0 C3.96 0 7.92 0 12 0 C12 1.32 12 2.64 12 4 C8.04 4 4.08 4 0 4 C0 2.68 0 1.36 0 0 Z " fill="#383536" transform="translate(329,222)"/>
<path d="M0 0 C3.96 0 7.92 0 12 0 C12 1.32 12 2.64 12 4 C8.04 4 4.08 4 0 4 C0 2.68 0 1.36 0 0 Z " fill="#3B3839" transform="translate(272,222)"/>
<path d="M0 0 C3.96 0 7.92 0 12 0 C12 1.32 12 2.64 12 4 C8.04 4 4.08 4 0 4 C0 2.68 0 1.36 0 0 Z " fill="#373435" transform="translate(31,222)"/>
<path d="M0 0 C3.96 0 7.92 0 12 0 C12 1.32 12 2.64 12 4 C8.04 4 4.08 4 0 4 C0 2.68 0 1.36 0 0 Z " fill="#383536" transform="translate(0,222)"/>
<path d="M0 0 C5.28 0 10.56 0 16 0 C16 0.99 16 1.98 16 3 C10.72 3 5.44 3 0 3 C0 2.01 0 1.02 0 0 Z " fill="#F6F6F6" transform="translate(137,219)"/>
<path d="M0 0 C0.99 0 1.98 0 3 0 C3 7.59 3 15.18 3 23 C2.67 21.68 2.34 20.36 2 19 C1.21625 19.474375 0.4325 19.94875 -0.375 20.4375 C-1.88948678 21.33898023 -3.4235897 22.21179485 -5 23 C-4.44225728 19.76509224 -3.62788492 18.02144994 -1 16 C-0.01 16 0.98 16 2 16 C2 11.05 2 6.1 2 1 C1.34 0.67 0.68 0.34 0 0 Z " fill="#EACDCE" transform="translate(538,164)"/>
<path d="M0 0 C3.63 0 7.26 0 11 0 C11 1.32 11 2.64 11 4 C7.37 4 3.74 4 0 4 C0 2.68 0 1.36 0 0 Z " fill="#383536" transform="translate(522,222)"/>
<path d="M0 0 C3.63 0 7.26 0 11 0 C11 1.32 11 2.64 11 4 C7.37 4 3.74 4 0 4 C0 2.68 0 1.36 0 0 Z " fill="#383536" transform="translate(208,222)"/>
<path d="M0 0 C3.63 0 7.26 0 11 0 C11 1.32 11 2.64 11 4 C7.37 4 3.74 4 0 4 C0 2.68 0 1.36 0 0 Z " fill="#3B3839" transform="translate(120,222)"/>
<path d="M0 0 C3.63 0 7.26 0 11 0 C11 1.32 11 2.64 11 4 C7.37 4 3.74 4 0 4 C0 2.68 0 1.36 0 0 Z " fill="#3E3C3D" transform="translate(103,222)"/>
<path d="M0 0 C3.96 0 7.92 0 12 0 C12 0.99 12 1.98 12 3 C8.04 3 4.08 3 0 3 C0 4.32 0 5.64 0 7 C-0.66 7 -1.32 7 -2 7 C-1.34 4.69 -0.68 2.38 0 0 Z " fill="#F6F6F6" transform="translate(452,219)"/>
<path d="M0 0 C1.41869483 3.83993402 0.56869248 6.72036414 -0.375 10.625 C-1.70351058 16.424343 -2.60358842 22.06749565 -3 28 C-3.33 28 -3.66 28 -4 28 C-4.46344565 8.45804196 -4.46344565 8.45804196 0 0 Z " fill="#A4898A" transform="translate(64,173)"/>
<path d="M0 0 C4.62 0 9.24 0 14 0 C14 0.99 14 1.98 14 3 C9.38 3 4.76 3 0 3 C0 2.01 0 1.02 0 0 Z " fill="#FDF8F8" transform="translate(433,190)"/>
<path d="M0 0 C0.99 0 1.98 0 3 0 C1.22089072 6.75052102 -0.70438191 13.40620337 -3 20 C-3.66 19.34 -4.32 18.68 -5 18 C-3.35 12.06 -1.7 6.12 0 0 Z " fill="#807677" transform="translate(481,173)"/>
<path d="M0 0 C3.3 0 6.6 0 10 0 C10 1.32 10 2.64 10 4 C6.7 4 3.4 4 0 4 C0 2.68 0 1.36 0 0 Z " fill="#373435" transform="translate(86,222)"/>
<path d="M0 0 C0.66 0.33 1.32 0.66 2 1 C2 3.31 2 5.62 2 8 C1.01 8.495 1.01 8.495 0 9 C0 7.68 0 6.36 0 5 C-2.64 5 -5.28 5 -8 5 C-7.67 4.01 -7.34 3.02 -7 2 C-4.69 2 -2.38 2 0 2 C0 1.34 0 0.68 0 0 Z " fill="#EDE6E6" transform="translate(622,178)"/>
<path d="M0 0 C3.96 0 7.92 0 12 0 C12 0.99 12 1.98 12 3 C5.565 3.495 5.565 3.495 -1 4 C-0.67 2.68 -0.34 1.36 0 0 Z " fill="#F8F8F8" transform="translate(329,219)"/>
<path d="M0 0 C1.134375 0.020625 2.26875 0.04125 3.4375 0.0625 C3.4375 1.3825 3.4375 2.7025 3.4375 4.0625 C2.32375 4.371875 1.21 4.68125 0.0625 5 C-3.3570155 5.88576483 -3.3570155 5.88576483 -5.5625 7.0625 C-4.52245509 0.07934132 -4.52245509 0.07934132 0 0 Z " fill="#4D4647" transform="translate(187.5625,182.9375)"/>
<path d="M0 0 C5.43806647 -0.36253776 5.43806647 -0.36253776 7.9375 1.25 C9 3 9 3 8.6875 5.1875 C8.3471875 6.0846875 8.3471875 6.0846875 8 7 C7.34 6.34 6.68 5.68 6 5 C4.01178687 4.60235737 2.01055661 4.26224651 0 4 C0 2.68 0 1.36 0 0 Z " fill="#4B4445" transform="translate(148,183)"/>
<path d="M0 0 C1.37344385 4.39844322 0.24307502 7.92504555 -0.9375 12.25 C-1.23043945 13.36761719 -1.23043945 13.36761719 -1.52929688 14.5078125 C-2.01104198 16.34079386 -2.50439225 18.17071818 -3 20 C-3.33 20 -3.66 20 -4 20 C-4.21824777 13.9981863 -3.5056904 8.80766296 -2 3 C-1.34 3 -0.68 3 0 3 C0 2.01 0 1.02 0 0 Z " fill="#998283" transform="translate(468,204)"/>
<path d="M0 0 C0.89991601 2.47199151 1.1504029 3.61396588 0.1796875 6.10546875 C-3.3747653 11.77769433 -3.3747653 11.77769433 -6.8125 13 C-7.534375 13 -8.25625 13 -9 13 C-8.60167969 12.48050781 -8.20335937 11.96101562 -7.79296875 11.42578125 C-4.97822677 7.72073158 -2.28614026 4.06424935 0 0 Z " fill="#594C4D" transform="translate(572,192)"/>
<path d="M0 0 C0.83853936 2.38743371 1.13595069 3.60867234 0.29296875 6.03515625 C-0.07183594 6.70417969 -0.43664062 7.37320313 -0.8125 8.0625 C-1.16957031 8.73410156 -1.52664063 9.40570313 -1.89453125 10.09765625 C-2.86643892 11.77016168 -3.92699144 13.39048716 -5 15 C-6.32 14.67 -7.64 14.34 -9 14 C-8.51789063 13.40832031 -8.03578125 12.81664062 -7.5390625 12.20703125 C-6.59160156 11.02173828 -6.59160156 11.02173828 -5.625 9.8125 C-4.99851562 9.03519531 -4.37203125 8.25789062 -3.7265625 7.45703125 C-2.02192866 5.03120618 -0.98012094 2.78690955 0 0 Z " fill="#554A4C" transform="translate(319,190)"/>
<path d="M0 0 C3.96 0 7.92 0 12 0 C12 0.99 12 1.98 12 3 C8.37 3 4.74 3 1 3 C0.67 2.01 0.34 1.02 0 0 Z " fill="#FDFDFD" transform="translate(351,219)"/>
<path d="M0 0 C2 1.375 2 1.375 4 3 C4 3.66 4 4.32 4 5 C4.804375 5.2475 5.60875 5.495 6.4375 5.75 C9 7 9 7 9.8125 9.125 C9.874375 9.74375 9.93625 10.3625 10 11 C5.32503988 9.7978674 3.53616659 7.45867887 0.91796875 3.65625 C0 2 0 2 0 0 Z " fill="#EDDFDF" transform="translate(176,210)"/>
<path d="M0 0 C2.31 0.33 4.62 0.66 7 1 C7.33 2.65 7.66 4.3 8 6 C5.36 5.34 2.72 4.68 0 4 C0 2.68 0 1.36 0 0 Z " fill="#423F40" transform="translate(498,183)"/>
<path d="M0 0 C2.625 0.375 2.625 0.375 5 1 C5 1.99 5 2.98 5 4 C4.05125 4.28875 3.1025 4.5775 2.125 4.875 C-1.05211578 5.76825109 -1.05211578 5.76825109 -3 8 C-2.25 2.25 -2.25 2.25 0 0 Z " fill="#423C3D" transform="translate(557,182)"/>
<path d="M0 0 C1.2065625 0.0309375 1.2065625 0.0309375 2.4375 0.0625 C2.4375 1.3825 2.4375 2.7025 2.4375 4.0625 C0.1275 4.7225 -2.1825 5.3825 -4.5625 6.0625 C-3.48963568 0.08511307 -3.48963568 0.08511307 0 0 Z " fill="#474041" transform="translate(305.5625,181.9375)"/>
<path d="M0 0 C3.3 0 6.6 0 10 0 C10 0.99 10 1.98 10 3 C6.7 3 3.4 3 0 3 C0 2.01 0 1.02 0 0 Z " fill="#373435" transform="translate(487,241)"/>
<path d="M0 0 C3.3 0 6.6 0 10 0 C10 0.99 10 1.98 10 3 C6.7 3 3.4 3 0 3 C0 2.01 0 1.02 0 0 Z " fill="#FEFEFE" transform="translate(86,219)"/>
<path d="M0 0 C0.33 0 0.66 0 1 0 C0.69343615 6.62177926 -0.74288723 11.22125154 -4 17 C-4.66 16.67 -5.32 16.34 -6 16 C-5.71382813 15.29488281 -5.42765625 14.58976563 -5.1328125 13.86328125 C-3.99523169 10.98794768 -2.92607644 8.09547814 -1.875 5.1875 C-1.34519531 3.72376953 -1.34519531 3.72376953 -0.8046875 2.23046875 C-0.53914062 1.49441406 -0.27359375 0.75835937 0 0 Z " fill="#5E5C5D" transform="translate(516,199)"/>
<path d="M0 0 C0.33 0 0.66 0 1 0 C1.66 4.29 2.32 8.58 3 13 C1.35 13.66 -0.3 14.32 -2 15 C-1.34 10.05 -0.68 5.1 0 0 Z " fill="#EDDDDE" transform="translate(320,177)"/>
<path d="M0 0 C0 1.32 0 2.64 0 4 C-2.31 5.32 -4.62 6.64 -7 8 C-6.62952882 5.25851328 -6.31412056 3.41406801 -4.625 1.1875 C-3 0 -3 0 0 0 Z " fill="#413E3F" transform="translate(540,183)"/>
<path d="M0 0 C0.33 0.99 0.66 1.98 1 3 C-0.43359375 5.26171875 -0.43359375 5.26171875 -2.4375 7.6875 C-3.09621094 8.49574219 -3.75492187 9.30398437 -4.43359375 10.13671875 C-5.20896484 11.05904297 -5.20896484 11.05904297 -6 12 C-6.99 11.67 -7.98 11.34 -9 11 C-8.51789063 10.45730469 -8.03578125 9.91460937 -7.5390625 9.35546875 C-6.90742188 8.64003906 -6.27578125 7.92460937 -5.625 7.1875 C-4.68527344 6.12595703 -4.68527344 6.12595703 -3.7265625 5.04296875 C-1.859401 2.91196181 -1.859401 2.91196181 0 0 Z " fill="#EDE1E2" transform="translate(317,192)"/>
<path d="M0 0 C2.31 0 4.62 0 7 0 C7 1.32 7 2.64 7 4 C4.69 4 2.38 4 0 4 C0 2.68 0 1.36 0 0 Z " fill="#514244" transform="translate(96,183)"/>
<path d="M0 0 C5.625 -0.25 5.625 -0.25 9 2 C8.67 3.32 8.34 4.64 8 6 C8 5.34 8 4.68 8 4 C5.36 3.67 2.72 3.34 0 3 C0 2.01 0 1.02 0 0 Z " fill="#F7E3E3" transform="translate(148,180)"/>
<path d="M0 0 C5.625 -0.25 5.625 -0.25 9 2 C8.67 2.99 8.34 3.98 8 5 C5.36 4.34 2.72 3.68 0 3 C0 2.01 0 1.02 0 0 Z " fill="#F9E4E5" transform="translate(497,180)"/>
<path d="M0 0 C1.134375 0.020625 2.26875 0.04125 3.4375 0.0625 C3.4375 1.0525 3.4375 2.0425 3.4375 3.0625 C2.32375 3.18625 1.21 3.31 0.0625 3.4375 C-3.59353677 3.7090813 -3.59353677 3.7090813 -5.5625 6.0625 C-4.48849278 0.07874549 -4.48849278 0.07874549 0 0 Z " fill="#FAE6E7" transform="translate(187.5625,179.9375)"/>
<path d="M0 0 C2.125 0.375 2.125 0.375 4 1 C2.38405168 3.04119788 0.7143618 5.04072937 -1 7 C-1.66 7 -2.32 7 -3 7 C-2.25 2.25 -2.25 2.25 0 0 Z " fill="#E9D1D2" transform="translate(557,186)"/>
<path d="M0 0 C2.31 0 4.62 0 7 0 C7 1.32 7 2.64 7 4 C5.02 4 3.04 4 1 4 C0.67 2.68 0.34 1.36 0 0 Z " fill="#453B3D" transform="translate(615,183)"/>
<path d="M0 0 C2.31 0 4.62 0 7 0 C7 1.32 7 2.64 7 4 C5.02 4 3.04 4 1 4 C0.67 2.68 0.34 1.36 0 0 Z " fill="#453E3F" transform="translate(590,183)"/>
<path d="M0 0 C2.31 0 4.62 0 7 0 C7 1.32 7 2.64 7 4 C5.02 4 3.04 4 1 4 C0.67 2.68 0.34 1.36 0 0 Z " fill="#464042" transform="translate(387,183)"/>
<path d="M0 0 C0.78375 0.04125 1.5675 0.0825 2.375 0.125 C2.375 1.115 2.375 2.105 2.375 3.125 C0.951875 3.558125 0.951875 3.558125 -0.5 4 C-3.67711578 4.89325109 -3.67711578 4.89325109 -5.625 7.125 C-4.53409091 0.21590909 -4.53409091 0.21590909 0 0 Z " fill="#F6E6E7" transform="translate(559.625,178.875)"/>
<path d="M0 0 C0 2.64 0 5.28 0 8 C-0.99 8.495 -0.99 8.495 -2 9 C-2 8.34 -2 7.68 -2 7 C-2.66 7 -3.32 7 -4 7 C-3.625 4.0625 -3.625 4.0625 -3 1 C-1 0 -1 0 0 0 Z " fill="#FDF1F2" transform="translate(486,166)"/>
<path d="M0 0 C0.99 0.33 1.98 0.66 3 1 C3.33 3.64 3.66 6.28 4 9 C3.01 9.495 3.01 9.495 2 10 C0 8 0 8 -0.1953125 6.0546875 C-0.13020833 4.03645833 -0.06510417 2.01822917 0 0 Z " fill="#A58384" transform="translate(345,191)"/>
<path d="M0 0 C2.475 0.495 2.475 0.495 5 1 C5.33 2.65 5.66 4.3 6 6 C4.02 5.34 2.04 4.68 0 4 C0 2.68 0 1.36 0 0 Z " fill="#444142" transform="translate(114,183)"/>
<path d="M0 0 C1.2065625 0.0309375 1.2065625 0.0309375 2.4375 0.0625 C2.7675 1.3825 3.0975 2.7025 3.4375 4.0625 C2.48875 4.041875 1.54 4.02125 0.5625 4 C-2.46916283 3.83698174 -2.46916283 3.83698174 -4.5625 5.0625 C-3.43829114 0.08386076 -3.43829114 0.08386076 0 0 Z " fill="#FAEBEB" transform="translate(305.5625,178.9375)"/>
<path d="M0 0 C0.66 0 1.32 0 2 0 C2.95465783 2.16967689 3.14401212 3.56328793 2.3984375 5.82421875 C1.64129615 7.5684743 0.82390802 9.28627131 0 11 C-0.33 11 -0.66 11 -1 11 C-0.67 7.37 -0.34 3.74 0 0 Z " fill="#BC8D8E" transform="translate(451,210)"/>
<path d="M0 0 C7 9.1 7 9.1 7 13 C3.66366632 10.00880429 1.75472293 7.12359889 0 3 C0 2.01 0 1.02 0 0 Z " fill="#F0DCDC" transform="translate(545,203)"/>
<path d="M0 0 C0.99 0 1.98 0 3 0 C1.60667426 3.36720387 0.0210714 4.9859524 -3 7 C-2.25 2.25 -2.25 2.25 0 0 Z " fill="#F2EBEB" transform="translate(304,186)"/>
<path d="M0 0 C2.31 0 4.62 0 7 0 C7 0.99 7 1.98 7 3 C4.69 3 2.38 3 0 3 C0 2.01 0 1.02 0 0 Z " fill="#FCE9E9" transform="translate(96,180)"/>
<path d="M0 0 C0.66 0.66 1.32 1.32 2 2 C2.66 1.67 3.32 1.34 4 1 C4 2.65 4 4.3 4 6 C3.01 6 2.02 6 1 6 C0.34 4.35 -0.32 2.7 -1 1 C-0.67 0.67 -0.34 0.34 0 0 Z " fill="#5A5859" transform="translate(19,194)"/>
<path d="M0 0 C-1.33332095 3.99996286 -3.4957827 4.83782337 -7 7 C-6.22006468 2.47637516 -4.81844319 0 0 0 Z " fill="#F2EAEA" transform="translate(540,180)"/>
<path d="M0 0 C0.33 0 0.66 0 1 0 C1 4.62 1 9.24 1 14 C0.01 13.67 -0.98 13.34 -2 13 C-1.34 8.71 -0.68 4.42 0 0 Z " fill="#DBB3B4" transform="translate(623,202)"/>
<path d="M0 0 C2.32472205 2.85306797 3.7508258 5.54074837 5 9 C4.34 9.66 3.68 10.32 3 11 C2.49384702 9.73160474 1.99530901 8.46016898 1.5 7.1875 C1.2215625 6.47980469 0.943125 5.77210938 0.65625 5.04296875 C0 3 0 3 0 0 Z " fill="#5E5B5C" transform="translate(544,204)"/>
<path d="M0 0 C2.475 0.495 2.475 0.495 5 1 C5.33 2.32 5.66 3.64 6 5 C4.02 4.34 2.04 3.68 0 3 C0 2.01 0 1.02 0 0 Z " fill="#F8E8E8" transform="translate(114,180)"/>
</svg>
