<?xml version="1.0" encoding="UTF-8"?>
<svg version="1.1" xmlns="http://www.w3.org/2000/svg" width="458" height="50">
<path d="M0 0 C1.66413655 3.3282731 0.81867406 6.99733973 0.5625 10.625 C0.51029297 11.42679688 0.45808594 12.22859375 0.40429688 13.0546875 C0.27451629 15.03679103 0.13790265 17.01844499 0 19 C1.98 19 3.96 19 6 19 C5.88398438 18.21496094 5.76796875 17.42992188 5.6484375 16.62109375 C5.35251325 13.17568993 5.28179301 10.39247186 6 7 C8.93821195 3.89168104 12.20202258 1.92611712 16 0 C18 2 18 2 18.13525391 5.80712891 C18.09287412 7.44724562 18.03919625 9.08709433 17.9765625 10.7265625 C17.93902359 12.02078629 17.93902359 12.02078629 17.90072632 13.34115601 C17.81841184 16.10283029 17.72186733 18.86380152 17.625 21.625 C17.56677209 23.49476275 17.50946857 25.36455452 17.453125 27.234375 C17.3128161 31.8233226 17.15974165 36.4116894 17 41 C17.61875 40.814375 18.2375 40.62875 18.875 40.4375 C21 40 21 40 23 41 C22.505 30.605 22.505 30.605 22 20 C21.01 20 20.02 20 19 20 C19 19.34 19 18.68 19 18 C20.609375 16.640625 20.609375 16.640625 22.75 15.25 C23.44609375 14.78078125 24.1421875 14.3115625 24.859375 13.828125 C27 13 27 13 29.140625 13.671875 C31 15 31 15 33 18 C33.31884766 20.4519043 33.31884766 20.4519043 33.4140625 23.32421875 C33.47207031 24.86625977 33.47207031 24.86625977 33.53125 26.43945312 C33.5621875 27.51130859 33.593125 28.58316406 33.625 29.6875 C33.68300781 31.31268555 33.68300781 31.31268555 33.7421875 32.97070312 C33.83650509 35.64696467 33.92210005 38.32321843 34 41 C35.65 41 37.3 41 39 41 C38.505 30.605 38.505 30.605 38 20 C37.01 20.33 36.02 20.66 35 21 C35 20.01 35 19.02 35 18 C36.609375 16.54296875 36.609375 16.54296875 38.75 15.1875 C39.44609375 14.72730469 40.1421875 14.26710938 40.859375 13.79296875 C43 13 43 13 45.140625 13.73828125 C47 15 47 15 49 17 C50.051875 16.29875 51.10375 15.5975 52.1875 14.875 C55.60008512 12.92001702 55.60008512 12.92001702 58.8125 13.5625 C61 15 61 15 63 18 C63.31884766 20.4519043 63.31884766 20.4519043 63.4140625 23.32421875 C63.45273438 24.35224609 63.49140625 25.38027344 63.53125 26.43945312 C63.5621875 27.51130859 63.593125 28.58316406 63.625 29.6875 C63.66367188 30.77095703 63.70234375 31.85441406 63.7421875 32.97070312 C63.83650509 35.64696467 63.92210005 38.32321843 64 41 C65.98 41.495 65.98 41.495 68 42 C65.36 43.98 62.72 45.96 60 48 C58 47 56 46 54 45 C54 44.34 54 43.68 54 43 C53.40832031 43.38414063 52.81664063 43.76828125 52.20703125 44.1640625 C45.69271043 48.13854209 45.69271043 48.13854209 42.1875 47.4375 C41.465625 46.963125 40.74375 46.48875 40 46 C39.236875 45.62875 38.47375 45.2575 37.6875 44.875 C37.130625 44.58625 36.57375 44.2975 36 44 C35.113125 44.70125 34.22625 45.4025 33.3125 46.125 C30 48 30 48 27.375 47.4375 C25.12558573 46.07601242 23.03810177 44.66067552 21 43 C20.55269531 43.38414063 20.10539062 43.76828125 19.64453125 44.1640625 C17.81143918 45.62584594 16.07464739 46.90444816 14 48 C10.40097632 47.34563206 8.30985904 45.77813456 6 43 C5.65942383 41.09887695 5.65942383 41.09887695 5.70703125 38.98828125 C5.71669922 38.23095703 5.72636719 37.47363281 5.73632812 36.69335938 C5.76146484 35.90767578 5.78660156 35.12199219 5.8125 34.3125 C5.82603516 33.51521484 5.83957031 32.71792969 5.85351562 31.89648438 C5.88882911 29.93070033 5.94263553 27.96526418 6 26 C4.02 26 2.04 26 0 26 C0 31.94 0 37.88 0 44 C-7.875 48.5 -7.875 48.5 -13.9375 48.25 C-15.08089844 48.21390625 -16.22429688 48.1778125 -17.40234375 48.140625 C-18.25957031 48.09421875 -19.11679687 48.0478125 -20 48 C-19.360625 46.96875 -18.72125 45.9375 -18.0625 44.875 C-15.03534751 38.94905484 -15.18346115 32.53121708 -15 26 C-17.64 26 -20.28 26 -23 26 C-22.24172908 24.82512964 -21.46792245 23.66027408 -20.6875 22.5 C-20.25824219 21.8503125 -19.82898438 21.200625 -19.38671875 20.53125 C-18.92910156 20.0259375 -18.47148437 19.520625 -18 19 C-17.01 19 -16.02 19 -15 19 C-14.24572703 14.02093741 -14.24572703 14.02093741 -14 9 C-17.71599191 8.79913557 -18.77208445 8.8480563 -22 11 C-22.36109618 4.62063407 -22.36109618 4.62063407 -21 2.28125 C-17.82116771 0.24481056 -14.45610577 0.68839465 -10.8125 0.8125 C-10.06291016 0.82603516 -9.31332031 0.83957031 -8.54101562 0.85351562 C-6.69370233 0.88881461 -4.84675934 0.94262083 -3 1 C-3.16064941 1.68698975 -3.32129883 2.37397949 -3.48681641 3.08178711 C-4.0573686 6.3262259 -4.16120734 9.39758132 -4.2109375 12.69140625 C-4.25347656 14.60276367 -4.25347656 14.60276367 -4.296875 16.55273438 C-4.33820182 18.56274315 -4.37513049 20.57249785 -4.40136719 22.58276367 C-4.42900665 24.53587283 -4.47597879 26.48867816 -4.5234375 28.44140625 C-4.54325684 29.60357666 -4.56307617 30.76574707 -4.58349609 31.96313477 C-5.03053921 35.22267133 -5.79490539 36.61511438 -8 39 C-6.35 39.66 -4.7 40.32 -3 41 C-3.01571045 39.97116699 -3.0314209 38.94233398 -3.04760742 37.88232422 C-3.10211334 34.04695537 -3.13642477 30.21162043 -3.16479492 26.37597656 C-3.17983465 24.71934237 -3.20027177 23.06274769 -3.22631836 21.40625 C-3.26291515 19.0181297 -3.27977439 16.63053812 -3.29296875 14.2421875 C-3.30845261 13.50757294 -3.32393646 12.77295837 -3.33988953 12.01608276 C-3.34142964 7.25646232 -2.43282457 4.07996185 0 0 Z M51 19 C50.01 19.495 50.01 19.495 49 20 C49 27.26 49 34.52 49 42 C50.32 41.67 51.64 41.34 53 41 C53 34.07 53 27.14 53 20 C52.34 19.67 51.68 19.34 51 19 Z " fill="#323232" transform="translate(24,2)"/>
<path d="M0 0 C0 3.3 0 6.6 0 10 C4.455 9.505 4.455 9.505 9 9 C7.87548273 11.9719385 6.77706209 14.33440687 5 17 C3.35 17 1.7 17 0 17 C0.33 23.27 0.66 29.54 1 36 C2.32 36.33 3.64 36.66 5 37 C5.33 33.7 5.66 30.4 6 27 C7.65 26.34 9.3 25.68 11 25 C10.175 24.401875 9.35 23.80375 8.5 23.1875 C7.2625 22.1046875 7.2625 22.1046875 6 21 C6 20.01 6 19.02 6 18 C7.828125 16.24609375 7.828125 16.24609375 10.25 14.4375 C11.03890625 13.83808594 11.8278125 13.23867188 12.640625 12.62109375 C13.41921875 12.08613281 14.1978125 11.55117188 15 11 C15.639375 10.55011719 16.27875 10.10023437 16.9375 9.63671875 C21.34536857 8.27595629 26.18517667 12.09258833 30 14 C29.67 21.59 29.34 29.18 29 37 C30.98 37 32.96 37 35 37 C34.505 26.605 34.505 26.605 34 16 C33.01 16 32.02 16 31 16 C32.27878987 12.16363039 33.78624285 11.51005252 37.21875 9.66015625 C39 9 39 9 41.3125 9.625 C43 11 43 11 45 13 C46.051875 12.29875 47.10375 11.5975 48.1875 10.875 C51.60008512 8.92001702 51.60008512 8.92001702 54.8125 9.5625 C57 11 57 11 59 14 C59.22705078 16.4519043 59.22705078 16.4519043 59.1953125 19.32421875 C59.18886719 20.35224609 59.18242187 21.38027344 59.17578125 22.43945312 C59.15064453 24.04723633 59.15064453 24.04723633 59.125 25.6875 C59.11597656 26.77095703 59.10695313 27.85441406 59.09765625 28.97070312 C59.0740734 31.6473571 59.04116126 34.32356797 59 37 C60.65 37 62.3 37 64 37 C64 37.66 64 38.32 64 39 C62.390625 40.359375 62.390625 40.359375 60.25 41.75 C59.55390625 42.21921875 58.8578125 42.6884375 58.140625 43.171875 C56 44 56 44 53.859375 43.265625 C52 42 52 42 50 40 C49.68115234 37.66162109 49.68115234 37.66162109 49.5859375 34.7734375 C49.52792969 33.2265625 49.52792969 33.2265625 49.46875 31.6484375 C49.4378125 30.56820312 49.406875 29.48796875 49.375 28.375 C49.31699219 26.74304687 49.31699219 26.74304687 49.2578125 25.078125 C49.16333753 22.38558835 49.07777569 19.69306243 49 17 C47.68 16.67 46.36 16.34 45 16 C45 23.26 45 30.52 45 38 C46.98 37.505 46.98 37.505 49 37 C49 37.66 49 38.32 49 39 C46.56432174 41.10326559 43.944988 42.70814653 41 44 C37.01970644 43.29239226 35.9150145 41.9150145 33 39 C30.69 40.65 28.38 42.3 26 44 C23.50638429 42.79618552 21.31856917 41.54571278 19 40 C18.113125 40.70125 17.22625 41.4025 16.3125 42.125 C13 44 13 44 10.3125 43.375 C8.50921999 42.30277945 6.74561607 41.16374405 5 40 C3.9275 40.680625 2.855 41.36125 1.75 42.0625 C-1.68594125 43.99048307 -1.68594125 43.99048307 -4.0625 44.0625 C-7.05913459 42.41918426 -9.44336791 40.26610571 -12 38 C-11.67 37.34 -11.34 36.68 -11 36 C-10.84932786 34.5534758 -10.75138964 33.1012066 -10.68359375 31.6484375 C-10.64169922 30.79765625 -10.59980469 29.946875 -10.55664062 29.0703125 C-10.51732422 28.18085937 -10.47800781 27.29140625 -10.4375 26.375 C-10.39431641 25.4778125 -10.35113281 24.580625 -10.30664062 23.65625 C-10.20043139 21.43765717 -10.09838806 19.2189512 -10 17 C-10.99 16.67 -11.98 16.34 -13 16 C-12.690625 15.484375 -12.38125 14.96875 -12.0625 14.4375 C-10.78702409 11.91733743 -10.78702409 11.91733743 -10.875 8.5625 C-9.88512323 4.53228745 -9.40144984 4.1801763 -6.0625 2.0625 C-2.40836013 0 -2.40836013 0 0 0 Z M-9 7 C-8 10 -8 10 -8 10 Z M9 19 C9 19.66 9 20.32 9 21 C12.72965139 23.03435531 14.66905042 24 19 24 C19 22.35 19 20.7 19 19 C14.88832698 16.73149075 13.11452026 16.2569865 9 19 Z M15 26 C15 29.3 15 32.6 15 36 C16.32 36.33 17.64 36.66 19 37 C19 33.37 19 29.74 19 26 C17.68 26 16.36 26 15 26 Z M7 29 C8 31 8 31 8 31 Z " fill="#323232" transform="translate(188,6)"/>
<path d="M0 0 C4.875 2.75 4.875 2.75 6 5 C6.15266612 6.73868744 6.24932596 8.48247501 6.31640625 10.2265625 C6.37924805 11.7734375 6.37924805 11.7734375 6.44335938 13.3515625 C6.48267578 14.43179687 6.52199219 15.51203125 6.5625 16.625 C6.60568359 17.71296875 6.64886719 18.8009375 6.69335938 19.921875 C6.7996453 22.6144517 6.90168057 25.30712253 7 28 C8.32 28 9.64 28 11 28 C11 21.4 11 14.8 11 8 C9.68 7.34 8.36 6.68 7 6 C9.64 4.02 12.28 2.04 15 0 C19 2 19 2 22 4 C23.60875 2.948125 23.60875 2.948125 25.25 1.875 C27.1875 0.765625 27.1875 0.765625 29 0 C31.25 0.625 31.25 0.625 33 2 C33.99 2.66 34.98 3.32 36 4 C37.051875 3.29875 38.10375 2.5975 39.1875 1.875 C42.60008512 -0.07998298 42.60008512 -0.07998298 45.8125 0.5625 C48 2 48 2 50 5 C50.22705078 7.4519043 50.22705078 7.4519043 50.1953125 10.32421875 C50.18886719 11.35224609 50.18242187 12.38027344 50.17578125 13.43945312 C50.15902344 14.51130859 50.14226562 15.58316406 50.125 16.6875 C50.11597656 17.77095703 50.10695313 18.85441406 50.09765625 19.97070312 C50.0740734 22.6473571 50.04116126 25.32356797 50 28 C51.65 28 53.3 28 55 28 C51.87378374 31.39417765 49.43458973 33.6062718 45 35 C42.516836 32.89753013 41.14219247 31.66822831 40.45410156 28.43457031 C40.4331543 27.49194336 40.41220703 26.54931641 40.390625 25.578125 C40.35839844 24.55332031 40.32617188 23.52851562 40.29296875 22.47265625 C40.27878906 21.40917969 40.26460938 20.34570312 40.25 19.25 C40.22035156 18.17105469 40.19070313 17.09210937 40.16015625 15.98046875 C40.08953064 13.32023756 40.03679804 10.66087898 40 8 C38.68 7.67 37.36 7.34 36 7 C36.495 17.395 36.495 17.395 37 28 C37.99 28 38.98 28 40 28 C38.63545497 32.09363509 36.77137264 33.04178728 33 35 C29.74499482 34.2602261 28.35429332 33.35429332 26 31 C25.68115234 28.66162109 25.68115234 28.66162109 25.5859375 25.7734375 C25.52792969 24.2265625 25.52792969 24.2265625 25.46875 22.6484375 C25.4378125 21.56820312 25.406875 20.48796875 25.375 19.375 C25.31699219 17.74304687 25.31699219 17.74304687 25.2578125 16.078125 C25.16333753 13.38558835 25.07777569 10.69306243 25 8 C24.01 7.67 23.02 7.34 22 7 C22.1095693 10.45900478 22.24026848 13.91689109 22.375 17.375 C22.4059375 18.35984375 22.436875 19.3446875 22.46875 20.359375 C22.50742187 21.30039062 22.54609375 22.24140625 22.5859375 23.2109375 C22.63306885 24.51490479 22.63306885 24.51490479 22.68115234 25.84521484 C22.81229433 28.20961794 22.81229433 28.20961794 25 30 C22.78272393 31.90417369 20.59131739 33.63415979 18 35 C15.3125 34.4375 15.3125 34.4375 13 33 C12.236875 32.62875 11.47375 32.2575 10.6875 31.875 C10.130625 31.58625 9.57375 31.2975 9 31 C8.0925 31.680625 7.185 32.36125 6.25 33.0625 C3 35 3 35 0.875 35 C-1.6396509 33.65885285 -3.16639031 32.18850189 -5 30 C-5.45410156 27.43457031 -5.45410156 27.43457031 -5.390625 24.578125 C-5.37773437 23.55332031 -5.36484375 22.52851562 -5.3515625 21.47265625 C-5.30128906 19.87744141 -5.30128906 19.87744141 -5.25 18.25 C-5.23195313 17.17105469 -5.21390625 16.09210937 -5.1953125 14.98046875 C-5.14821415 12.31941212 -5.082456 9.66015746 -5 7 C-5.99 7 -6.98 7 -8 7 C-6.5361389 2.60841671 -4.02168662 2.12052567 0 0 Z " fill="#323232" transform="translate(303,15)"/>
<path d="M0 0 C4.32595723 3.02295806 7.8085471 6.12724003 10 11 C10.46002866 14.46502437 10.46416915 17.88376641 10.4375 21.375 C10.4674707 22.75558594 10.4674707 22.75558594 10.49804688 24.1640625 C10.49364547 30.32602987 9.65977338 34.00065982 6 39 C3.9296875 40.9609375 3.9296875 40.9609375 1.875 42.375 C1.19179688 42.85710938 0.50859375 43.33921875 -0.1953125 43.8359375 C-5.98314604 47.56921541 -14.31684101 46.86274644 -21 46 C-27.98157167 43.59256149 -32.37594583 39.31286855 -36 33 C-37.18778281 29.37556561 -37.18778281 29.37556561 -36 27 C-36.66 27 -37.32 27 -38 27 C-39.35321101 19.96330275 -39.35321101 19.96330275 -37 16 C-36.7525 14.906875 -36.505 13.81375 -36.25 12.6875 C-34.25174002 6.79263307 -30.71617554 2.80673253 -25.375 -0.375 C-17.26067046 -4.28189941 -7.97222364 -4.43268866 0 0 Z M-10 -1 C-10 0.32 -10 1.64 -10 3 C-11.65 3 -13.3 3 -15 3 C-15 3.33 -15 3.66 -15 4 C-13.02 4 -11.04 4 -9 4 C-8.67 2.35 -8.34 0.7 -8 -1 C-8.66 -1 -9.32 -1 -10 -1 Z M-19 0 C-19 1.65 -19 3.3 -19 5 C-18.34 4.67 -17.68 4.34 -17 4 C-17.33 2.68 -17.66 1.36 -18 0 C-18.33 0 -18.66 0 -19 0 Z M-25 2 C-24 4 -24 4 -24 4 Z M-23 5 C-22.67 5.66 -22.34 6.32 -22 7 C-21.34 6.34 -20.68 5.68 -20 5 C-20.99 5 -21.98 5 -23 5 Z M-27 13 C-27 13.66 -27 14.32 -27 15 C-23.45481116 13.60240095 -23.45481116 13.60240095 -20 12 C-19.67 17.61 -19.34 23.22 -19 29 C-18.34 29 -17.68 29 -17 29 C-17.06960938 28.10796875 -17.13921875 27.2159375 -17.2109375 26.296875 C-17.37338869 22.78483502 -17.41774319 19.49267758 -17 16 C-14.3125 13.0625 -14.3125 13.0625 -11 12 C-8.46264356 12.62024268 -6.85450566 13.14549434 -5 15 C-4.92728259 17.35313555 -4.91629132 19.70833668 -4.9375 22.0625 C-4.94652344 23.35285156 -4.95554687 24.64320312 -4.96484375 25.97265625 C-4.97644531 26.97167969 -4.98804688 27.97070312 -5 29 C-10.5546875 32.1171875 -10.5546875 32.1171875 -14.5625 31.0625 C-16.2640625 30.5365625 -16.2640625 30.5365625 -18 30 C-20.86430119 30.74216399 -20.86430119 30.74216399 -23 32 C-25.35119399 28.47320901 -25.21443452 26.97120515 -25.125 22.8125 C-25.10695313 21.72582031 -25.08890625 20.63914062 -25.0703125 19.51953125 C-25.04710937 18.68808594 -25.02390625 17.85664063 -25 17 C-25.99 17.33 -26.98 17.66 -28 18 C-27.67 18.33 -27.34 18.66 -27 19 C-26.95936168 20.66617115 -26.957279 22.33388095 -27 24 C-29.31 24.66 -31.62 25.32 -34 26 C-34 26.33 -34 26.66 -34 27 C-33.113125 27.20625 -32.22625 27.4125 -31.3125 27.625 C-27.23157995 29.31896681 -25.76669363 31.6108003 -23 35 C-18.23252686 38.25054987 -13.62477158 38.92572269 -8 38 C-4.1973971 35.9949912 -2.38209159 34.57313738 0 31 C-0.66 30.34 -1.32 29.68 -2 29 C-2.30059943 26.63490639 -2.49515012 24.25558119 -2.625 21.875 C-2.69976562 20.59367187 -2.77453125 19.31234375 -2.8515625 17.9921875 C-2.90054688 17.00476562 -2.94953125 16.01734375 -3 15 C-2.01 14.67 -1.02 14.34 0 14 C-0.9032013 10.6581552 -1.66352626 9.24394346 -4.5 7.1875 C-13.36036465 4.18130485 -20.86941065 5.50705746 -27 13 Z M5 8 C4.67 8.99 4.34 9.98 4 11 C4.99 11.33 5.98 11.66 7 12 C6.34 10.68 5.68 9.36 5 8 Z M-30 12 C-29.67 12.66 -29.34 13.32 -29 14 C-28.67 13.34 -28.34 12.68 -28 12 C-28.66 12 -29.32 12 -30 12 Z M-34 13 C-34.33 13.99 -34.66 14.98 -35 16 C-33.35 16 -31.7 16 -30 16 C-30 15.34 -30 14.68 -30 14 C-31.32 13.67 -32.64 13.34 -34 13 Z M-12 16 C-12 19.63 -12 23.26 -12 27 C-11.01 27.495 -11.01 27.495 -10 28 C-10 24.37 -10 20.74 -10 17 C-10.66 16.67 -11.32 16.34 -12 16 Z M3 16 C3 19.96 3 23.92 3 28 C3.66 28 4.32 28 5 28 C5 24.37 5 20.74 5 17 C4.34 16.67 3.68 16.34 3 16 Z M-33 17 C-32.67 17.66 -32.34 18.32 -32 19 C-31.01 18.67 -30.02 18.34 -29 18 C-30.32 17.67 -31.64 17.34 -33 17 Z M-33 20 C-32 23 -32 23 -32 23 Z M-29 20 C-28 24 -28 24 -28 24 Z M-37 21 C-36 24 -36 24 -36 24 Z M-35 28 C-33.6351911 33.21108854 -31.65575714 36.16591324 -28 40 C-27.01 40.33 -26.02 40.66 -25 41 C-24.01 39.68 -23.02 38.36 -22 37 C-23.423125 35.8553125 -23.423125 35.8553125 -24.875 34.6875 C-27.16609895 32.84465954 -28.31224944 31.53162583 -30 29 C-32.56282742 28.27034634 -32.56282742 28.27034634 -35 28 Z M4.125 30.5625 C0.26933695 32.336105 -0.94258938 34.35996583 -3 38 C-2.01 39.485 -2.01 39.485 -1 41 C2.45195767 39.5741914 4.1014256 37.90253666 6.25 34.875 C7.03117187 33.78832031 7.03117187 33.78832031 7.828125 32.6796875 C8.21484375 32.12539063 8.6015625 31.57109375 9 31 C6.92903782 29.71008869 6.92903782 29.71008869 4.125 30.5625 Z M-5 38 C-4 40 -4 40 -4 40 Z M-16 40 C-16 40.33 -16 40.66 -16 41 C-13.69 41 -11.38 41 -9 41 C-9 40.67 -9 40.34 -9 40 C-11.31 40 -13.62 40 -16 40 Z M-13 42 C-13 42.99 -13 43.98 -13 45 C-11.35 45 -9.7 45 -8 45 C-8.99 44.67 -9.98 44.34 -11 44 C-11 43.34 -11 42.68 -11 42 C-11.66 42 -12.32 42 -13 42 Z " fill="#1BA7B9" transform="translate(448,4)"/>
<path d="M0 0 C4 2 4 2 6 4 C6.31884766 6.33837891 6.31884766 6.33837891 6.4140625 9.2265625 C6.45273438 10.2578125 6.49140625 11.2890625 6.53125 12.3515625 C6.5621875 13.43179687 6.593125 14.51203125 6.625 15.625 C6.66367188 16.71296875 6.70234375 17.8009375 6.7421875 18.921875 C6.83666247 21.61441165 6.92222431 24.30693757 7 27 C8.32 27.33 9.64 27.66 11 28 C10.67 21.07 10.34 14.14 10 7 C9.01 7 8.02 7 7 7 C7 6.34 7 5.68 7 5 C8.609375 3.640625 8.609375 3.640625 10.75 2.25 C11.44609375 1.78078125 12.1421875 1.3115625 12.859375 0.828125 C15 0 15 0 17.078125 0.671875 C19.05403015 2.03733791 20.50681708 3.11291801 22 5 C22.2487793 7.4519043 22.2487793 7.4519043 22.07421875 10.32421875 C22.01943359 11.35224609 21.96464844 12.38027344 21.90820312 13.43945312 C21.83537109 14.51130859 21.76253906 15.58316406 21.6875 16.6875 C21.5956543 18.31268555 21.5956543 18.31268555 21.50195312 19.97070312 C21.3486115 22.64828378 21.18075343 25.32415282 21 28 C24.93075644 27.42547254 24.93075644 27.42547254 28 25 C29.875 24.98828125 29.875 24.98828125 32 25.3125 C32.70125 25.41175781 33.4025 25.51101562 34.125 25.61328125 C36 26 36 26 38 27 C38 25.02 38 23.04 38 21 C37.34 21.4125 36.68 21.825 36 22.25 C31.37673742 23.40581565 29.05022527 21.33402812 25 19 C25 14.71 25 10.42 25 6 C37.55734812 -0.77637383 37.55734812 -0.77637383 42.8125 0.625 C43.864375 1.07875 44.91625 1.5325 46 2 C46 1.34 46 0.68 46 0 C46.66 0 47.32 0 48 0 C47.25 6.625 47.25 6.625 45 10 C41.05273438 10.42905061 38.38757921 10.08466413 35 8 C34.67 9.98 34.34 11.96 34 14 C34.825 13.5875 35.65 13.175 36.5 12.75 C41.54476297 11.66897936 43.62085541 13.43291524 48 16 C48 20.29 48 24.58 48 29 C36.48214286 35.69642857 36.48214286 35.69642857 30.25 34.375 C28.8208969 33.95705475 27.39768636 33.51330959 26 33 C26 33.66 26 34.32 26 35 C25.34 35 24.68 35 24 35 C24.33 33.35 24.66 31.7 25 30 C24.46890625 30.38414063 23.9378125 30.76828125 23.390625 31.1640625 C22.68421875 31.64617188 21.9778125 32.12828125 21.25 32.625 C20.55390625 33.11226562 19.8578125 33.59953125 19.140625 34.1015625 C17 35 17 35 14.796875 34.3359375 C13 33 13 33 12 30 C11.48050781 30.38414063 10.96101563 30.76828125 10.42578125 31.1640625 C8.3239193 32.6171057 6.31438735 33.91365492 4 35 C0.61111691 34.33695766 -0.57693899 33.42306101 -3 31 C-3.31884766 28.66162109 -3.31884766 28.66162109 -3.4140625 25.7734375 C-3.45273438 24.7421875 -3.49140625 23.7109375 -3.53125 22.6484375 C-3.5621875 21.56820312 -3.593125 20.48796875 -3.625 19.375 C-3.66367188 18.28703125 -3.70234375 17.1990625 -3.7421875 16.078125 C-3.83666247 13.38558835 -3.92222431 10.69306243 -4 8 C-5.32 7.34 -6.64 6.68 -8 6 C-5.36 4.02 -2.72 2.04 0 0 Z M-2 7 C-2 14.26 -2 21.52 -2 29 C-1.67 29 -1.34 29 -1 29 C-1 21.74 -1 14.48 -1 7 C-1.33 7 -1.66 7 -2 7 Z " fill="#323232" transform="translate(126,15)"/>
<path d="M0 0 C5.98105081 0.53006667 12.13857726 0.96156333 17.953125 -0.73828125 C17.68129425 3.15795957 17.14217727 5.02015196 14.703125 8.13671875 C11.953125 10.26171875 11.953125 10.26171875 6.953125 10.26171875 C7.283125 19.17171875 7.613125 28.08171875 7.953125 37.26171875 C13.65728253 33.18741939 13.65728253 33.18741939 14.953125 30.26171875 C15.613125 30.26171875 16.273125 30.26171875 16.953125 30.26171875 C16.64390616 31.72075133 16.33063701 33.17892597 16.015625 34.63671875 C15.84160156 35.44882812 15.66757812 36.2609375 15.48828125 37.09765625 C14.953125 39.26171875 14.953125 39.26171875 13.953125 41.26171875 C13.293125 41.26171875 12.633125 41.26171875 11.953125 41.26171875 C11.623125 42.25171875 11.293125 43.24171875 10.953125 44.26171875 C4.58863728 48.26549144 -1.75690238 48.14383872 -9.046875 47.26171875 C-14.80396741 45.19552301 -18.13389388 41.62160401 -21.046875 36.26171875 C-22.70713961 31.28092492 -22.64590925 26.95898246 -20.921875 22.07421875 C-18.26807801 18.09352327 -15.31890856 15.03899339 -10.671875 13.44921875 C-10.135625 13.38734375 -9.599375 13.32546875 -9.046875 13.26171875 C-9.335625 13.90109375 -9.624375 14.54046875 -9.921875 15.19921875 C-13.01037162 23.11774776 -13.01037162 23.11774776 -11.734375 31.19921875 C-11.1775 32.20984375 -10.620625 33.22046875 -10.046875 34.26171875 C-9.716875 34.92171875 -9.386875 35.58171875 -9.046875 36.26171875 C-8.056875 36.59171875 -7.066875 36.92171875 -6.046875 37.26171875 C-6.09811523 36.52010498 -6.14935547 35.77849121 -6.20214844 35.0144043 C-6.42184543 31.660346 -6.60971563 28.30524315 -6.796875 24.94921875 C-6.87808594 23.78197266 -6.95929688 22.61472656 -7.04296875 21.41210938 C-7.10097656 20.29384766 -7.15898437 19.17558594 -7.21875 18.0234375 C-7.2815918 16.99178467 -7.34443359 15.96013184 -7.40917969 14.8972168 C-7.046875 12.26171875 -7.046875 12.26171875 -5.03613281 10.40161133 C-4.37967773 10.02544678 -3.72322266 9.64928223 -3.046875 9.26171875 C-10.53905646 8.81421701 -10.53905646 8.81421701 -17.046875 12.26171875 C-18.79836665 13.8441715 -18.79836665 13.8441715 -20.046875 15.26171875 C-21.38686124 9.0490553 -21.38686124 9.0490553 -19.859375 5.51171875 C-17.31426292 2.35226927 -15.41439733 0.66196919 -11.484375 -0.48828125 C-7.555976 -0.773983 -3.90873646 -0.4111649 0 0 Z M2.953125 10.26171875 C2.953125 18.84171875 2.953125 27.42171875 2.953125 36.26171875 C0.643125 36.92171875 -1.666875 37.58171875 -4.046875 38.26171875 C-4.046875 38.59171875 -4.046875 38.92171875 -4.046875 39.26171875 C-1.076875 39.26171875 1.893125 39.26171875 4.953125 39.26171875 C4.953125 29.69171875 4.953125 20.12171875 4.953125 10.26171875 C4.293125 10.26171875 3.633125 10.26171875 2.953125 10.26171875 Z " fill="#323232" transform="translate(280.046875,2.73828125)"/>
<path d="M0 0 C4.10720999 1.84981213 7.72129394 4.42007009 11.4375 6.9375 C12.74794654 7.8227279 14.05912947 8.70686679 15.37109375 9.58984375 C15.94786865 9.98034912 16.52464355 10.37085449 17.11889648 10.77319336 C19.07968061 12.11055715 19.07968061 12.11055715 21.69628906 13.29052734 C24 15 24 15 24.56762695 17.63549805 C24.54144287 18.66715088 24.51525879 19.69880371 24.48828125 20.76171875 C24.47216797 21.87998047 24.45605469 22.99824219 24.43945312 24.15039062 C24.39755859 25.31763672 24.35566406 26.48488281 24.3125 27.6875 C24.28994141 28.86634766 24.26738281 30.04519531 24.24414062 31.25976562 C24.18513901 34.17444548 24.10286341 37.08659161 24 40 C25.32 40 26.64 40 28 40 C28 40.66 28 41.32 28 42 C26.390625 43.359375 26.390625 43.359375 24.25 44.75 C23.55390625 45.21921875 22.8578125 45.6884375 22.140625 46.171875 C20 47 20 47 17.921875 46.265625 C16.27750578 45.18274771 14.63822512 44.09215008 13 43 C12.113125 43.70125 11.22625 44.4025 10.3125 45.125 C7 47 7 47 4.25 46.4375 C2 45 2 45 0 42 C-0.22705078 39.45629883 -0.22705078 39.45629883 -0.1953125 36.45703125 C-0.18886719 35.38388672 -0.18242188 34.31074219 -0.17578125 33.20507812 C-0.15064453 31.52575195 -0.15064453 31.52575195 -0.125 29.8125 C-0.11597656 28.68134766 -0.10695313 27.55019531 -0.09765625 26.38476562 C-0.07406862 23.58963172 -0.041153 20.79492155 0 18 C1.98 17.34 3.96 16.68 6 16 C6 15.34 6 14.68 6 14 C5.195625 13.71125 4.39125 13.4225 3.5625 13.125 C1 12 1 12 0 10 C-0.06996014 8.29297265 -0.08440154 6.58331997 -0.0625 4.875 C-0.05347656 3.96492187 -0.04445313 3.05484375 -0.03515625 2.1171875 C-0.02355469 1.41851562 -0.01195313 0.71984375 0 0 Z M10 17 C8.60229401 21.19311798 8.77596923 25.17045468 8.75 29.5625 C8.729375 30.43841797 8.70875 31.31433594 8.6875 32.21679688 C8.68234375 33.05404297 8.6771875 33.89128906 8.671875 34.75390625 C8.6625293 35.52033447 8.65318359 36.2867627 8.64355469 37.07641602 C8.76118164 37.71119873 8.87880859 38.34598145 9 39 C10.485 39.99 10.485 39.99 12 41 C12.66 40.67 13.32 40.34 14 40 C14 33.07 14 26.14 14 19 C12.68 18.34 11.36 17.68 10 17 Z M15 18 C15 25.59 15 33.18 15 41 C15.33 41 15.66 41 16 41 C16 33.41 16 25.82 16 18 C15.67 18 15.34 18 15 18 Z M1 20 C1 26.93 1 33.86 1 41 C1.33 41 1.66 41 2 41 C2 34.07 2 27.14 2 20 C1.67 20 1.34 20 1 20 Z " fill="#323232" transform="translate(93,3)"/>
<path d="M0 0 C0 -0.66 0 -1.32 0 -2 C0.66 -2 1.32 -2 2 -2 C1.5205537 2.21912747 0.83374881 4.79663178 -2 8 C-8.75 7.125 -8.75 7.125 -11 6 C-11.33 7.98 -11.66 9.96 -12 12 C-11.154375 11.608125 -10.30875 11.21625 -9.4375 10.8125 C-4.81408385 9.71969255 -3.13683233 10.84884719 1 13 C1.495 19.93 1.495 19.93 2 27 C-11.21616872 34.02987698 -11.21616872 34.02987698 -19.26953125 31.6484375 C-19.84058594 31.43445312 -20.41164063 31.22046875 -21 31 C-21 31.66 -21 32.32 -21 33 C-21.66 33 -22.32 33 -23 33 C-22.52449439 31.51965236 -22.04448784 30.04074979 -21.5625 28.5625 C-21.29566406 27.73878906 -21.02882813 26.91507813 -20.75390625 26.06640625 C-20 24 -20 24 -19 23 C-17.00390625 23.0859375 -17.00390625 23.0859375 -14.5625 23.375 C-13.75941406 23.46523438 -12.95632813 23.55546875 -12.12890625 23.6484375 C-10 24 -10 24 -8 25 C-8.33 23.02 -8.66 21.04 -9 19 C-9.86625 19.226875 -10.7325 19.45375 -11.625 19.6875 C-15.68338409 20.0632763 -17.55166676 19.05257931 -21 17 C-21 12.71 -21 8.42 -21 4 C-8.57142857 -3.14285714 -8.57142857 -3.14285714 0 0 Z " fill="#323232" transform="translate(402,17)"/>
<path d="M0 0 C1.859375 2.30078125 1.859375 2.30078125 3.75 5.3125 C4.38421875 6.29863281 5.0184375 7.28476562 5.671875 8.30078125 C7 11 7 11 6 14 C3.49609375 15.60546875 3.49609375 15.60546875 0.4375 17.1875 C-0.57441406 17.71730469 -1.58632813 18.24710938 -2.62890625 18.79296875 C-3.41136719 19.19128906 -4.19382812 19.58960937 -5 20 C-3.15134743 24.0347601 -3.15134743 24.0347601 0 27 C3.64541845 26.76522801 3.64541845 26.76522801 7 26 C7 26.66 7 27.32 7 28 C4.515625 29.796875 4.515625 29.796875 1.25 31.75 C0.18265625 32.40484375 -0.8846875 33.0596875 -1.984375 33.734375 C-5 35 -5 35 -6.95581055 34.26293945 C-10.62691638 31.99485985 -13.58867756 29.62064087 -16 26 C-16.81834019 22.30360499 -16.67152167 18.82484842 -16.4375 15.0625 C-16.40591797 14.09248047 -16.37433594 13.12246094 -16.34179688 12.12304688 C-16.25981253 9.74550095 -16.14518805 7.37438301 -16 5 C-13.89828133 4.1605118 -11.79353375 3.32860344 -9.6875 2.5 C-8.51574219 2.0359375 -7.34398437 1.571875 -6.13671875 1.09375 C-3 0 -3 0 0 0 Z M-6 10 C-6 12.31 -6 14.62 -6 17 C-4.68 16.34 -3.36 15.68 -2 15 C-2.96885372 13.31503702 -3.96986723 11.64821244 -5 10 C-5.33 10 -5.66 10 -6 10 Z " fill="#323232" transform="translate(373,15)"/>
<path d="M0 0 C0 5.94 0 11.88 0 18 C0.66 18 1.32 18 2 18 C1.76990234 16.67935547 1.76990234 16.67935547 1.53515625 15.33203125 C0.29485807 6.09642247 0.29485807 6.09642247 2.31640625 2.953125 C4.20617231 1.50008673 5.70334471 0.63614077 8 0 C11.34126222 0.66825244 12.60490966 1.60490966 15 4 C15.1953125 7.2578125 15.1953125 7.2578125 15.125 11.125 C15.10695313 12.40632813 15.08890625 13.68765625 15.0703125 15.0078125 C15.04710937 15.99523438 15.02390625 16.98265625 15 18 C10.68185213 20.99626587 10.68185213 20.99626587 8 22 C4.375 21.125 4.375 21.125 1 20 C-1.86430119 20.74216399 -1.86430119 20.74216399 -4 22 C-6.30925485 19.55420823 -6.99001814 18.40557866 -7.07421875 14.984375 C-6.94660156 13.91703125 -6.81898438 12.8496875 -6.6875 11.75 C-6.50767578 10.13351563 -6.50767578 10.13351563 -6.32421875 8.484375 C-6.21722656 7.66453125 -6.11023438 6.8446875 -6 6 C-6.99 5.67 -7.98 5.34 -9 5 C-7.68921847 4.16396622 -6.37632511 3.3312426 -5.0625 2.5 C-3.96615234 1.80390625 -3.96615234 1.80390625 -2.84765625 1.09375 C-1 0 -1 0 0 0 Z M7 5 C7 8.63 7 12.26 7 16 C7.99 16.495 7.99 16.495 9 17 C9 13.37 9 9.74 9 6 C8.34 5.67 7.68 5.34 7 5 Z " fill="#333435" transform="translate(429,15)"/>
<path d="M0 0 C1.45290655 1.91171914 2.88172209 3.82124341 4.20703125 5.82421875 C4.84705078 6.77748047 4.84705078 6.77748047 5.5 7.75 C5.9021875 8.36359375 6.304375 8.9771875 6.71875 9.609375 C7.1415625 10.06828125 7.564375 10.5271875 8 11 C8.99 11 9.98 11 11 11 C11 6.72946073 8.69874028 5.17101982 6 2 C6 1.34 6 0.68 6 0 C9 1 9 1 10.8125 3.375 C13.78693318 6.94431982 16.53073608 8.63648179 21.17578125 9.3203125 C26.67965545 9.59781876 29.58148799 8.47168801 34 5 C34.99 4.67 35.98 4.34 37 4 C36 6 35 8 34 10 C34.495 10.99 34.495 10.99 35 12 C38.45195767 10.5741914 40.1014256 8.90253666 42.25 5.875 C42.77078125 5.15054688 43.2915625 4.42609375 43.828125 3.6796875 C44.21484375 3.12539063 44.6015625 2.57109375 45 2 C45.495 2.99 45.495 2.99 46 4 C43.06030236 10.64627293 38.49126271 14.75436865 32 18 C22.91297688 18.78714345 14.6643605 19.33916012 6.95703125 13.78515625 C3.01711 10.19125602 -0.07812917 6.39465152 -1 1 C-0.67 0.67 -0.34 0.34 0 0 Z M31 10 C32 12 32 12 32 12 Z M20 12 C20 12.33 20 12.66 20 13 C22.31 13 24.62 13 27 13 C27 12.67 27 12.34 27 12 C24.69 12 22.38 12 20 12 Z M23 14 C23 14.99 23 15.98 23 17 C24.65 17 26.3 17 28 17 C27.01 16.67 26.02 16.34 25 16 C25 15.34 25 14.68 25 14 C24.34 14 23.68 14 23 14 Z " fill="#233D3C" transform="translate(412,32)"/>
<path d="M0 0 C4.875 2.875 4.875 2.875 6 4 C6.07313567 6.53049402 6.09247527 9.03304837 6.0625 11.5625 C6.05798828 12.27341797 6.05347656 12.98433594 6.04882812 13.71679688 C6.03700864 15.47790013 6.01907263 17.23896036 6 19 C4.78610357 19.61447859 3.55275329 20.19062513 2.3125 20.75 C1.28576172 21.23726562 1.28576172 21.23726562 0.23828125 21.734375 C-2 22 -2 22 -4.75 20.53125 C-7.760122 17.14486275 -7.51903481 15.21115191 -7.3125 10.75 C-7.26738281 9.48671875 -7.22226562 8.2234375 -7.17578125 6.921875 C-7.11777344 5.95765625 -7.05976563 4.9934375 -7 4 C-4.69 2.68 -2.38 1.36 0 0 Z M-1 5 C-1 8.96 -1 12.92 -1 17 C-0.34 17 0.32 17 1 17 C1 13.37 1 9.74 1 6 C0.34 5.67 -0.32 5.34 -1 5 Z " fill="#313435" transform="translate(452,15)"/>
<path d="M0 0 C4.28201929 2.99225444 7.78619296 6.18171409 10 11 C10 11.99 10 12.98 10 14 C9.34 14 8.68 14 8 14 C6.88671875 12.390625 6.88671875 12.390625 5.6875 10.25 C2.92843931 5.68383524 0.20028876 3.02339012 -4.6875 0.75 C-12.68297136 -1.0602954 -18.65994109 -0.43935598 -25.87109375 3.578125 C-30.58834147 6.72872714 -32.65677738 10.96207136 -35 16 C-35.66 16 -36.32 16 -37 16 C-35.63797097 9.32605773 -32.79852088 4.71557325 -27.19140625 0.70703125 C-18.8046573 -4.28894608 -8.62539647 -4.7958636 0 0 Z " fill="#15A6BF" transform="translate(448,4)"/>
<path d="M0 0 C2.86830835 3.77408994 2.86830835 3.77408994 3.9609375 5.6484375 C7.40788365 11.2466692 11.79753859 13.94458578 18 16 C24.55358632 17.24975367 29.8616547 15.8804186 35.66015625 12.7109375 C39.62519947 9.81162376 42.3202142 6.07291947 45 2 C45.495 2.99 45.495 2.99 46 4 C43.06030236 10.64627293 38.49126271 14.75436865 32 18 C22.91297688 18.78714345 14.6643605 19.33916012 6.95703125 13.78515625 C3.01711 10.19125602 -0.07812917 6.39465152 -1 1 C-0.67 0.67 -0.34 0.34 0 0 Z " fill="#0CAAC2" transform="translate(412,32)"/>
<path d="M0 0 C1.875 1.1875 1.875 1.1875 3 3 C3.4375 5.375 3.4375 5.375 3 8 C1 10.8125 1 10.8125 -1 13 C-3.94619748 12.67264472 -6.35360372 12.37532687 -8.9375 10.875 C-10.69646638 7.77094169 -9.84936588 5.33679452 -9 2 C-5.53076119 -0.31282587 -4.07794425 -0.42478586 0 0 Z M-4 1 C-3.67 1.66 -3.34 2.32 -3 3 C-2.01 2.67 -1.02 2.34 0 2 C-1.32 1.67 -2.64 1.34 -4 1 Z M-4 4 C-3 7 -3 7 -3 7 Z M0 4 C1 8 1 8 1 8 Z M-8 5 C-7 8 -7 8 -7 8 Z " fill="#323536" transform="translate(419,20)"/>
<path d="M0 0 C2.5 2.3125 2.5 2.3125 5 5 C5 5.99 5 6.98 5 8 C2.69 9.32 0.38 10.64 -2 12 C-3.65 10.35 -5.3 8.7 -7 7 C-5.66667905 3.00003714 -3.5042173 2.16217663 0 0 Z " fill="#333333" transform="translate(52,2)"/>
<path d="M0 0 C1.98 1.65 3.96 3.3 6 5 C4.54744301 8.82946843 2.57104439 10.12050295 -1 12 C-2.65 10.35 -4.3 8.7 -6 7 C-4.60667426 3.63279613 -3.0210714 2.0140476 0 0 Z " fill="#333333" transform="translate(304,2)"/>
<path d="M0 0 C3 1 3 1 4.8125 3.375 C7.78693318 6.94431982 10.53073608 8.63648179 15.17578125 9.3203125 C20.67965545 9.59781876 23.58148799 8.47168801 28 5 C28.99 4.67 29.98 4.34 31 4 C29.46698025 8.29245529 27.0322912 10.01922537 23 12 C17.83659109 12.77762182 12.83612332 12.8284953 8.125 10.375 C4.71560262 7.78385799 2.48793723 5.46803372 0 2 C0 1.34 0 0.68 0 0 Z " fill="#18A3BA" transform="translate(418,32)"/>
<path d="M0 0 C0.66 0.99 1.32 1.98 2 3 C1.67 3.66 1.34 4.32 1 5 C-0.32 5 -1.64 5 -3 5 C-3 5.66 -3 6.32 -3 7 C-5.375 9.625 -5.375 9.625 -8 12 C-8.66 12 -9.32 12 -10 12 C-10 12.66 -10 13.32 -10 14 C-11.32 13.67 -12.64 13.34 -14 13 C-10.57508337 6.69094305 -6.5759185 2.90563841 0 0 Z " fill="#213B40" transform="translate(428,4)"/>
<path d="M0 0 C5.43454871 1.17215757 8.43230757 2.45930054 12 7 C12 8.32 12 9.64 12 11 C9.45828796 9.82690214 7.27116256 8.5091503 4.9375 6.9375 C2.1164266 4.89527457 2.1164266 4.89527457 -1 4 C-0.67 2.68 -0.34 1.36 0 0 Z " fill="#263B3F" transform="translate(440,4)"/>
<path d="M0 0 C0.33 0.66 0.66 1.32 1 2 C-1.63269456 7.952179 -5.21661968 11.90888293 -11 15 C-14.5 15.375 -14.5 15.375 -17 15 C-15.42140613 13.94760408 -13.83028028 12.90663606 -12.16796875 11.9921875 C-6.68504101 8.8992539 -3.43223221 5.23935447 0 0 Z " fill="#16A5BE" transform="translate(457,34)"/>
<path d="M0 0 C3 1 3 1 4.75 3.3125 C7.53829663 6.64296542 10.16529752 8.00890448 14 10 C14 10.33 14 10.66 14 11 C10.96521706 11.27588936 9.41083875 11.25932375 6.796875 9.609375 C6.12140625 8.99578125 5.4459375 8.3821875 4.75 7.75 C3.72132813 6.84507813 3.72132813 6.84507813 2.671875 5.921875 C0.91141418 3.8981677 0.39416619 2.62004582 0 0 Z " fill="#0EAABB" transform="translate(418,32)"/>
<path d="M0 0 C0 1.32 0 2.64 0 4 C-2.31 4.33 -4.62 4.66 -7 5 C-7.33 3.68 -7.66 2.36 -8 1 C-5.07175348 0.02391783 -3.04386724 -0.08226668 0 0 Z " fill="#253E4D" transform="translate(438,3)"/>
<path d="M0 0 C0.33 1.32 0.66 2.64 1 4 C-0.32 4.33 -1.64 4.66 -3 5 C-3 4.34 -3 3.68 -3 3 C-4.32 2.67 -5.64 2.34 -7 2 C-2.25 0 -2.25 0 0 0 Z " fill="#18433F" transform="translate(446,42)"/>
</svg>
