<?xml version="1.0" encoding="UTF-8"?>
<svg version="1.1" xmlns="http://www.w3.org/2000/svg" width="200" height="52">
<path d="M0 0 C66 0 132 0 200 0 C200 17.16 200 34.32 200 52 C134 52 68 52 0 52 C0 34.84 0 17.68 0 0 Z " fill="#FEFDF9" transform="translate(0,0)"/>
<path d="M0 0 C0.598125 0.309375 1.19625 0.61875 1.8125 0.9375 C4.08956772 2.10209704 4.08956772 2.10209704 7 3 C7 3.99 7 4.98 7 6 C7.66 6 8.32 6 9 6 C9 4.35 9 2.7 9 1 C10.32 1.33 11.64 1.66 13 2 C13 3.32 13 4.64 13 6 C13.66 6 14.32 6 15 6 C15 5.01 15 4.02 15 3 C17.64 3 20.28 3 23 3 C23.495 3.99 23.495 3.99 24 5 C27.3 4.67 30.6 4.34 34 4 C34.08142927 5.7492214 34.13938541 7.49954542 34.1875 9.25 C34.23970703 10.71179688 34.23970703 10.71179688 34.29296875 12.203125 C34 15 34 15 32.42578125 17.046875 C31.95527344 17.69140625 31.48476562 18.3359375 31 19 C31.30357809 20.67234244 31.63830457 22.3392576 32 24 C31.1796875 26.421875 31.1796875 26.421875 29.875 28.75 C29.45992187 29.52859375 29.04484375 30.3071875 28.6171875 31.109375 C26.56257565 33.51138499 25.0820819 33.6886786 22 34 C19.70366176 30.55549263 19.45983515 28.06187717 19 24 C18.01 24 17.02 24 16 24 C16 25.98 16 27.96 16 30 C15.34 30 14.68 30 14 30 C14 28.02 14 26.04 14 24 C13.01 24 12.02 24 11 24 C11 25.98 11 27.96 11 30 C7.70840684 30.05790353 4.41694397 30.09356261 1.125 30.125 C-0.28072266 30.15013672 -0.28072266 30.15013672 -1.71484375 30.17578125 C-3.05869141 30.18544922 -3.05869141 30.18544922 -4.4296875 30.1953125 C-5.67081299 30.21102295 -5.67081299 30.21102295 -6.93701172 30.22705078 C-9 30 -9 30 -11 28 C-11.125 24.375 -11.125 24.375 -11 21 C-9.68 20.67 -8.36 20.34 -7 20 C-7 18.68 -7 17.36 -7 16 C-9.41880929 13.73122465 -9.41880929 13.73122465 -12 12 C-12.33 12.33 -12.66 12.66 -13 13 C-15.33297433 13.04092937 -17.66705225 13.04241723 -20 13 C-20 11.68 -20 10.36 -20 9 C-18.68 8.67 -17.36 8.34 -16 8 C-16 7.34 -16 6.68 -16 6 C-16.99 5.67 -17.98 5.34 -19 5 C-18.37351563 5.09539063 -17.74703125 5.19078125 -17.1015625 5.2890625 C-16.28429687 5.39992188 -15.46703125 5.51078125 -14.625 5.625 C-13.81289062 5.74101562 -13.00078125 5.85703125 -12.1640625 5.9765625 C-11.44992188 5.98429687 -10.73578125 5.99203125 -10 6 C-9.34 5.34 -8.68 4.68 -8 4 C-5.875 4.375 -5.875 4.375 -4 5 C-4.33 5.66 -4.66 6.32 -5 7 C-5.66 7 -6.32 7 -7 7 C-7.33 8.32 -7.66 9.64 -8 11 C-6.02 10.67 -4.04 10.34 -2 10 C-1.90912109 9.04287109 -1.90912109 9.04287109 -1.81640625 8.06640625 C-1.73261719 7.24011719 -1.64882812 6.41382813 -1.5625 5.5625 C-1.48128906 4.73878906 -1.40007812 3.91507813 -1.31640625 3.06640625 C-1 1 -1 1 0 0 Z " fill="#F0F1DE" transform="translate(165,16)"/>
<path d="M0 0 C2.97 0 5.94 0 9 0 C9 0.66 9 1.32 9 2 C9.66 2 10.32 2 11 2 C11 6.95 11 11.9 11 17 C8.52604167 16.93489583 6.05208333 16.86979167 3.578125 16.8046875 C0.83817419 17.01225953 -0.60608422 17.72581902 -3 19 C-5.66353755 19.51520982 -8.29499131 19.72949913 -11 20 C-9.11940967 21.88059033 -6.50109962 21.12361218 -4.0078125 21.1328125 C-1.79225982 21.07126531 -1.79225982 21.07126531 1 20 C8.05061082 19.52530541 8.05061082 19.52530541 11 21 C11 22.65 11 24.3 11 26 C10.34773438 25.97679688 9.69546875 25.95359375 9.0234375 25.9296875 C3.80593124 25.82195138 -0.04542915 26.27667101 -5 28 C-11.88311688 28.55844156 -11.88311688 28.55844156 -15 27 C-15 19.08 -15 11.16 -15 3 C-10.05 2.67 -5.1 2.34 0 2 C0 1.34 0 0.68 0 0 Z " fill="#FEEFCE" transform="translate(15,17)"/>
<path d="M0 0 C3.3 0 6.6 0 10 0 C10.66 1.32 11.32 2.64 12 4 C12.969375 3.979375 13.93875 3.95875 14.9375 3.9375 C18 4 18 4 19 5 C18.82364548 7.69082872 18.38164079 10.32851446 18 13 C17.34 13 16.68 13 16 13 C15.7834375 13.8971875 15.7834375 13.8971875 15.5625 14.8125 C15.1127561 16.56150404 14.57107659 18.28677023 14 20 C18.29 20.33 22.58 20.66 27 21 C27.33 23.64 27.66 26.28 28 29 C27.01 28.67 26.02 28.34 25 28 C25 27.34 25 26.68 25 26 C24.34 26 23.68 26 23 26 C23.33 26.99 23.66 27.98 24 29 C18.33333333 29 12.66666667 29 7 29 C7 28.34 7 27.68 7 27 C5.68 27 4.36 27 3 27 C3 27.66 3 28.32 3 29 C2.01 29 1.02 29 0 29 C0.47730838 27.5410574 0.95691042 26.08286504 1.4375 24.625 C1.70433594 23.81289063 1.97117187 23.00078125 2.24609375 22.1640625 C3 20 3 20 4 18 C5.32 18.33 6.64 18.66 8 19 C8.33 20.65 8.66 22.3 9 24 C9.66 24 10.32 24 11 24 C11.13277344 23.38511719 11.26554688 22.77023438 11.40234375 22.13671875 C11.66724609 20.92435547 11.66724609 20.92435547 11.9375 19.6875 C12.11152344 18.88699219 12.28554687 18.08648437 12.46484375 17.26171875 C13 15 13 15 14 12 C10.04 12 6.08 12 2 12 C1.67 11.01 1.34 10.02 1 9 C0.34 9 -0.32 9 -1 9 C-1.125 2.25 -1.125 2.25 0 0 Z " fill="#F0F3DB" transform="translate(124,17)"/>
<path d="M0 0 C5.625 1.125 5.625 1.125 8.33203125 4.37890625 C8.90244141 5.05244141 9.47285156 5.72597656 10.06054688 6.41992188 C10.63869141 7.12697266 11.21683594 7.83402344 11.8125 8.5625 C12.40998047 9.27341797 13.00746094 9.98433594 13.62304688 10.71679688 C15.09287122 12.46882749 16.54790419 14.233248 18 16 C18.33 10.72 18.66 5.44 19 0 C20.65 0 22.3 0 24 0 C24 9.24 24 18.48 24 28 C18.30948251 26.8618965 17.79423083 26.09503352 14.4375 21.6875 C11.73543174 18.17996252 9.15242514 15.15242514 6 12 C5.67 17.61 5.34 23.22 5 29 C3.35 29 1.7 29 0 29 C0 19.43 0 9.86 0 0 Z " fill="#EB9B3F" transform="translate(32,17)"/>
<path d="M0 0 C12 0 12 0 15.75 1.4375 C18.18339836 4.20887035 18.42701897 4.96545639 18.625 8.5 C18.41013721 11.76591444 18.14247367 12.8100351 16.125 15.5 C12.54268728 18.02869133 10.36502495 18.09489185 6 18 C6 21.3 6 24.6 6 28 C4.35 28 2.7 28 1 28 C0.67 18.76 0.34 9.52 0 0 Z " fill="#EB9127" transform="translate(84,17)"/>
<path d="M0 0 C0.66 0 1.32 0 2 0 C2 1.32 2 2.64 2 4 C3.65 4 5.3 4 7 4 C7 6.64 7 9.28 7 12 C6.67 12 6.34 12 6 12 C5.67 10.02 5.34 8.04 5 6 C4.01 6 3.02 6 2 6 C2 8.31 2 10.62 2 13 C0.02 13.99 0.02 13.99 -2 15 C-2 19.62 -2 24.24 -2 29 C-3.98 29 -5.96 29 -8 29 C-10 27 -10 27 -10.125 23.375 C-10.08375 22.26125 -10.0425 21.1475 -10 20 C-8.68 19.67 -7.36 19.34 -6 19 C-6 17.68 -6 16.36 -6 15 C-8.41880929 12.73122465 -8.41880929 12.73122465 -11 11 C-11.33 11.33 -11.66 11.66 -12 12 C-14.33297433 12.04092937 -16.66705225 12.04241723 -19 12 C-19 10.68 -19 9.36 -19 8 C-17.68 7.67 -16.36 7.34 -15 7 C-15 6.34 -15 5.68 -15 5 C-15.99 4.67 -16.98 4.34 -18 4 C-17.37351563 4.09539063 -16.74703125 4.19078125 -16.1015625 4.2890625 C-15.28429687 4.39992188 -14.46703125 4.51078125 -13.625 4.625 C-12.81289062 4.74101562 -12.00078125 4.85703125 -11.1640625 4.9765625 C-10.44992188 4.98429687 -9.73578125 4.99203125 -9 5 C-8.34 4.34 -7.68 3.68 -7 3 C-4.875 3.375 -4.875 3.375 -3 4 C-3.33 4.66 -3.66 5.32 -4 6 C-4.66 6 -5.32 6 -6 6 C-6.33 7.32 -6.66 8.64 -7 10 C-5.02 9.67 -3.04 9.34 -1 9 C-0.67 6.03 -0.34 3.06 0 0 Z " fill="#F8FAE1" transform="translate(164,17)"/>
<path d="M0 0 C1.65 0 3.3 0 5 0 C5.33 7.92 5.66 15.84 6 24 C8.97 24.33 11.94 24.66 15 25 C15 25.99 15 26.98 15 28 C10.05 28 5.1 28 0 28 C0 18.76 0 9.52 0 0 Z " fill="#E28F2C" transform="translate(64,17)"/>
<path d="M0 0 C3.3 0 6.6 0 10 0 C10.66 3.3 11.32 6.6 12 10 C8.00889681 11.9955516 6.30013434 12.19546065 2 12 C1.67 11.01 1.34 10.02 1 9 C0.34 9 -0.32 9 -1 9 C-1.125 2.25 -1.125 2.25 0 0 Z " fill="#F8F9E6" transform="translate(124,17)"/>
<path d="M0 0 C1.32 0 2.64 0 4 0 C4 10.56 4 21.12 4 32 C2.68 31.67 1.36 31.34 0 31 C0 20.77 0 10.54 0 0 Z " fill="#EBC79A" transform="translate(111,16)"/>
<path d="M0 0 C0.66 0.33 1.32 0.66 2 1 C2 2.65 2 4.3 2 6 C1.34773438 5.97679687 0.69546875 5.95359375 0.0234375 5.9296875 C-5.19406876 5.82195138 -9.04542915 6.27667101 -14 8 C-16.7215124 8.21711509 -19.26013782 8.13931503 -22 8 C-23 7 -23 7 -23.0625 4.4375 C-23.041875 3.633125 -23.02125 2.82875 -23 2 C-22.41992188 2.02320313 -21.83984375 2.04640625 -21.2421875 2.0703125 C-13.809987 2.2420135 -7.46227673 -0.37311384 0 0 Z " fill="#F58F16" transform="translate(24,37)"/>
<path d="M0 0 C0 1.65 0 3.3 0 5 C-0.66386719 4.98839844 -1.32773437 4.97679687 -2.01171875 4.96484375 C-7.28589852 4.8641421 -7.28589852 4.8641421 -12.5 5.5 C-16.62654971 6.32530994 -20.80531762 6.07330513 -25 6 C-25 4.35 -25 2.7 -25 1 C-4.09677419 -2.0483871 -4.09677419 -2.0483871 0 0 Z " fill="#EB952F" transform="translate(26,29)"/>
<path d="M0 0 C0.33 1.65 0.66 3.3 1 5 C-7.02350304 6.18396883 -14.86455314 7.28545428 -23 7 C-23 5.35 -23 3.7 -23 2 C-7.25512528 -0.29612756 -7.25512528 -0.29612756 0 0 Z " fill="#E89939" transform="translate(24,19)"/>
<path d="M0 0 C1.99954746 -0.04254356 4.00041636 -0.04080783 6 0 C7 1 7 1 7.11352539 3.86743164 C7.10828857 5.11903076 7.10305176 6.37062988 7.09765625 7.66015625 C7.0962413 8.32462265 7.09482635 8.98908905 7.09336853 9.6736908 C7.08775518 11.80333899 7.07520054 13.93288339 7.0625 16.0625 C7.05748671 17.50325369 7.05292351 18.94400903 7.04882812 20.38476562 C7.03778145 23.92321102 7.02050792 27.46159539 7 31 C1.20996094 31.1640625 1.20996094 31.1640625 -0.6796875 29.6875 C-1.78645833 28.125 -2.89322917 26.5625 -4 25 C-3.67 24.34 -3.34 23.68 -3 23 C-1.828125 24.52994792 -0.65625 26.05989583 0.515625 27.58984375 C2.16716076 29.39053593 2.16716076 29.39053593 6 30 C6 20.76 6 11.52 6 2 C4.35 2 2.7 2 1 2 C1 7.94 1 13.88 1 20 C-2.87961647 16.12038353 -5.2157554 13.43416733 -8 9 C-7.01 9 -6.02 9 -5 9 C-4.67 10.32 -4.34 11.64 -4 13 C-3.34 13 -2.68 13 -2 13 C-1.93941406 12.22914062 -1.87882812 11.45828125 -1.81640625 10.6640625 C-1.73261719 9.66117188 -1.64882813 8.65828125 -1.5625 7.625 C-1.48128906 6.62726562 -1.40007813 5.62953125 -1.31640625 4.6015625 C-1 2 -1 2 0 0 Z " fill="#FEF1CC" transform="translate(50,15)"/>
<path d="M0 0 C1.98 0.99 1.98 0.99 4 2 C4 2.66 4 3.32 4 4 C4.61875 4.28875 5.2375 4.5775 5.875 4.875 C8 6 8 6 10 8 C10 8.99 10 9.98 10 11 C10.99 11.33 11.98 11.66 13 12 C13 12.66 13 13.32 13 14 C10.125 13.8125 10.125 13.8125 7 13 C5.625 10.4375 5.625 10.4375 5 8 C4.34 8 3.68 8 3 8 C2.67 13.61 2.34 19.22 2 25 C1.34 25 0.68 25 0 25 C0 16.75 0 8.5 0 0 Z " fill="#F4921B" transform="translate(33,19)"/>
<path d="M0 0 C5.37900745 1.07580149 6.00859522 1.58661459 9.3125 5.5625 C10.00988281 6.38878906 10.70726562 7.21507812 11.42578125 8.06640625 C11.94527344 8.70449219 12.46476562 9.34257812 13 10 C12.67 10.66 12.34 11.32 12 12 C10.91481889 11.08552154 9.83195262 10.16829593 8.75 9.25 C8.14671875 8.73953125 7.5434375 8.2290625 6.921875 7.703125 C4.87082426 5.88552719 2.93784299 3.93784299 1 2 C1 10.25 1 18.5 1 27 C1.66 27 2.32 27 3 27 C2.98839844 26.19175781 2.97679687 25.38351563 2.96484375 24.55078125 C2.95130859 22.94783203 2.95130859 22.94783203 2.9375 21.3125 C2.92589844 20.25675781 2.91429687 19.20101562 2.90234375 18.11328125 C2.99134575 15.27589738 3.35060162 12.7561081 4 10 C4.66 10.33 5.32 10.66 6 11 C5.67 16.94 5.34 22.88 5 29 C3.35 29 1.7 29 0 29 C0 19.43 0 9.86 0 0 Z " fill="#E49A44" transform="translate(32,17)"/>
<path d="M0 0 C1.21236328 0.01353516 1.21236328 0.01353516 2.44921875 0.02734375 C3.37154297 0.04474609 3.37154297 0.04474609 4.3125 0.0625 C4.6425 2.7025 4.9725 5.3425 5.3125 8.0625 C4.3225 7.7325 3.3325 7.4025 2.3125 7.0625 C2.3125 6.4025 2.3125 5.7425 2.3125 5.0625 C1.6525 5.0625 0.9925 5.0625 0.3125 5.0625 C0.6425 6.0525 0.9725 7.0425 1.3125 8.0625 C-0.6675 8.0625 -2.6475 8.0625 -4.6875 8.0625 C-4.6875 7.4025 -4.6875 6.7425 -4.6875 6.0625 C-6.0075 6.0625 -7.3275 6.0625 -8.6875 6.0625 C-8.3575 4.4125 -8.0275 2.7625 -7.6875 1.0625 C-4.80538698 0.10179566 -2.98899956 -0.04331883 0 0 Z " fill="#F1F4D6" transform="translate(146.6875,37.9375)"/>
<path d="M0 0 C0.94875 0.04125 1.8975 0.0825 2.875 0.125 C2.92891993 1.91633978 2.96775571 3.70813899 3 5.5 C3.02320313 6.49773438 3.04640625 7.49546875 3.0703125 8.5234375 C2.875 11.125 2.875 11.125 0.875 13.125 C-1.75 13.25 -1.75 13.25 -4.125 13.125 C-4.455 12.465 -4.785 11.805 -5.125 11.125 C-2.65 11.62 -2.65 11.62 -0.125 12.125 C-0.125 11.465 -0.125 10.805 -0.125 10.125 C-1.775 9.795 -3.425 9.465 -5.125 9.125 C-5.25 5.75 -5.25 5.75 -5.125 2.125 C-3.125 0.125 -3.125 0.125 0 0 Z " fill="#BCC491" transform="translate(196.125,19.875)"/>
<path d="M0 0 C1.98960773 3.3183077 2.2361745 5.79959699 2.1953125 9.640625 C2.18886719 10.71054687 2.18242188 11.78046875 2.17578125 12.8828125 C2.15902344 13.99398438 2.14226562 15.10515625 2.125 16.25 C2.11597656 17.37664063 2.10695313 18.50328125 2.09765625 19.6640625 C2.07410658 22.44292365 2.0412168 25.2213539 2 28 C3.65 28 5.3 28 7 28 C7 24.7 7 21.4 7 18 C8.65 18 10.3 18 12 18 C10.68 18.33 9.36 18.66 8 19 C8.01160156 19.71027344 8.02320312 20.42054687 8.03515625 21.15234375 C8.04869141 22.53099609 8.04869141 22.53099609 8.0625 23.9375 C8.07410156 24.85402344 8.08570312 25.77054688 8.09765625 26.71484375 C8 29 8 29 7 30 C4 30.125 4 30.125 1 30 C0 29 0 29 -0.11352539 26.22436523 C-0.10828857 25.01466064 -0.10305176 23.80495605 -0.09765625 22.55859375 C-0.09443359 21.25341797 -0.09121094 19.94824219 -0.08789062 18.60351562 C-0.07953401 17.2148431 -0.07106905 15.82617123 -0.0625 14.4375 C-0.05748666 13.04492344 -0.05292347 11.65234519 -0.04882812 10.25976562 C-0.03699434 6.8398013 -0.0205088 3.41992156 0 0 Z " fill="#FEE3B5" transform="translate(83,17)"/>
<path d="M0 0 C0.66 0.33 1.32 0.66 2 1 C2 2.32 2 3.64 2 5 C1.31292969 4.98839844 0.62585938 4.97679687 -0.08203125 4.96484375 C-0.98308594 4.95582031 -1.88414063 4.94679688 -2.8125 4.9375 C-3.70582031 4.92589844 -4.59914063 4.91429687 -5.51953125 4.90234375 C-8.13413791 4.88990033 -8.13413791 4.88990033 -11 6 C-13.7635072 6.28455916 -16.19366639 6.17817991 -19 6 C-19.66 5.01 -20.32 4.02 -21 3 C-20.39671875 2.95101562 -19.7934375 2.90203125 -19.171875 2.8515625 C-18.37265625 2.77679688 -17.5734375 2.70203125 -16.75 2.625 C-15.56664062 2.52058594 -15.56664062 2.52058594 -14.359375 2.4140625 C-11.98172916 2.11385863 -11.98172916 2.11385863 -9.9609375 0.97265625 C-6.6461952 -0.67150876 -3.65785338 -0.17699291 0 0 Z " fill="#FFFCEB" transform="translate(24,33)"/>
<path d="M0 0 C0.99 0 1.98 0 3 0 C3 8.25 3 16.5 3 25 C2.01 25 1.02 25 0 25 C-0.93714922 21.88248002 -1.05686895 19.25850091 -0.87890625 16.015625 C-0.83056641 15.08105469 -0.78222656 14.14648438 -0.73242188 13.18359375 C-0.67634766 12.21550781 -0.62027344 11.24742188 -0.5625 10.25 C-0.51029297 9.26644531 -0.45808594 8.28289063 -0.40429688 7.26953125 C-0.27488563 4.84601151 -0.13993095 2.42293136 0 0 Z " fill="#EA8B17" transform="translate(52,18)"/>
<path d="M0 0 C0.99 0 1.98 0 3 0 C3 4.29 3 8.58 3 13 C1.02 13 -0.96 13 -3 13 C-3.66 12.34 -4.32 11.68 -5 11 C-4.875 8.5 -4.875 8.5 -4 6 C-1.9375 4.6875 -1.9375 4.6875 0 4 C0 2.68 0 1.36 0 0 Z " fill="#AFB87B" transform="translate(159,33)"/>
<path d="M0 0 C0.66 0 1.32 0 2 0 C2.16795811 3.10409821 2.33414323 6.20828886 2.5 9.3125 C2.54769531 10.19357422 2.59539062 11.07464844 2.64453125 11.98242188 C2.68964844 12.82998047 2.73476562 13.67753906 2.78125 14.55078125 C2.82314453 15.33106689 2.86503906 16.11135254 2.90820312 16.9152832 C2.98277524 18.60882396 3 20.30481821 3 22 C7.455 22.99 7.455 22.99 12 24 C12 24.33 12 24.66 12 25 C8.04 25 4.08 25 0 25 C0 16.75 0 8.5 0 0 Z " fill="#F69218" transform="translate(65,19)"/>
<path d="M0 0 C1.65 0 3.3 0 5 0 C7 2 7 2 7.25 4.4375 C7 7 7 7 5 10 C3.35 10 1.7 10 0 10 C0 6.7 0 3.4 0 0 Z " fill="#FEE8B8" transform="translate(90,21)"/>
<path d="M0 0 C1.97909398 -0.02686553 3.95828971 -0.04633375 5.9375 -0.0625 C7.03964844 -0.07410156 8.14179688 -0.08570313 9.27734375 -0.09765625 C12 0 12 0 13 1 C13.04092937 3.33297433 13.04241723 5.66705225 13 8 C12.34 8 11.68 8 11 8 C10.67 6.02 10.34 4.04 10 2 C9.01 2 8.02 2 7 2 C7 3.98 7 5.96 7 8 C6.34 8 5.68 8 5 8 C5 6.02 5 4.04 5 2 C4.01 2 3.02 2 2 2 C2 3.98 2 5.96 2 8 C1.34 8 0.68 8 0 8 C0 5.36 0 2.72 0 0 Z " fill="#96A15B" transform="translate(174,38)"/>
<path d="M0 0 C1.99954746 -0.04254356 4.00041636 -0.04080783 6 0 C7 1 7 1 7.1875 3.4375 C7 6 7 6 5 8 C2.375 8.125 2.375 8.125 0 8 C-1.125 2.25 -1.125 2.25 0 0 Z " fill="#8D975B" transform="translate(136,21)"/>
<path d="M0 0 C0.33 -0.33 0.66 -0.66 1 -1 C3.33297433 -1.04092937 5.66705225 -1.04241723 8 -1 C7.67 -0.01 7.34 0.98 7 2 C6.34 2 5.68 2 5 2 C5 2.66 5 3.32 5 4 C3.68 4.33 2.36 4.66 1 5 C1 5.99 1 6.98 1 8 C0.01 7.67 -0.98 7.34 -2 7 C-2 5.35 -2 3.7 -2 2 C-4.97 1.505 -4.97 1.505 -8 1 C-8.33 1.66 -8.66 2.32 -9 3 C-9 2.01 -9 1.02 -9 0 C-5.64896563 -1.11701146 -3.40995239 -0.737287 0 0 Z " fill="#EFF2CF" transform="translate(144,20)"/>
<path d="M0 0 C2.64 0 5.28 0 8 0 C8 3.3 8 6.6 8 10 C7.34 10 6.68 10 6 10 C5.67 8.02 5.34 6.04 5 4 C4.01 4 3.02 4 2 4 C2 5.98 2 7.96 2 10 C1.34 10 0.68 10 0 10 C0 6.7 0 3.4 0 0 Z " fill="#B6BE88" transform="translate(180,19)"/>
<path d="M0 0 C0.66 0 1.32 0 2 0 C5 6.5 5 6.5 5 11 C4.34 11 3.68 11 3 11 C3 10.34 3 9.68 3 9 C1.68 9 0.36 9 -1 9 C-1 9.66 -1 10.32 -1 11 C-1.99 11 -2.98 11 -4 11 C-3.52269162 9.5410574 -3.04308958 8.08286504 -2.5625 6.625 C-2.29566406 5.81289063 -2.02882813 5.00078125 -1.75390625 4.1640625 C-1 2 -1 2 0 0 Z " fill="#99A460" transform="translate(128,35)"/>
<path d="M0 0 C0.66 0.33 1.32 0.66 2 1 C2 2.65 2 4.3 2 6 C1.02160156 5.98259766 1.02160156 5.98259766 0.0234375 5.96484375 C-4.7761914 5.91529006 -9.27784685 6.00586249 -14 7 C-12.85546875 5.51171875 -12.85546875 5.51171875 -11 4 C-8.30078125 3.70703125 -8.30078125 3.70703125 -5.3125 3.8125 C-4.31863281 3.83957031 -3.32476562 3.86664063 -2.30078125 3.89453125 C-1.16189453 3.94673828 -1.16189453 3.94673828 0 4 C0 3.34 0 2.68 0 2 C-4.62 2.33 -9.24 2.66 -14 3 C-9.10557548 -0.26294968 -5.69047926 -0.18065014 0 0 Z " fill="#E49D49" transform="translate(24,37)"/>
<path d="M0 0 C0.33 0 0.66 0 1 0 C1.33 7.26 1.66 14.52 2 22 C4.64 22 7.28 22 10 22 C11 23 11 23 11.0625 26.0625 C11.041875 27.031875 11.02125 28.00125 11 29 C10.67 29 10.34 29 10 29 C10 27.35 10 25.7 10 24 C6.7 24 3.4 24 0 24 C0 16.08 0 8.16 0 0 Z " fill="#FEFAE3" transform="translate(70,17)"/>
<path d="M0 0 C5.75 0.875 5.75 0.875 8 2 C8.125 8.625 8.125 8.625 7 12 C6.01 12 5.02 12 4 12 C3.896875 10.7625 3.79375 9.525 3.6875 8.25 C3.26198318 4.7207134 2.51887408 2.62839034 0 0 Z " fill="#F1901D" transform="translate(93,19)"/>
<path d="M0 0 C0 1.32 0 2.64 0 4 C-1.32 4 -2.64 4 -4 4 C-4 4.66 -4 5.32 -4 6 C-2.35 6 -0.7 6 1 6 C1 6.66 1 7.32 1 8 C-0.99954746 8.04254356 -3.00041636 8.04080783 -5 8 C-6 7 -6 7 -6.0625 3.4375 C-6.041875 2.303125 -6.02125 1.16875 -6 0 C-3.50907189 -1.24546405 -2.58919267 -0.7767578 0 0 Z " fill="#949F5F" transform="translate(171,38)"/>
<path d="M0 0 C1.66611905 -0.042721 3.33382885 -0.04063832 5 0 C6 1 6 1 6.0625 4.5625 C6.041875 5.696875 6.02125 6.83125 6 8 C3.69 8 1.38 8 -1 8 C-1 6.68 -1 5.36 -1 4 C0.32 3.67 1.64 3.34 3 3 C3 2.34 3 1.68 3 1 C2.01 0.67 1.02 0.34 0 0 Z " fill="#B0BA7B" transform="translate(146,21)"/>
<path d="M0 0 C0.33 0 0.66 0 1 0 C1 1.65 1 3.3 1 5 C6.94 4.505 6.94 4.505 13 4 C12.67 4.66 12.34 5.32 12 6 C9.35139573 6.59355614 6.70802678 6.74209269 4 7 C5.98 7.66 7.96 8.32 10 9 C10 9.33 10 9.66 10 10 C3.25 10.125 3.25 10.125 1 9 C1 10.65 1 12.3 1 14 C0.67 14 0.34 14 0 14 C0 9.38 0 4.76 0 0 Z " fill="#FDE6BA" transform="translate(0,30)"/>
<path d="M0 0 C0.94875 0.04125 1.8975 0.0825 2.875 0.125 C2.875 0.785 2.875 1.445 2.875 2.125 C1.225 2.455 -0.425 2.785 -2.125 3.125 C-2.125 4.775 -2.125 6.425 -2.125 8.125 C0.845 8.62 0.845 8.62 3.875 9.125 C3.545 9.785 3.215 10.445 2.875 11.125 C0 11.3125 0 11.3125 -3.125 11.125 C-5.42663882 7.67254176 -5.46990322 6.17761287 -5.125 2.125 C-3.125 0.125 -3.125 0.125 0 0 Z " fill="#9AA364" transform="translate(129.125,17.875)"/>
<path d="M0 0 C0.33 0 0.66 0 1 0 C1.62790698 8.1627907 1.62790698 8.1627907 -0.875 11.5 C-4.45731272 14.02869133 -6.63497505 14.09489185 -11 14 C-11 13.67 -11 13.34 -11 13 C-9.35 13 -7.7 13 -6 13 C-6 12.34 -6 11.68 -6 11 C-7.65 11 -9.3 11 -11 11 C-11 10.67 -11 10.34 -11 10 C-9.35 10 -7.7 10 -6 10 C-5.67 9.01 -5.34 8.02 -5 7 C-4.67 7.99 -4.34 8.98 -4 10 C-3.01 10 -2.02 10 -1 10 C-0.67 6.7 -0.34 3.4 0 0 Z " fill="#E5993D" transform="translate(101,21)"/>
<path d="M0 0 C7.75 -0.125 7.75 -0.125 10 1 C10 2.65 10 4.3 10 6 C5.71 6 1.42 6 -3 6 C-3 5.34 -3 4.68 -3 4 C0.3 3.67 3.6 3.34 7 3 C7 2.34 7 1.68 7 1 C4.69 1 2.38 1 0 1 C0 0.67 0 0.34 0 0 Z " fill="#E69C44" transform="translate(16,28)"/>
<path d="M0 0 C0.66 0 1.32 0 2 0 C2 1.32 2 2.64 2 4 C3.65 4 5.3 4 7 4 C7 6.64 7 9.28 7 12 C6.67 12 6.34 12 6 12 C5.67 10.02 5.34 8.04 5 6 C4.01 6 3.02 6 2 6 C2 7.98 2 9.96 2 12 C1.34 12 0.68 12 0 12 C0 8.04 0 4.08 0 0 Z " fill="#929D56" transform="translate(164,17)"/>
<path d="M0 0 C0.66 0 1.32 0 2 0 C2 3.3 2 6.6 2 10 C-1.96 10 -5.92 10 -10 10 C-9.67 9.34 -9.34 8.68 -9 8 C-6.67843403 7.59270772 -4.3431213 7.25561323 -2 7 C-4.31 6.67 -6.62 6.34 -9 6 C-9 5.67 -9 5.34 -9 5 C-5.7 5 -2.4 5 1 5 C0.67 3.35 0.34 1.7 0 0 Z " fill="#FCEAC6" transform="translate(24,19)"/>
<path d="M0 0 C1.89510699 -0.08160748 3.79124504 -0.13946459 5.6875 -0.1875 C6.74324219 -0.22230469 7.79898438 -0.25710937 8.88671875 -0.29296875 C12.35422768 0.03333385 14.18432448 1.00969875 17 3 C15 4 15 4 12.625 3.5 C9.96154796 2.9926758 8.53336705 3.15554432 6 4 C6 3.34 6 2.68 6 2 C4.35 1.67 2.7 1.34 1 1 C0.67 1.99 0.34 2.98 0 4 C0 2.68 0 1.36 0 0 Z " fill="#E49941" transform="translate(84,17)"/>
<path d="M0 0 C1.485 0.99 1.485 0.99 3 2 C3 2.66 3 3.32 3 4 C3.99 4.33 4.98 4.66 6 5 C6.33 5.99 6.66 6.98 7 8 C6.34 8 5.68 8 5 8 C5 7.34 5 6.68 5 6 C4.34 6 3.68 6 3 6 C2.34 9.96 1.68 13.92 1 18 C0.67 18 0.34 18 0 18 C0 12.06 0 6.12 0 0 Z " fill="#FEEFC8" transform="translate(37,28)"/>
<path d="M0 0 C-0.33 0.66 -0.66 1.32 -1 2 C-3.32716 2.37400786 -5.66117862 2.70764733 -8 3 C-8.33 3.33 -8.66 3.66 -9 4 C-10.68608966 4.07205511 -12.37500659 4.08386068 -14.0625 4.0625 C-14.98160156 4.05347656 -15.90070312 4.04445313 -16.84765625 4.03515625 C-17.55792969 4.02355469 -18.26820312 4.01195312 -19 4 C-12.97784896 -0.01476736 -7.00056891 -0.28573751 0 0 Z " fill="#FEFDF3" transform="translate(23,25)"/>
<path d="M0 0 C1.98 0 3.96 0 6 0 C6.33 2.64 6.66 5.28 7 8 C6.01 7.67 5.02 7.34 4 7 C4 6.34 4 5.68 4 5 C3.34 5 2.68 5 2 5 C2.33 5.99 2.66 6.98 3 8 C2.01 8 1.02 8 0 8 C0.33 6.35 0.66 4.7 1 3 C1.99 3 2.98 3 4 3 C4 2.34 4 1.68 4 1 C2.68 1.33 1.36 1.66 0 2 C0 1.34 0 0.68 0 0 Z " fill="#929D5A" transform="translate(145,38)"/>
<path d="M0 0 C3.71368887 1.23789629 4.77354181 2.85224877 7 6 C7 6.66 7 7.32 7 8 C7.99 8.33 8.98 8.66 10 9 C10 9.66 10 10.32 10 11 C10.99 11 11.98 11 13 11 C13.33 10.34 13.66 9.68 14 9 C14 10.32 14 11.64 14 13 C10.37990832 12.74279988 9.15052698 12.15124491 6.54296875 9.53125 C5.76566406 8.5309375 4.98835938 7.530625 4.1875 6.5 C3.39730469 5.4996875 2.60710938 4.499375 1.79296875 3.46875 C0 1 0 1 0 0 Z " fill="#E19336" transform="translate(42,32)"/>
<path d="M0 0 C3.3 0 6.6 0 10 0 C10 0.66 10 1.32 10 2 C9.34 2 8.68 2 8 2 C8 2.66 8 3.32 8 4 C5.69 4 3.38 4 1 4 C0.67 2.68 0.34 1.36 0 0 Z " fill="#EC8D1F" transform="translate(2,22)"/>
<path d="M0 0 C0.99 0 1.98 0 3 0 C3 3.96 3 7.92 3 12 C2.01 12 1.02 12 0 12 C0 8.04 0 4.08 0 0 Z " fill="#B3BB89" transform="translate(174,17)"/>
<path d="M0 0 C1.32 0.33 2.64 0.66 4 1 C4 3.64 4 6.28 4 9 C3.34 9 2.68 9 2 9 C2 8.34 2 7.68 2 7 C0.35 7 -1.3 7 -3 7 C-3 6.34 -3 5.68 -3 5 C-1.68 5 -0.36 5 1 5 C0.67 3.35 0.34 1.7 0 0 Z " fill="#F4F6D7" transform="translate(170,37)"/>
<path d="M0 0 C0.33 0 0.66 0 1 0 C1.33 6.27 1.66 12.54 2 19 C1.01 19 0.02 19 -1 19 C-2.45839897 15.04294544 -1.67906093 11.30168612 -1.0625 7.25 C-0.96259766 6.55261719 -0.86269531 5.85523438 -0.75976562 5.13671875 C-0.51334127 3.42348274 -0.25759045 1.71159275 0 0 Z " fill="#F99518" transform="translate(53,24)"/>
<path d="M0 0 C0.66 0.33 1.32 0.66 2 1 C2 2.98 2 4.96 2 7 C2.66 7.33 3.32 7.66 4 8 C1.69 8 -0.62 8 -3 8 C-2.74438677 5.6568787 -2.40729228 3.32156597 -2 1 C-1.34 0.67 -0.68 0.34 0 0 Z " fill="#E7EAC9" transform="translate(184,22)"/>
<path d="M0 0 C1.5625 1.75 1.5625 1.75 3 4 C2.6875 6.25 2.6875 6.25 2 8 C1.34 8 0.68 8 0 8 C0 8.66 0 9.32 0 10 C-0.66 10 -1.32 10 -2 10 C-2.66 8.68 -3.32 7.36 -4 6 C-3.01 6 -2.02 6 -1 6 C-0.67 4.02 -0.34 2.04 0 0 Z " fill="#F0F3DC" transform="translate(189,40)"/>
<path d="M0 0 C0.66 0.33 1.32 0.66 2 1 C2 2.32 2 3.64 2 5 C-0.97 4.505 -0.97 4.505 -4 4 C-3.67 3.01 -3.34 2.02 -3 1 C-5.64 1.33 -8.28 1.66 -11 2 C-6.94641576 -0.70238949 -4.81689896 -0.22937614 0 0 Z " fill="#FFF7D7" transform="translate(24,33)"/>
<path d="M0 0 C2.125 0.375 2.125 0.375 4 1 C3.67 1.66 3.34 2.32 3 3 C2.34 3 1.68 3 1 3 C0.67 4.32 0.34 5.64 0 7 C1.32 7 2.64 7 4 7 C4 7.66 4 8.32 4 9 C2.33388095 9.042721 0.66617115 9.04063832 -1 9 C-2 8 -2 8 -2.1875 5.0625 C-2 2 -2 2 0 0 Z " fill="#98A268" transform="translate(157,20)"/>
<path d="M0 0 C0.33 0 0.66 0 1 0 C1 4.62 1 9.24 1 14 C-3 13 -3 13 -5.25 9.9375 C-5.8275 8.968125 -6.405 7.99875 -7 7 C-6.01 7 -5.02 7 -4 7 C-3.67 8.32 -3.34 9.64 -3 11 C-2.34 11 -1.68 11 -1 11 C-0.67 7.37 -0.34 3.74 0 0 Z " fill="#FEF5DE" transform="translate(49,17)"/>
<path d="M0 0 C2.65197185 2.65197185 3.584501 5.55356766 5 9 C5.33 9.66 5.66 10.32 6 11 C4.35 10.67 2.7 10.34 1 10 C1 7.69 1 5.38 1 3 C-0.65 3 -2.3 3 -4 3 C-4 2.34 -4 1.68 -4 1 C-2.125 0.375 -2.125 0.375 0 0 Z " fill="#F0F3D1" transform="translate(150,35)"/>
<path d="M0 0 C2.475 0.495 2.475 0.495 5 1 C5 2.65 5 4.3 5 6 C3.35 6 1.7 6 0 6 C0 4.02 0 2.04 0 0 Z " fill="#FDFDF7" transform="translate(91,23)"/>
<path d="M0 0 C0.66 0.33 1.32 0.66 2 1 C2 2.98 2 4.96 2 7 C0.35 7.33 -1.3 7.66 -3 8 C-2.74438677 5.6568787 -2.40729228 3.32156597 -2 1 C-1.34 0.67 -0.68 0.34 0 0 Z " fill="#E7ECC0" transform="translate(183,39)"/>
<path d="M0 0 C1.2065625 0.0309375 1.2065625 0.0309375 2.4375 0.0625 C1.4475 0.7225 0.4575 1.3825 -0.5625 2.0625 C-1.28632467 4.12175139 -1.28632467 4.12175139 -1.5625 6.0625 C-0.2425 6.0625 1.0775 6.0625 2.4375 6.0625 C2.4375 6.7225 2.4375 7.3825 2.4375 8.0625 C0.77138095 8.105221 -0.89632885 8.10313832 -2.5625 8.0625 C-3.5625 7.0625 -3.5625 7.0625 -3.6875 4.0625 C-3.52180824 0.08589776 -3.52180824 0.08589776 0 0 Z " fill="#929E55" transform="translate(139.5625,37.9375)"/>
<path d="M0 0 C2.64 0.66 5.28 1.32 8 2 C8 2.66 8 3.32 8 4 C6.35 4 4.7 4 3 4 C3 4.66 3 5.32 3 6 C2.01 6 1.02 6 0 6 C0 4.02 0 2.04 0 0 Z " fill="#F1921A" transform="translate(87,30)"/>
<path d="M0 0 C2.97 0.33 5.94 0.66 9 1 C9 1.33 9 1.66 9 2 C6.69 2 4.38 2 2 2 C2.33 2.66 2.66 3.32 3 4 C6.02934491 4.65772428 6.02934491 4.65772428 9 5 C9 5.33 9 5.66 9 6 C2.84765625 6.09765625 2.84765625 6.09765625 1 6 C0 5 0 5 -0.0625 2.4375 C-0.041875 1.633125 -0.02125 0.82875 0 0 Z " fill="#E1A051" transform="translate(1,39)"/>
<path d="M0 0 C1.32 0 2.64 0 4 0 C4.33 1.32 4.66 2.64 5 4 C4.34 4 3.68 4 3 4 C2.67 5.98 2.34 7.96 2 10 C1.34 10 0.68 10 0 10 C-0.33 8.35 -0.66 6.7 -1 5 C-0.01 5.33 0.98 5.66 2 6 C2 4.68 2 3.36 2 2 C1.34 2 0.68 2 0 2 C0 1.34 0 0.68 0 0 Z " fill="#EAEEC8" transform="translate(192,33)"/>
<path d="M0 0 C0.99 0.33 1.98 0.66 3 1 C3.33 3.31 3.66 5.62 4 8 C2.68 8 1.36 8 0 8 C0 5.36 0 2.72 0 0 Z " fill="#F4F6DB" transform="translate(162,38)"/>
<path d="M0 0 C0.66 0 1.32 0 2 0 C2.33 1.65 2.66 3.3 3 5 C3.66 5 4.32 5 5 5 C5.33 6.32 5.66 7.64 6 9 C4.02 9.99 4.02 9.99 2 11 C1.855625 9.9275 1.71125 8.855 1.5625 7.75 C1.16250558 5.08337051 0.72408076 2.58600271 0 0 Z " fill="#ECF0CC" transform="translate(130,36)"/>
<path d="M0 0 C1.65 0 3.3 0 5 0 C5.5625 1.9375 5.5625 1.9375 6 4 C5 5 5 5 2.4375 5.0625 C1.2309375 5.0315625 1.2309375 5.0315625 0 5 C-0.33 4.34 -0.66 3.68 -1 3 C1.475 3.495 1.475 3.495 4 4 C4 3.34 4 2.68 4 2 C2.68 2 1.36 2 0 2 C0 1.34 0 0.68 0 0 Z " fill="#929D5A" transform="translate(192,28)"/>
<path d="M0 0 C1.65 0 3.3 0 5 0 C5 2.31 5 4.62 5 7 C3.35 6.67 1.7 6.34 0 6 C0.33 5.01 0.66 4.02 1 3 C1.66 3 2.32 3 3 3 C3 2.34 3 1.68 3 1 C2.01 0.67 1.02 0.34 0 0 Z " fill="#8E9A53" transform="translate(146,21)"/>
<path d="M0 0 C0.66 0 1.32 0 2 0 C2 2.31 2 4.62 2 7 C0.68 7 -0.64 7 -2 7 C-1.34 4.69 -0.68 2.38 0 0 Z " fill="#ADB673" transform="translate(128,35)"/>
<path d="M0 0 C0.556875 0.7115625 0.556875 0.7115625 1.125 1.4375 C3.62646962 3.52205802 5.81593418 3.64621491 9 4 C8.67 4.66 8.34 5.32 8 6 C5.125 6.1875 5.125 6.1875 2 6 C0 3 0 3 0 0 Z " fill="#929B61" transform="translate(124,23)"/>
<path d="M0 0 C0.99 0.33 1.98 0.66 3 1 C2.67 2.65 2.34 4.3 2 6 C1.01 5.67 0.02 5.34 -1 5 C-0.67 3.35 -0.34 1.7 0 0 Z " fill="#ECF1C7" transform="translate(138,22)"/>
<path d="M0 0 C0.33 0.99 0.66 1.98 1 3 C0.21625 3.0825 -0.5675 3.165 -1.375 3.25 C-4.14749104 3.72806339 -4.14749104 3.72806339 -5.3125 6.0625 C-5.6528125 7.0215625 -5.6528125 7.0215625 -6 8 C-6.042721 6.33388095 -6.04063832 4.66617115 -6 3 C-5 2 -5 2 -2.4375 1.9375 C-1.2309375 1.9684375 -1.2309375 1.9684375 0 2 C0 1.34 0 0.68 0 0 Z " fill="#EBEDCD" transform="translate(132,18)"/>
<path d="M0 0 C0.99 0 1.98 0 3 0 C3 1.98 3 3.96 3 6 C2.01 6 1.02 6 0 6 C0 4.02 0 2.04 0 0 Z " fill="#F5F7D9" transform="translate(176,40)"/>
<path d="M0 0 C-0.33 0.99 -0.66 1.98 -1 3 C-2.65 2.67 -4.3 2.34 -6 2 C-6 1.34 -6 0.68 -6 0 C-3.50907189 -1.24546405 -2.58919267 -0.7767578 0 0 Z " fill="#B9C284" transform="translate(171,38)"/>
<path d="M0 0 C0.33 0 0.66 0 1 0 C1 2.31 1 4.62 1 7 C1.66 7.33 2.32 7.66 3 8 C1.35 7.67 -0.3 7.34 -2 7 C-2.33 6.01 -2.66 5.02 -3 4 C-2.01 4 -1.02 4 0 4 C0 2.68 0 1.36 0 0 Z " fill="#F2F4DD" transform="translate(163,22)"/>
<path d="M0 0 C0.66 0 1.32 0 2 0 C2 1.32 2 2.64 2 4 C1.34 4 0.68 4 0 4 C-0.33 4.99 -0.66 5.98 -1 7 C-1.625 5.1875 -1.625 5.1875 -2 3 C-1.34 2.01 -0.68 1.02 0 0 Z " fill="#C7CF93" transform="translate(193,22)"/>
</svg>
