<?xml version="1.0" encoding="UTF-8" standalone="no"?>
<!-- Created with Inkscape (http://www.inkscape.org/) -->
<svg
   xmlns:svg="http://www.w3.org/2000/svg"
   xmlns="http://www.w3.org/2000/svg"
   version="1.0"
   width="434.365214029"
   height="230.221013954" viewBox="0 0 728.75 386.25"
   id="svg2690"
   xml:space="preserve"><defs
     id="defs2693"><clipPath
       id="clipPath2703"><path
         d="M 0,0 L 583,0 L 583,309 L 0,309 L 0,0 z"
         id="path2705" /></clipPath></defs><g
     transform="matrix(1.25,0,0,-1.25,0,386.25)"
     id="g2699"><g
       clip-path="url(#clipPath2703)"
       id="g2701"><g
         id="g2707"><g
           transform="translate(212.654,94.037)"
           id="g2709"><path
             d="M 1.45,-24.795 C 1.45,-24.795 0,-24.795 0,-24.795 C 0,-24.795 0,-0.881 0,-0.881 C 0,-0.881 1.45,0 1.45,0 C 1.45,0 1.45,-24.795 1.45,-24.795 z"
             id="path2711"
             style="fill:#000000;fill-opacity:1;fill-rule:nonzero;stroke:none" /></g></g><g
         id="g2713"><g
           transform="translate(85.0195,93.379)"
           id="g2715"><path
             d="M 1.4532,-22.231 C 1.4532,-22.231 0,-22.231 0,-22.231 C 0,-22.231 0,0 0,0 C 0,0 1.4532,-0.008 1.4532,-0.008 C 1.4532,-0.008 1.4532,-22.231 1.4532,-22.231 z"
             id="path2717"
             style="fill:#000000;fill-opacity:1;fill-rule:nonzero;stroke:none" /></g></g><g
         id="g2719"><g
           transform="translate(1.04785,93.385)"
           id="g2721"><path
             d="M 76.32325,-0.006 C 76.32325,-0.006 74.86915,0 74.86915,0 C 74.86915,0 74.86915,-12.664 74.86915,-12.664 C 74.86915,-12.664 1.45606,-12.664 1.45606,-12.664 C 1.45606,-12.664 1.45606,-8.647 1.45606,-8.647 C 1.45606,-8.647 0.00391,-8.647 0.00391,-8.647 C 0.00391,-8.647 0.00391,-12.664 0.00391,-12.664 C 0.00391,-12.664 0,-12.664 0,-12.664 C 0,-12.664 0,-24.125 0,-24.125 C 0,-24.125 0.00391,-24.125 0.00391,-24.125 C 0.00391,-24.125 0.00391,-24.143 0.00391,-24.143 C 0.00391,-24.143 1.45606,-24.143 1.45606,-24.143 C 1.45606,-24.143 1.45606,-24.125 1.45606,-24.125 C 1.45606,-24.125 76.31645,-24.125 76.31645,-24.125 C 76.31645,-24.125 76.31645,-22.237 76.31645,-22.237 C 76.31645,-22.237 76.32325,-22.237 76.32325,-22.237 C 76.32325,-22.237 76.32325,-0.006 76.32325,-0.006 z"
             id="path2723"
             style="fill:#000000;fill-opacity:1;fill-rule:nonzero;stroke:none" /></g></g><g
         id="g2725"><g
           transform="translate(501.735,87.688)"
           id="g2727"><path
             d="M 79.103,-0.917 C 79.103,-0.917 79.103,-6.946 79.103,-6.946 C 79.103,-6.946 68.833,-6.946 68.833,-6.946 C 68.833,-6.946 68.833,0 68.833,0 C 68.833,0 67.378,-0.917 67.378,-0.917 C 67.378,-0.917 67.378,-6.946 67.378,-6.946 C 67.378,-6.946 56.907,-6.946 56.907,-6.946 C 56.907,-6.946 56.907,0 56.907,0 C 56.907,0 55.454,-0.917 55.454,-0.917 C 55.454,-0.917 55.454,-6.946 55.454,-6.946 C 55.454,-6.946 7.224,-6.946 7.224,-6.946 C 7.224,-6.946 7.224,-3.995 7.224,-3.995 C 7.224,-3.995 6.523,-3.995 6.523,-3.995 C 6.523,-3.995 6.523,-19.405 6.523,-19.405 C 6.523,-19.405 6.529,-19.405 6.529,-19.405 C 6.432,-22.145 5.517,-23.071 3.992,-23.577 C 2.836,-23.961 1.346,-23.221 0.676,-22.786 C 0.517,-23.004 0.17,-23.481 0,-23.717 C 0.606,-24.116 2.596,-25.209 4.394,-24.647 C 6.37,-24.03 7.11,-23.059 7.539,-20.331 C 7.809,-18.922 8.095,-18.36 10.737,-18.411 C 10.737,-18.411 55.454,-18.411 55.454,-18.411 C 55.454,-18.411 56.907,-18.411 56.907,-18.411 C 56.907,-18.411 67.378,-18.411 67.378,-18.411 C 67.378,-18.411 68.833,-18.411 68.833,-18.411 C 68.833,-18.411 79.103,-18.411 79.103,-18.411 C 79.103,-18.411 79.517,-18.411 79.517,-18.411 C 79.517,-18.411 80.554,-18.411 80.554,-18.411 C 80.554,-18.411 80.554,0 80.554,0 C 80.554,0 79.103,-0.917 79.103,-0.917 z"
             id="path2729"
             style="fill:#000000;fill-opacity:1;fill-rule:nonzero;stroke:none" /></g></g><g
         id="g2731"><g
           transform="translate(405.332,93.283)"
           id="g2733"><path
             d="M 2.513,-0.812 C 2.615,-1.324 2.163,-1.845 1.5,-1.986 C 0.833,-2.123 0.211,-1.818 0.106,-1.31 C 0,-0.797 0.456,-0.275 1.117,-0.138 C 1.78,0 2.403,-0.303 2.513,-0.812 z"
             id="path2735"
             style="fill:#000000;fill-opacity:1;fill-rule:nonzero;stroke:none" /></g></g><g
         id="g2737"><g
           transform="translate(374.168,93.018)"
           id="g2739"><path
             d="M 2.51,-0.815 C 2.615,-1.323 2.165,-1.848 1.498,-1.985 C 0.835,-2.122 0.211,-1.821 0.104,-1.313 C 0,-0.801 0.452,-0.278 1.119,-0.141 C 1.782,0 2.405,-0.305 2.51,-0.815 z"
             id="path2741"
             style="fill:#000000;fill-opacity:1;fill-rule:nonzero;stroke:none" /></g></g><g
         id="g2743"><g
           transform="translate(361.241,93.283)"
           id="g2745"><path
             d="M 2.513,-0.812 C 2.619,-1.324 2.163,-1.845 1.502,-1.986 C 0.835,-2.123 0.213,-1.818 0.109,-1.31 C 0,-0.797 0.456,-0.275 1.119,-0.138 C 1.784,0 2.405,-0.303 2.513,-0.812 z"
             id="path2747"
             style="fill:#000000;fill-opacity:1;fill-rule:nonzero;stroke:none" /></g></g><g
         id="g2749"><g
           transform="translate(410.361,93.625)"
           id="g2751"><path
             d="M 2.508,-0.813 C 2.616,-1.32 2.163,-1.844 1.496,-1.984 C 0.835,-2.121 0.209,-1.816 0.105,-1.309 C 0,-0.799 0.451,-0.277 1.113,-0.137 C 1.78,0 2.405,-0.301 2.508,-0.813 z"
             id="path2753"
             style="fill:#000000;fill-opacity:1;fill-rule:nonzero;stroke:none" /></g></g><g
         id="g2755"><g
           transform="translate(555.717,92.654)"
           id="g2757"><path
             d="M 2.512,-0.808 C 2.616,-1.318 2.162,-1.843 1.5,-1.976 C 0.833,-2.117 0.209,-1.816 0.104,-1.304 C 0,-0.795 0.454,-0.269 1.116,-0.136 C 1.779,0 2.405,-0.297 2.512,-0.808 z"
             id="path2759"
             style="fill:#000000;fill-opacity:1;fill-rule:nonzero;stroke:none" /></g></g><g
         id="g2761"><g
           transform="translate(567.456,93.002)"
           id="g2763"><path
             d="M 2.509,-0.811 C 2.615,-1.32 2.163,-1.846 1.496,-1.982 C 0.835,-2.123 0.211,-1.82 0.103,-1.311 C 0,-0.803 0.45,-0.275 1.117,-0.139 C 1.78,0 2.406,-0.303 2.509,-0.811 z"
             id="path2765"
             style="fill:#000000;fill-opacity:1;fill-rule:nonzero;stroke:none" /></g></g><g
         id="g2767"><g
           transform="translate(579.786,93.002)"
           id="g2769"><path
             d="M 2.508,-0.811 C 2.614,-1.32 2.163,-1.846 1.496,-1.982 C 0.833,-2.123 0.211,-1.82 0.103,-1.311 C 0,-0.803 0.45,-0.275 1.117,-0.139 C 1.78,0 2.403,-0.303 2.508,-0.811 z"
             id="path2771"
             style="fill:#000000;fill-opacity:1;fill-rule:nonzero;stroke:none" /></g></g><g
         id="g2773"><g
           transform="translate(240.676,92.363)"
           id="g2775"><path
             d="M 134.749,-5.592 C 134.749,-5.592 134.749,-11.621 134.749,-11.621 C 134.749,-11.621 125.333,-11.621 125.333,-11.621 C 126.253,-10.758 126.836,-9.533 126.836,-8.174 C 126.836,-5.564 124.71,-3.437 122.097,-3.437 C 119.485,-3.437 117.358,-5.564 117.358,-8.174 C 117.358,-9.533 117.942,-10.758 118.861,-11.621 C 118.861,-11.621 31.214,-11.621 31.214,-11.621 C 30.324,-9.896 26.328,-3.578 15.517,-3.578 C 7.294,-3.578 3.125,-7.515 1.463,-9.664 C 1.463,-9.664 1.463,0 1.463,0 C 1.463,0 0.009,0 0.009,0 C 0.009,0 0,-23.086 0,-23.086 C 0,-23.086 0.009,-23.086 0.009,-23.086 C 0.009,-23.086 1.463,-23.086 1.463,-23.086 C 1.463,-23.086 134.749,-23.086 134.749,-23.086 C 134.749,-23.086 135.167,-23.086 135.167,-23.086 C 135.167,-23.086 136.204,-23.086 136.204,-23.086 C 136.204,-23.086 136.204,-4.675 136.204,-4.675 C 136.204,-4.675 134.749,-5.592 134.749,-5.592 z M 15.517,-5.406 C 23.952,-5.41 27.737,-9.56 29.095,-11.621 C 29.095,-11.621 2.324,-11.621 2.324,-11.621 C 3.005,-10.48 6.549,-5.406 15.517,-5.406 z M 122.097,-11.539 C 120.24,-11.539 118.729,-10.031 118.729,-8.174 C 118.729,-6.318 120.24,-4.81 122.097,-4.81 C 123.951,-4.81 125.461,-6.318 125.461,-8.174 C 125.461,-10.031 123.951,-11.539 122.097,-11.539 z"
             id="path2777"
             style="fill:#000000;fill-opacity:1;fill-rule:nonzero;stroke:none" /></g></g><g
         id="g2779"><g
           transform="translate(85.0566,95.268)"
           id="g2781"><path
             d="M 119.3354,-2.112 C 119.3354,-2.112 119.3354,-14.526 119.3354,-14.526 C 119.3354,-14.526 111.3454,-14.526 111.3454,-14.526 C 111.6764,-12.922 111.4924,-9.782 107.1094,-5.825 C 107.1094,-5.825 107.0754,-5.795 107.0754,-5.795 C 107.0754,-5.795 107.0374,-5.768 107.0374,-5.768 C 99.0284,0 91.0204,-5.02 90.9414,-5.071 C 90.9414,-5.071 91.8534,-6.495 91.8534,-6.495 C 92.1334,-6.315 98.5584,-2.329 105.3754,-6.682 C 104.6924,-6.342 103.9384,-6.159 103.1534,-6.159 C 100.4144,-6.159 98.1854,-8.387 98.1854,-11.125 C 98.1854,-12.442 98.7034,-13.639 99.5434,-14.526 C 99.5434,-14.526 15.5064,-14.526 15.5064,-14.526 C 15.5064,-14.526 15.5064,-1.883 15.5064,-1.883 C 15.5064,-1.883 14.0547,-1.901 14.0547,-1.901 C 14.0547,-1.901 14.0547,-25.936 14.0547,-25.936 C 14.0293,-27.266 13.3125,-29.204 11.8409,-30.674 C 10.9786,-31.538 9.4991,-32.559 7.334,-32.539 C 3.5215,-32.502 1.7442,-27.588 1.7266,-27.538 C 1.7266,-27.538 0,-28.141 0,-28.141 C 0.0899,-28.391 2.212,-34.319 7.3135,-34.366 C 9.5313,-34.391 11.542,-33.561 13.1348,-31.969 C 14.7442,-30.358 15.7794,-28.038 15.8204,-25.991 C 15.8204,-25.991 119.3354,-25.991 119.3354,-25.991 C 119.3354,-25.991 119.3354,-26.026 119.3354,-26.026 C 119.3354,-26.026 120.7894,-26.026 120.7894,-26.026 C 120.7894,-26.026 120.7894,-1.231 120.7894,-1.231 C 120.7894,-1.231 119.3354,-2.112 119.3354,-2.112 z M 103.1534,-7.848 C 104.0274,-7.848 104.8494,-8.188 105.4704,-8.809 C 106.0884,-9.428 106.4304,-10.248 106.4304,-11.125 C 106.4304,-12 106.0884,-12.823 105.4704,-13.444 C 104.8494,-14.061 104.0274,-14.403 103.1534,-14.403 C 101.3464,-14.403 99.8784,-12.932 99.8784,-11.125 C 99.8784,-9.319 101.3464,-7.848 103.1534,-7.848 z M 108.1214,-11.125 C 108.1214,-10.149 107.8394,-9.215 107.3194,-8.416 C 109.3174,-10.622 109.7734,-12.346 109.7734,-13.444 C 109.7734,-13.936 109.6834,-14.297 109.6054,-14.526 C 109.6054,-14.526 106.7664,-14.526 106.7664,-14.526 C 107.6374,-13.6 108.1214,-12.401 108.1214,-11.125 z"
             id="path2783"
             style="fill:#000000;fill-opacity:1;fill-rule:nonzero;stroke:none" /></g></g><g
         id="g2785"><g
           transform="translate(406.665,95.062)"
           id="g2787"><path
             d="M 97.196,-14.32 C 97.196,-14.32 97.196,-10.08 97.196,-10.08 C 97.196,-10.08 95.753,-10.08 95.753,-10.08 C 95.753,-10.08 95.753,-10.087 95.753,-10.087 C 72.169,-10.087 72.234,-10.087 34.98,-10.087 C 34.478,-10.087 33.824,-10.011 33.817,-9.64 C 33.803,-9.294 33.837,-9.175 35.188,-8.945 C 49.321,-6.572 81.714,-1.128 81.714,-1.128 C 81.714,-1.128 81.526,0 81.526,0 C 81.526,0 26.607,-9.218 26.607,-9.218 C 26.607,-9.218 26.566,-9.226 26.566,-9.226 C 26.566,-9.226 26.529,-9.236 26.529,-9.236 C 25.788,-9.472 22.642,-9.781 22.655,-10.437 C 22.663,-10.865 23.023,-11.115 23.361,-11.21 C 23.361,-11.21 23.434,-11.228 23.434,-11.228 C 23.434,-11.228 95.753,-11.228 95.753,-11.228 C 95.753,-11.228 95.749,-14.32 95.749,-14.32 C 95.749,-14.32 12.831,-14.32 12.831,-14.32 C 12.831,-14.32 12.831,-4.947 12.831,-4.947 C 12.831,-4.947 12.034,-4.945 12.034,-4.945 C 5.68,-4.91 0.229,-13.847 0,-14.228 C 0,-14.228 0.153,-14.32 0.153,-14.32 C 0.153,-14.32 0.117,-14.32 0.117,-14.32 C 0.117,-14.32 0.117,-25.785 0.117,-25.785 C 0.117,-25.785 95.746,-25.785 95.746,-25.785 C 95.746,-25.785 97.196,-25.785 97.196,-25.785 C 97.196,-25.785 97.201,-25.785 97.201,-25.785 C 97.201,-25.785 97.201,-14.32 97.201,-14.32 C 97.201,-14.32 97.196,-14.32 97.196,-14.32 z M 11.229,-14.32 C 11.229,-14.32 1.845,-14.32 1.845,-14.32 C 3.166,-12.376 7.039,-7.203 11.229,-6.613 C 11.229,-7.611 11.229,-11.763 11.229,-14.32 z"
             id="path2789"
             style="fill:#000000;fill-opacity:1;fill-rule:nonzero;stroke:none" /></g></g><g
         id="g2791"><g
           transform="translate(0.82227,39.324)"
           id="g2793"><path
             d="M 37.65723,-27.541 C 37.34863,-28.394 36.62113,-29.433 35.47953,-30.664 C 31.74223,-34.898 26.77443,-37.013 20.57713,-37.013 C 20.17973,-37.013 19.78323,-37.013 19.38863,-37.013 C 18.81543,-36.949 18.40043,-36.91 18.13673,-36.91 C 15.49803,-36.67 13.32223,-36.232 11.60843,-35.584 C 9.89253,-34.935 8.17871,-33.877 6.46289,-32.41 C 3.51757,-29.986 1.51562,-26.828 0.46289,-22.937 C 0.46289,-22.937 0.13184,-21.092 0.13184,-21.092 C 0.13184,-21.092 0.06543,-20.379 0.06543,-20.379 C 0.06543,-20.379 0,-19.656 0,-19.656 C 0,-18.904 0,-18.14 0,-17.355 C 0.12988,-16.674 0.21972,-16.179 0.26367,-15.867 C 0.66015,-13.447 1.38476,-11.322 2.4414,-9.494 C 3.49511,-7.67 4.8789,-6.076 6.59668,-4.709 C 10.37793,-1.57 14.66313,0 19.45603,0 C 20.42093,0 21.47563,-0.049 22.62013,-0.152 C 26.09573,-0.562 29.06053,-1.601 31.52443,-3.271 C 31.52443,-3.271 32.38083,-3.883 32.38083,-3.883 C 32.38083,-3.883 34.09573,-5.164 34.09573,-5.164 C 35.67673,-6.353 36.47073,-7.344 36.47073,-8.127 C 36.47073,-8.363 36.33793,-8.658 36.07323,-8.996 C 35.80863,-9.234 35.47953,-9.353 35.08593,-9.353 C 34.73343,-9.353 34.48923,-9.275 34.35933,-9.103 C 34.35933,-9.103 33.30473,-7.701 33.30473,-7.701 C 32.33693,-6.262 30.73243,-4.961 28.48923,-3.793 C 27.43363,-3.289 26.37983,-2.89 25.32523,-2.59 C 23.25783,-2.086 21.72073,-1.838 20.70893,-1.838 C 19.74123,-1.838 18.81833,-2.054 17.93843,-2.496 C 17.93843,-2.496 18.06933,-34.762 18.06933,-34.762 C 18.86133,-35.199 19.71973,-35.422 20.64253,-35.422 C 21.65333,-35.422 23.22363,-35.158 25.35543,-34.631 C 27.48823,-34.105 29.52153,-33.146 31.45893,-31.754 C 32.38083,-31.008 33.17283,-30.279 33.83103,-29.564 C 34.48923,-28.851 34.99613,-28.207 35.34763,-27.627 C 35.34763,-27.627 35.41503,-27.424 35.41503,-27.424 C 35.41503,-27.424 36.00883,-26.148 36.00883,-26.148 C 36.00883,-26.148 36.60063,-25.181 36.60063,-25.181 C 36.77543,-24.844 37.10453,-24.773 37.59183,-24.976 C 37.98633,-25.148 38.18453,-25.457 38.18453,-25.898 C 38.18453,-26.242 38.00883,-26.791 37.65723,-27.541 z"
             id="path2795"
             style="fill:#000000;fill-opacity:1;fill-rule:nonzero;stroke:none" /></g></g><g
         id="g2797"><g
           transform="translate(41.4004,30.746)"
           id="g2799"><path
             d="M 25.0615,-1.275 C 25.2812,-1.484 25.3906,-1.756 25.3906,-2.092 C 25.3906,-2.641 25.0596,-3.066 24.4004,-3.375 C 24.4004,-3.375 23.4775,-3.68 23.4775,-3.68 C 23.0371,-3.68 22.6308,-3.644 22.2568,-3.57 C 21.8848,-3.5 21.3457,-3.308 20.6435,-2.986 C 20.3779,-2.912 20.1592,-2.877 19.9824,-2.877 C 19.2773,-2.877 18.4648,-3.172 17.543,-3.748 C 16.3555,-4.498 15.1445,-5.641 13.915,-7.176 C 13.915,-7.176 12.9932,-8.4 12.9932,-8.4 C 12.9932,-8.4 12.9932,-10.807 12.9932,-10.807 C 12.9932,-10.807 13.2373,-12.803 13.2373,-12.803 C 13.2373,-12.803 13.2373,-14.437 13.2373,-14.437 C 13.2373,-14.437 13.2373,-16.434 13.2373,-16.434 C 13.2373,-16.434 13.2373,-16.793 13.2373,-16.793 C 13.2373,-16.793 13.2373,-19.98 13.2373,-19.98 C 13.2373,-19.98 13.2373,-23.592 13.2373,-23.592 C 13.2373,-23.592 13.2373,-27.826 13.2373,-27.826 C 12.3144,-27.756 11.2627,-27.705 10.0762,-27.672 C 8.8896,-27.637 7.7275,-27.615 6.5859,-27.615 C 4.3887,-27.615 2.1943,-27.728 0,-27.949 C 0,-27.949 0.123,-22.853 0.123,-22.853 C 0.123,-22.853 0.123,-21.451 0.123,-21.451 C 0.123,-21.451 0.123,-18.754 0.123,-18.754 C 0.123,-18.754 0.123,-15.004 0.123,-15.004 C 0.123,-15.004 0.123,-6.113 0.123,-6.113 C 0.123,-6.113 0.123,-5.392 0.123,-5.392 C 0.123,-5.392 0.123,-3.557 0.123,-3.557 C 0.123,-3.557 0.123,-2.209 0.123,-2.209 C 0.123,-2.209 0.123,-0.83 0.123,-0.83 C 0.123,-0.83 1.1748,-0.879 1.1748,-0.879 C 1.1748,-0.879 3.2734,-0.934 3.2734,-0.934 C 3.2734,-0.934 8.5264,-0.934 8.5264,-0.934 C 9.0508,-0.934 9.4453,-0.934 9.709,-0.934 C 10.7588,-0.934 11.874,-0.879 13.0566,-0.775 C 13.0566,-0.775 12.9932,-1.928 12.9932,-1.928 C 12.9932,-1.928 12.9932,-3.189 12.9932,-3.189 C 12.9932,-3.189 12.9932,-4.412 12.9932,-4.412 C 12.9932,-4.412 12.9932,-5.392 12.9932,-5.392 C 12.9932,-5.392 14.3115,-3.994 14.3115,-3.994 C 15.4101,-2.932 16.4873,-2.101 17.543,-1.498 C 19.3017,-0.498 20.7969,0 22.0273,0 C 22.8642,0 23.6543,-0.24 24.4004,-0.713 C 24.4004,-0.713 25.0615,-1.275 25.0615,-1.275 z"
             id="path2801"
             style="fill:#000000;fill-opacity:1;fill-rule:nonzero;stroke:none" /></g></g><g
         id="g2803"><g
           transform="translate(66.8643,30.777)"
           id="g2805"><path
             d="M 29.4775,-12.068 C 29.6953,-13.025 29.8086,-13.697 29.8086,-14.07 C 29.8086,-14.791 29.4882,-15.209 28.8486,-15.33 C 28.207,-15.449 26.6337,-15.507 24.1211,-15.507 C 24.1211,-15.507 17.9072,-15.507 17.9072,-15.507 C 17.9072,-15.507 11.8877,-15.353 11.8877,-15.353 C 11.8877,-15.353 11.8877,-26.33 11.8877,-26.33 C 12.8584,-26.777 13.9609,-27 15.1962,-27 C 15.5009,-27 15.8339,-27 16.1875,-27 C 16.7168,-26.896 17.1132,-26.824 17.3769,-26.791 C 19.1875,-26.455 21.0586,-25.548 23,-24.086 C 23.4384,-23.779 23.9013,-23.388 24.3877,-22.91 C 25.0918,-22.265 25.6425,-21.65 26.0419,-21.072 C 26.0419,-21.072 26.7666,-19.998 26.7666,-19.998 C 26.9443,-19.761 27.2988,-19.642 27.8261,-19.642 C 28.1796,-19.642 28.4765,-19.734 28.7177,-19.923 C 28.9619,-20.111 29.083,-20.373 29.083,-20.709 C 29.083,-21.254 28.7421,-21.908 28.0595,-22.67 C 27.3779,-23.429 26.1259,-24.49 24.3027,-25.843 C 22.4755,-27.201 19.916,-28.082 16.6191,-28.486 C 16.2236,-28.558 15.8046,-28.589 15.3652,-28.589 C 14.9238,-28.589 14.5947,-28.589 14.3769,-28.589 C 12.3974,-28.589 10.4746,-28.213 8.6054,-27.465 C 6.7353,-26.715 4.9677,-25.381 3.2988,-23.465 C 2.7246,-22.82 2.2509,-22.158 1.8789,-21.494 C 1.5039,-20.828 1.164,-20.052 0.8574,-19.166 C 0.5488,-18.277 0.3291,-17.414 0.1972,-16.576 C 0.0634,-15.74 0,-14.873 0,-13.984 C 0,-11.56 0.5712,-9.353 1.7128,-7.351 C 2.8584,-5.355 4.539,-3.689 6.7578,-2.355 C 8.9775,-1.025 11.164,-0.257 13.3212,-0.052 C 13.5839,-0.017 13.8496,0 14.1132,0 C 14.4628,0 14.7041,0 14.8398,0 C 17.6064,0 20.2451,-0.703 22.7529,-2.105 C 23.9824,-2.826 25.0918,-3.742 26.082,-4.855 C 27.0693,-5.966 27.8711,-7.275 28.4882,-8.781 C 28.663,-9.021 28.7968,-9.349 28.8837,-9.757 C 28.8837,-9.757 29.4775,-12.068 29.4775,-12.068 z M 18.3847,-13.011 C 18.3847,-13.011 18.3847,-6.502 18.3847,-6.502 C 18.3847,-6.502 18.3847,-3.994 18.3847,-3.994 C 18.2998,-3.447 17.9804,-2.959 17.4287,-2.535 C 16.8779,-2.105 16.2617,-1.877 15.5839,-1.838 C 14.3496,-1.838 13.4277,-2.199 12.8125,-2.918 C 12.1953,-3.634 11.8877,-4.828 11.8877,-6.502 C 11.8877,-7.736 11.8877,-8.826 11.8877,-9.785 C 11.8877,-10.742 11.8877,-11.853 11.8877,-13.117 C 11.8877,-13.117 13.4326,-13.269 13.4326,-13.269 C 13.9902,-13.269 14.3984,-13.269 14.6543,-13.269 C 15.2548,-13.269 15.875,-13.252 16.5205,-13.216 C 17.164,-13.183 17.7851,-13.117 18.3847,-13.011 z"
             id="path2807"
             style="fill:#000000;fill-opacity:1;fill-rule:nonzero;stroke:none" /></g></g><g
         id="g2809"><g
           transform="translate(99.4805,30.746)"
           id="g2811"><path
             d="M 22.4215,-3.375 C 22.5515,-3.652 22.5315,-3.908 22.3535,-4.144 C 22.1775,-4.383 21.9155,-4.537 21.5625,-4.605 C 21.3865,-4.642 21.1675,-4.656 20.9035,-4.656 C 20.6405,-4.656 20.3525,-4.564 20.0455,-4.375 C 19.7385,-4.187 19.0995,-3.767 18.1355,-3.121 C 17.7385,-2.846 17.2545,-2.623 16.6825,-2.455 C 16.1135,-2.283 15.1915,-2.1 13.9145,-1.889 C 13.2085,-1.82 12.6605,-1.807 12.2645,-1.842 C 11.5185,-1.842 11.1455,-2.182 11.1455,-2.867 C 11.1455,-3.004 11.2205,-3.326 11.3745,-3.84 C 11.5255,-4.351 11.9345,-4.969 12.5955,-5.685 C 12.5955,-5.685 14.3095,-7.635 14.3095,-7.635 C 14.3095,-7.635 14.4435,-7.789 14.4435,-7.789 C 14.4435,-7.789 19.1895,-12.355 19.1895,-12.355 C 19.1895,-12.355 20.1145,-13.275 20.1145,-13.275 C 22.5745,-15.873 23.8045,-18.336 23.8045,-20.66 C 23.8045,-22.881 22.7065,-24.756 20.5085,-26.275 C 18.3095,-27.797 14.9885,-28.558 10.5505,-28.558 C 8.8795,-28.558 7.0555,-28.226 5.0765,-27.568 C 4.4595,-27.32 3.8655,-27.088 3.2945,-26.865 C 2.7235,-26.639 2.3075,-26.42 2.0425,-26.211 C 1.2505,-25.721 0.7225,-25.344 0.459,-25.062 C 0.1953,-24.785 0.041,-24.523 0,-24.277 C 0,-24.002 0.042,-23.81 0.1299,-23.705 C 0.3925,-23.184 0.7435,-22.922 1.1865,-22.922 C 1.6695,-22.922 2.4165,-23.289 3.4285,-24.027 C 3.8225,-24.305 4.2505,-24.592 4.7135,-24.891 C 5.1745,-25.189 5.6505,-25.43 6.1295,-25.6 C 6.1295,-25.6 8.7695,-26.598 8.7695,-26.598 C 9.5175,-26.844 10.1965,-26.969 10.8135,-26.969 C 11.2965,-26.969 11.7575,-26.883 12.1985,-26.707 C 12.6815,-26.434 12.9245,-26.06 12.9245,-25.576 C 12.9245,-25.336 12.8565,-25.113 12.7255,-24.904 C 12.7255,-24.904 11.9345,-23.828 11.9345,-23.828 C 11.9345,-23.828 10.6805,-22.385 10.6805,-22.385 C 10.6805,-22.385 8.2425,-19.812 8.2425,-19.812 C 8.2425,-19.812 8.0445,-19.607 8.0445,-19.607 C 8.0445,-19.607 6.9215,-18.476 6.9215,-18.476 C 6.9215,-18.476 5.2075,-16.725 5.2075,-16.725 C 4.9435,-16.449 4.7455,-16.262 4.6145,-16.158 C 4.4385,-15.99 4.2615,-15.781 4.0865,-15.541 C 3.6035,-14.992 3.1545,-14.437 2.7355,-13.871 C 2.3175,-13.303 1.9985,-12.85 1.7795,-12.504 C 0.7225,-10.689 0.1953,-9.178 0.1953,-7.978 C 0.1953,-6.779 0.7435,-5.473 1.8445,-4.066 C 2.7665,-2.969 3.8225,-2.119 5.0125,-1.519 C 6.1985,-0.916 7.7585,-0.48 9.6925,-0.203 C 10.5285,-0.072 11.4715,0 12.5305,0 C 13.7575,0 15.0785,-0.148 16.4875,-0.435 C 17.4505,-0.613 18.0875,-0.758 18.3965,-0.867 C 18.6175,-0.939 19.0135,-1.101 19.5855,-1.351 C 20.5505,-1.814 21.2335,-2.182 21.6295,-2.455 C 22.0235,-2.73 22.2895,-3.035 22.4215,-3.375 z"
             id="path2813"
             style="fill:#000000;fill-opacity:1;fill-rule:nonzero;stroke:none" /></g></g><g
         id="g2815"><g
           transform="translate(126.254,30.746)"
           id="g2817"><path
             d="M 28.686,-19.734 C 28.951,-20.242 29.085,-20.68 29.085,-21.051 C 29.085,-21.967 27.786,-23.406 25.193,-25.367 C 23.96,-26.312 22.268,-27.105 20.116,-27.75 C 18.31,-28.287 16.465,-28.558 14.576,-28.558 C 11.014,-28.558 7.98,-27.605 5.474,-25.699 C 2.793,-23.656 1.055,-20.777 0.266,-17.064 C 0.09,-16.252 0,-15.312 0,-14.252 C 0,-13.812 0,-13.435 0,-13.131 C 0,-12.826 0.09,-12.26 0.266,-11.445 C 1.055,-7.937 2.846,-5.154 5.639,-3.094 C 8.431,-1.033 11.631,0 15.235,0 C 15.851,0 16.31,-0.017 16.619,-0.053 C 18.509,-0.223 20.025,-0.516 21.169,-0.926 C 22.311,-1.334 23.719,-2.119 25.392,-3.285 C 25.392,-3.285 26.447,-4.049 26.447,-4.049 C 27.501,-4.975 28.029,-5.709 28.029,-6.258 C 28.029,-6.531 27.885,-6.803 27.6,-7.076 C 27.312,-7.351 26.972,-7.484 26.577,-7.484 C 26.31,-7.484 26.115,-7.42 25.985,-7.283 C 25.985,-7.283 24.864,-5.74 24.864,-5.74 C 24.335,-5.057 23.651,-4.447 22.818,-3.92 C 21.982,-3.389 20.86,-2.908 19.455,-2.478 C 18.045,-2.055 16.859,-1.842 15.893,-1.842 C 15.234,-1.842 14.728,-1.842 14.377,-1.842 C 14.377,-1.842 14.311,-5.455 14.311,-5.455 C 14.311,-5.455 14.245,-8.609 14.245,-8.609 C 14.245,-8.609 14.245,-10.42 14.245,-10.42 C 14.245,-10.42 14.245,-13.117 14.245,-13.117 C 14.245,-13.117 14.245,-17.547 14.245,-17.547 C 14.245,-17.547 14.178,-19.432 14.178,-19.432 C 14.178,-19.432 14.245,-21.982 14.245,-21.982 C 14.245,-21.982 14.245,-24.273 14.245,-24.273 C 14.245,-24.273 14.311,-26.721 14.311,-26.721 C 14.617,-26.721 15.1,-26.721 15.763,-26.721 C 16.729,-26.721 17.588,-26.621 18.334,-26.426 C 19.081,-26.23 20.182,-25.771 21.632,-25.049 C 22.731,-24.558 23.544,-24.105 24.072,-23.693 C 24.599,-23.285 25.06,-22.803 25.457,-22.244 C 25.852,-21.685 26.205,-21.16 26.514,-20.67 C 26.642,-20.437 26.753,-20.26 26.841,-20.129 C 26.972,-19.865 27.39,-19.734 28.094,-19.734 C 28.313,-19.734 28.513,-19.734 28.686,-19.734 z"
             id="path2819"
             style="fill:#000000;fill-opacity:1;fill-rule:nonzero;stroke:none" /></g></g><g
         id="g2821"><g
           transform="translate(158.136,30.777)"
           id="g2823"><path
             d="M 29.477,-12.068 C 29.696,-13.025 29.806,-13.697 29.806,-14.07 C 29.806,-14.791 29.487,-15.209 28.846,-15.33 C 28.209,-15.449 26.634,-15.507 24.123,-15.507 C 24.123,-15.507 17.907,-15.507 17.907,-15.507 C 17.907,-15.507 11.89,-15.353 11.89,-15.353 C 11.89,-15.353 11.89,-26.33 11.89,-26.33 C 12.858,-26.777 13.961,-27 15.196,-27 C 15.504,-27 15.835,-27 16.189,-27 C 16.717,-26.896 17.113,-26.824 17.379,-26.791 C 19.185,-26.455 21.057,-25.548 22.998,-24.086 C 23.44,-23.779 23.901,-23.388 24.387,-22.91 C 25.093,-22.265 25.644,-21.65 26.042,-21.072 C 26.042,-21.072 26.769,-19.998 26.769,-19.998 C 26.944,-19.761 27.298,-19.642 27.827,-19.642 C 28.178,-19.642 28.476,-19.734 28.719,-19.923 C 28.96,-20.111 29.083,-20.373 29.083,-20.709 C 29.083,-21.254 28.742,-21.908 28.061,-22.67 C 27.379,-23.429 26.127,-24.49 24.301,-25.843 C 22.477,-27.201 19.916,-28.082 16.62,-28.486 C 16.223,-28.558 15.804,-28.589 15.366,-28.589 C 14.925,-28.589 14.595,-28.589 14.378,-28.589 C 12.397,-28.589 10.474,-28.213 8.605,-27.465 C 6.735,-26.715 4.968,-25.381 3.299,-23.465 C 2.725,-22.82 2.253,-22.158 1.879,-21.494 C 1.506,-20.828 1.165,-20.052 0.857,-19.166 C 0.549,-18.277 0.329,-17.414 0.198,-16.576 C 0.065,-15.74 0,-14.873 0,-13.984 C 0,-11.56 0.571,-9.353 1.715,-7.351 C 2.858,-5.355 4.54,-3.689 6.758,-2.355 C 8.979,-1.025 11.166,-0.257 13.323,-0.052 C 13.583,-0.017 13.847,0 14.112,0 C 14.465,0 14.704,0 14.838,0 C 17.608,0 20.245,-0.703 22.751,-2.105 C 23.982,-2.826 25.093,-3.742 26.08,-4.855 C 27.067,-5.966 27.87,-7.275 28.487,-8.781 C 28.665,-9.021 28.796,-9.349 28.884,-9.757 C 28.884,-9.757 29.477,-12.068 29.477,-12.068 z M 18.385,-13.011 C 18.385,-13.011 18.385,-6.502 18.385,-6.502 C 18.385,-6.502 18.385,-3.994 18.385,-3.994 C 18.298,-3.447 17.982,-2.959 17.429,-2.535 C 16.879,-2.105 16.261,-1.877 15.583,-1.838 C 14.351,-1.838 13.426,-2.199 12.812,-2.918 C 12.195,-3.634 11.89,-4.828 11.89,-6.502 C 11.89,-7.736 11.89,-8.826 11.89,-9.785 C 11.89,-10.742 11.89,-11.853 11.89,-13.117 C 11.89,-13.117 13.432,-13.269 13.432,-13.269 C 13.99,-13.269 14.398,-13.269 14.655,-13.269 C 15.254,-13.269 15.878,-13.252 16.52,-13.216 C 17.163,-13.183 17.783,-13.117 18.385,-13.011 z"
             id="path2825"
             style="fill:#000000;fill-opacity:1;fill-rule:nonzero;stroke:none" /></g></g><g
         id="g2827"><g
           transform="translate(192.685,30.865)"
           id="g2829"><path
             d="M 34.317,-28.068 C 34.317,-28.068 20.836,-28.068 20.836,-28.068 C 20.836,-28.068 20.957,-22.763 20.957,-22.763 C 20.957,-22.763 20.957,-18.08 20.957,-18.08 C 20.957,-18.08 20.957,-13.963 20.957,-13.963 C 20.957,-13.963 20.957,-8.506 20.957,-8.506 C 20.957,-8.506 20.957,-3.771 20.957,-3.771 C 20.826,-3.494 20.605,-3.273 20.296,-3.099 C 19.988,-2.927 19.679,-2.842 19.373,-2.842 C 18.755,-2.842 17.611,-3.342 15.941,-4.334 C 15.503,-4.607 15.029,-4.961 14.521,-5.388 C 14.017,-5.818 13.587,-6.254 13.236,-6.699 C 13.236,-6.699 13.236,-8.701 13.236,-8.701 C 13.236,-8.701 13.236,-10.908 13.236,-10.908 C 13.236,-10.908 13.236,-13.113 13.236,-13.113 C 13.236,-13.113 13.236,-14.957 13.236,-14.957 C 13.236,-14.957 13.236,-16.136 13.236,-16.136 C 13.236,-16.136 13.236,-19.219 13.236,-19.219 C 13.236,-19.219 13.481,-23.326 13.481,-23.326 C 13.481,-23.326 13.481,-24.81 13.481,-24.81 C 13.481,-24.81 13.481,-27.943 13.481,-27.943 C 11.508,-27.806 9.251,-27.734 6.709,-27.734 C 5.567,-27.734 4.633,-27.734 3.911,-27.734 C 3.187,-27.734 1.883,-27.847 0,-28.068 C 0,-28.068 0.366,-23.058 0.366,-23.058 C 0.366,-23.058 0.366,-18.629 0.366,-18.629 C 0.366,-18.629 0.366,-16.545 0.366,-16.545 C 0.366,-16.545 0.366,-9.623 0.366,-9.623 C 0.366,-9.623 0.366,-5.146 0.366,-5.146 C 0.366,-5.146 0,-1.027 0,-1.027 C 0,-1.027 13.123,-1.027 13.123,-1.027 C 13.123,-1.027 13.236,-1.644 13.236,-1.644 C 13.236,-1.644 13.236,-2.211 13.236,-2.211 C 13.236,-2.211 13.236,-4.267 13.236,-4.267 C 13.236,-4.267 13.565,-3.963 13.565,-3.963 C 13.565,-3.963 13.762,-3.754 13.762,-3.754 C 14.11,-3.41 14.669,-3.01 15.437,-2.543 C 16.201,-2.08 16.959,-1.699 17.705,-1.388 C 19.196,-0.703 20.726,-0.299 22.305,-0.177 C 23.884,-0.06 25.087,0 25.921,0 C 27.629,0 28.965,-0.222 29.932,-0.676 C 30.895,-1.127 31.814,-1.926 32.692,-3.072 C 33.175,-3.732 33.525,-4.408 33.743,-5.105 C 33.961,-5.801 34.072,-7 34.072,-8.701 C 34.072,-8.701 34.072,-9.568 34.072,-9.568 C 34.072,-9.568 34.072,-9.98 34.072,-9.98 C 34.072,-9.98 34.072,-12.437 34.072,-12.437 C 34.072,-12.437 34.072,-13.875 34.072,-13.875 C 34.072,-13.875 34.072,-15.205 34.072,-15.205 C 34.072,-15.855 34.113,-17.179 34.193,-19.177 C 34.276,-21.174 34.317,-22.89 34.317,-24.324 C 34.317,-24.324 34.317,-26.992 34.317,-26.992 C 34.317,-26.992 34.317,-28.068 34.317,-28.068 z"
             id="path2831"
             style="fill:#000000;fill-opacity:1;fill-rule:nonzero;stroke:none" /></g></g><g
         id="g2833"><g
           transform="translate(230.488,38.863)"
           id="g2835"><path
             d="M 23.938,-28.931 C 24.377,-29.035 24.599,-29.342 24.599,-29.849 C 24.599,-30.226 24.434,-30.679 24.106,-31.205 C 23.776,-31.732 23.219,-32.353 22.432,-33.066 C 21.644,-33.783 20.869,-34.334 20.104,-34.724 C 19.336,-35.115 18.235,-35.496 16.789,-35.871 C 15.346,-36.244 14.012,-36.433 12.788,-36.433 C 11.561,-36.433 10.403,-36.244 9.312,-35.871 C 6.948,-35.047 5.438,-33.675 4.783,-31.75 C 4.126,-29.826 3.799,-25.98 3.799,-20.217 C 3.799,-20.217 3.799,-15.355 3.799,-15.355 C 3.799,-15.355 3.799,-14.281 3.799,-14.281 C 3.799,-14.281 3.799,-12.949 3.799,-12.949 C 3.799,-12.949 3.799,-12.287 3.799,-12.287 C 3.799,-12.287 3.799,-11.429 3.799,-11.429 C 3.799,-11.429 3.23,-11.429 3.23,-11.429 C 1.962,-11.429 1.108,-11.343 0.664,-11.172 C 0.223,-11.004 0,-10.64 0,-10.099 C 0,-9.759 0.139,-9.486 0.417,-9.283 C 0.7,-9.082 0.944,-8.974 1.159,-8.974 C 1.159,-8.974 2.188,-8.974 2.188,-8.974 C 2.188,-8.974 3.735,-8.974 3.735,-8.974 C 3.735,-8.974 3.799,-7.875 3.799,-7.875 C 3.799,-7.875 3.799,-6.623 3.799,-6.623 C 3.799,-6.623 4.022,-5.943 4.022,-5.943 C 4.022,-5.943 4.022,-5.211 4.022,-5.211 C 4.022,-5.211 5.935,-4.484 5.935,-4.484 C 5.935,-4.484 7.056,-4.009 7.056,-4.009 C 7.056,-4.009 9.429,-2.972 9.429,-2.972 C 9.429,-2.972 11.935,-2.033 11.935,-2.033 C 13.649,-1.476 14.849,-1.049 15.532,-0.754 C 16.211,-0.459 16.685,-0.205 16.95,0 C 17.3,-0.242 17.475,-0.695 17.475,-1.353 C 17.475,-1.703 17.385,-2.238 17.207,-2.972 C 16.848,-4.222 16.669,-5.875 16.669,-7.922 C 16.669,-7.922 16.669,-8.525 16.669,-8.525 C 16.669,-8.525 16.669,-9.025 16.669,-9.025 C 16.669,-9.025 19.501,-8.974 19.501,-8.974 C 20.745,-8.974 21.551,-9.033 21.918,-9.152 C 22.286,-9.265 22.586,-9.558 22.817,-10.023 C 22.95,-10.394 22.903,-10.713 22.679,-10.976 C 22.456,-11.244 22.163,-11.394 21.803,-11.429 C 21.803,-11.429 20.52,-11.429 20.52,-11.429 C 20.52,-11.429 19.641,-11.429 19.641,-11.429 C 18.877,-11.429 18.278,-11.429 17.852,-11.429 C 17.422,-11.429 17.03,-11.429 16.669,-11.429 C 16.669,-11.429 16.669,-12.406 16.669,-12.406 C 16.669,-12.406 16.669,-13.39 16.669,-13.39 C 16.669,-13.39 16.669,-15.683 16.669,-15.683 C 16.669,-15.683 16.669,-16.705 16.669,-16.705 C 16.669,-16.705 16.545,-27.22 16.545,-27.22 C 16.545,-28.375 16.545,-29.322 16.545,-30.056 C 16.545,-30.785 16.601,-31.543 16.71,-32.326 C 16.821,-33.111 17.273,-33.42 18.067,-33.244 C 18.503,-33.144 18.889,-33 19.218,-32.812 C 19.549,-32.627 20.043,-32.263 20.704,-31.724 C 20.969,-31.488 21.21,-31.215 21.43,-30.912 C 21.649,-30.607 21.936,-30.199 22.288,-29.695 C 22.288,-29.695 22.617,-29.24 22.617,-29.24 C 22.706,-28.968 22.971,-28.832 23.409,-28.832 C 23.629,-28.832 23.803,-28.869 23.938,-28.931 z"
             id="path2837"
             style="fill:#000000;fill-opacity:1;fill-rule:nonzero;stroke:none" /></g></g><g
         id="g2839"><g
           transform="translate(277.729,37.334)"
           id="g2841"><path
             d="M 34.12,-16.465 C 33.954,-17.834 33.789,-18.914 33.626,-19.715 C 33.459,-20.518 33.232,-21.211 32.944,-21.789 C 32.408,-22.85 31.85,-23.754 31.273,-24.506 C 30.693,-25.26 30.035,-25.924 29.292,-26.504 C 28.053,-27.533 26.877,-28.266 25.763,-28.711 C 24.651,-29.154 23.412,-29.441 22.048,-29.578 C 20.687,-29.717 19.554,-29.785 18.646,-29.785 C 17.407,-29.785 16.232,-29.703 15.118,-29.537 C 15.118,-29.537 15.118,-30.248 15.118,-30.248 C 15.118,-30.248 15.118,-31.061 15.118,-31.061 C 15.118,-31.873 15.118,-32.695 15.118,-33.522 C 15.118,-34.352 15.138,-35.188 15.181,-36.035 C 15.181,-36.035 14.688,-35.939 14.688,-35.939 C 14.688,-35.939 14.441,-35.895 14.441,-35.895 C 14.441,-35.895 11.726,-35.846 11.726,-35.846 C 11.726,-35.846 8.887,-35.801 8.887,-35.801 C 8.887,-35.801 5.925,-35.709 5.925,-35.709 C 4.483,-35.709 3.405,-35.723 2.683,-35.76 C 1.963,-35.795 1.092,-35.881 0.062,-36.014 C 0.062,-36.014 0.125,-33.703 0.125,-33.703 C 0.125,-33.703 0.125,-31.705 0.125,-31.705 C 0.125,-31.705 0.186,-30.729 0.186,-30.729 C 0.186,-30.729 0.248,-27.91 0.248,-27.91 C 0.248,-27.91 0.309,-26.777 0.309,-26.777 C 0.309,-26.777 0.309,-22.469 0.309,-22.469 C 0.309,-22.469 0.309,-17.186 0.309,-17.186 C 0.309,-17.186 0.309,-11.643 0.309,-11.643 C 0.309,-11.643 0.309,-8.211 0.309,-8.211 C 0.309,-8.211 0.248,-6.273 0.248,-6.273 C 0.248,-6.273 0,0 0,0 C 0,0 1.175,-0.061 1.175,-0.061 C 1.175,-0.061 2.104,-0.123 2.104,-0.123 C 2.104,-0.123 3.709,-0.123 3.709,-0.123 C 3.709,-0.123 6.121,-0.123 6.121,-0.123 C 6.121,-0.123 11.436,-0.123 11.436,-0.123 C 11.436,-0.123 14.218,-0.123 14.218,-0.123 C 14.218,-0.123 15.825,-0.123 15.825,-0.123 C 15.825,-0.123 18.296,-0.123 18.296,-0.123 C 19.74,-0.123 21.004,-0.25 22.098,-0.506 C 23.188,-0.764 24.456,-1.232 25.9,-1.916 C 26.229,-2.053 26.548,-2.225 26.857,-2.426 C 27.167,-2.633 27.488,-2.838 27.817,-3.043 C 29.054,-3.896 30.039,-4.748 30.784,-5.605 C 31.525,-6.459 32.245,-7.586 32.946,-8.984 C 33.811,-10.795 34.245,-12.588 34.245,-14.363 C 34.245,-14.707 34.245,-14.961 34.245,-15.133 C 34.245,-15.371 34.245,-15.596 34.245,-15.797 C 34.16,-16.105 34.12,-16.328 34.12,-16.465 z M 32.284,-13.59 C 32.284,-13.182 32.22,-12.746 32.097,-12.289 C 31.972,-11.826 31.889,-11.477 31.848,-11.24 C 31.31,-9.434 30.549,-7.986 29.555,-6.896 C 28.317,-5.602 27.232,-4.654 26.303,-4.063 C 25.373,-3.465 24.205,-2.996 22.801,-2.656 C 21.395,-2.316 19.62,-2.043 17.473,-1.836 C 17.473,-1.836 16.295,-1.836 16.295,-1.836 C 16.295,-1.836 15.798,-1.836 15.798,-1.836 C 15.798,-1.836 15.18,-1.836 15.18,-1.836 C 15.18,-1.836 15.118,-4.541 15.118,-4.541 C 15.118,-4.541 15.118,-7.191 15.118,-7.191 C 15.118,-7.191 15.118,-17.135 15.118,-17.135 C 15.118,-17.135 15.181,-22.133 15.181,-22.133 C 15.181,-22.133 15.181,-24.375 15.181,-24.375 C 15.181,-24.375 15.181,-27.076 15.181,-27.076 C 16.338,-27.656 17.659,-27.947 19.146,-27.947 C 20.303,-27.947 21.821,-27.758 23.701,-27.385 C 25.582,-27.008 27.22,-26.131 28.627,-24.752 C 30.032,-23.373 31.106,-21.439 31.85,-18.951 C 32.056,-18.41 32.177,-17.693 32.22,-16.809 C 32.263,-15.924 32.284,-14.852 32.284,-13.59 z"
             id="path2843"
             style="fill:#000000;fill-opacity:1;fill-rule:nonzero;stroke:none" /></g></g><g
         id="g2845"><g
           transform="translate(316.777,29.275)"
           id="g2847"><path
             d="M 27.584,-12.064 C 27.786,-13.025 27.892,-13.693 27.892,-14.07 C 27.892,-14.787 27.591,-15.209 26.994,-15.326 C 26.395,-15.445 24.926,-15.507 22.579,-15.507 C 22.579,-15.507 16.774,-15.507 16.774,-15.507 C 16.774,-15.507 11.156,-15.349 11.156,-15.349 C 11.156,-15.349 11.156,-26.33 11.156,-26.33 C 12.061,-26.773 13.091,-26.996 14.244,-26.996 C 14.532,-26.996 14.84,-26.996 15.169,-26.996 C 15.664,-26.896 16.033,-26.824 16.282,-26.789 C 17.968,-26.453 19.72,-25.552 21.531,-24.084 C 21.944,-23.775 22.375,-23.384 22.829,-22.908 C 23.486,-22.263 24.002,-21.65 24.374,-21.072 C 24.374,-21.072 25.049,-19.998 25.049,-19.998 C 25.215,-19.761 25.546,-19.642 26.04,-19.642 C 26.369,-19.642 26.645,-19.734 26.871,-19.923 C 27.098,-20.107 27.212,-20.371 27.212,-20.707 C 27.212,-21.25 26.896,-21.904 26.254,-22.666 C 25.617,-23.429 24.448,-24.49 22.739,-25.847 C 21.032,-27.201 18.635,-28.078 15.549,-28.486 C 15.179,-28.554 14.786,-28.589 14.378,-28.589 C 13.967,-28.589 13.659,-28.589 13.452,-28.589 C 11.602,-28.589 9.8,-28.213 8.053,-27.464 C 6.305,-26.711 4.651,-25.38 3.085,-23.468 C 2.551,-22.816 2.109,-22.158 1.76,-21.492 C 1.41,-20.828 1.09,-20.048 0.802,-19.162 C 0.514,-18.273 0.307,-17.41 0.185,-16.576 C 0.062,-15.736 0,-14.877 0,-13.984 C 0,-11.56 0.535,-9.349 1.605,-7.353 C 2.67,-5.355 4.246,-3.689 6.326,-2.355 C 8.403,-1.025 10.452,-0.257 12.465,-0.052 C 12.712,-0.017 12.959,0 13.206,0 C 13.536,0 13.761,0 13.883,0 C 16.475,0 18.946,-0.703 21.29,-2.101 C 22.441,-2.826 23.478,-3.74 24.407,-4.851 C 25.33,-5.966 26.081,-7.271 26.658,-8.781 C 26.822,-9.021 26.946,-9.345 27.03,-9.754 C 27.03,-9.754 27.584,-12.064 27.584,-12.064 z M 17.283,-13.011 C 17.283,-13.011 17.283,-6.504 17.283,-6.504 C 17.283,-6.504 17.283,-3.992 17.283,-3.992 C 17.203,-3.445 16.902,-2.955 16.381,-2.531 C 15.862,-2.101 15.281,-1.873 14.639,-1.837 C 13.479,-1.837 12.606,-2.197 12.025,-2.914 C 11.444,-3.63 11.156,-4.828 11.156,-6.504 C 11.156,-7.732 11.156,-8.828 11.156,-9.785 C 11.156,-10.742 11.156,-11.849 11.156,-13.113 C 11.156,-13.113 12.612,-13.267 12.612,-13.267 C 13.134,-13.267 13.522,-13.267 13.763,-13.267 C 14.33,-13.267 14.916,-13.252 15.524,-13.213 C 16.129,-13.183 16.717,-13.113 17.283,-13.011 z"
             id="path2849"
             style="fill:#000000;fill-opacity:1;fill-rule:nonzero;stroke:none" /></g></g><g
         id="g2851"><g
           transform="translate(348.265,37.365)"
           id="g2853"><path
             d="M 22.394,-28.937 C 22.809,-29.041 23.014,-29.345 23.014,-29.853 C 23.014,-30.23 22.862,-30.679 22.555,-31.207 C 22.249,-31.732 21.725,-32.357 20.988,-33.07 C 20.255,-33.783 19.526,-34.334 18.809,-34.724 C 18.093,-35.117 17.059,-35.5 15.712,-35.871 C 14.36,-36.248 13.11,-36.433 11.964,-36.433 C 10.818,-36.433 9.736,-36.248 8.714,-35.871 C 6.504,-35.051 5.089,-33.679 4.477,-31.754 C 3.86,-29.826 3.553,-25.98 3.553,-20.217 C 3.553,-20.217 3.553,-15.359 3.553,-15.359 C 3.553,-15.359 3.553,-14.281 3.553,-14.281 C 3.553,-14.281 3.553,-12.951 3.553,-12.951 C 3.553,-12.951 3.553,-12.287 3.553,-12.287 C 3.553,-12.287 3.553,-11.429 3.553,-11.429 C 3.553,-11.429 3.022,-11.429 3.022,-11.429 C 1.838,-11.429 1.037,-11.347 0.622,-11.176 C 0.211,-11.004 0,-10.648 0,-10.103 C 0,-9.76 0.133,-9.488 0.39,-9.283 C 0.655,-9.082 0.884,-8.978 1.084,-8.978 C 1.084,-8.978 2.048,-8.978 2.048,-8.978 C 2.048,-8.978 3.495,-8.978 3.495,-8.978 C 3.495,-8.978 3.553,-7.875 3.553,-7.875 C 3.553,-7.875 3.553,-6.623 3.553,-6.623 C 3.553,-6.623 3.764,-5.943 3.764,-5.943 C 3.764,-5.943 3.764,-5.215 3.764,-5.215 C 3.764,-5.215 5.553,-4.486 5.553,-4.486 C 5.553,-4.486 6.603,-4.017 6.603,-4.017 C 6.603,-4.017 8.825,-2.972 8.825,-2.972 C 8.825,-2.972 11.17,-2.033 11.17,-2.033 C 12.774,-1.476 13.897,-1.053 14.531,-0.758 C 15.173,-0.463 15.613,-0.209 15.859,0 C 16.188,-0.246 16.355,-0.695 16.355,-1.353 C 16.355,-1.703 16.267,-2.242 16.089,-2.972 C 15.741,-4.226 15.566,-5.875 15.566,-7.922 C 15.566,-7.922 15.566,-8.525 15.566,-8.525 C 15.566,-8.525 15.566,-9.029 15.566,-9.029 C 15.566,-9.029 18.232,-8.978 18.232,-8.978 C 19.399,-8.978 20.159,-9.041 20.504,-9.152 C 20.851,-9.273 21.131,-9.56 21.348,-10.031 C 21.471,-10.398 21.43,-10.713 21.219,-10.98 C 21.008,-11.248 20.736,-11.398 20.395,-11.429 C 20.395,-11.429 19.188,-11.429 19.188,-11.429 C 19.188,-11.429 18.36,-11.429 18.36,-11.429 C 17.642,-11.429 17.079,-11.429 16.677,-11.429 C 16.274,-11.429 15.902,-11.429 15.566,-11.429 C 15.566,-11.429 15.566,-12.41 15.566,-12.41 C 15.566,-12.41 15.566,-13.39 15.566,-13.39 C 15.566,-13.39 15.566,-15.687 15.566,-15.687 C 15.566,-15.687 15.566,-16.705 15.566,-16.705 C 15.566,-16.705 15.443,-27.224 15.443,-27.224 C 15.443,-28.379 15.443,-29.326 15.443,-30.056 C 15.443,-30.789 15.496,-31.547 15.6,-32.328 C 15.704,-33.113 16.126,-33.42 16.873,-33.248 C 17.284,-33.148 17.649,-33.004 17.96,-32.816 C 18.269,-32.631 18.734,-32.267 19.355,-31.726 C 19.603,-31.488 19.828,-31.22 20.035,-30.914 C 20.243,-30.607 20.51,-30.203 20.842,-29.695 C 20.842,-29.695 21.155,-29.24 21.155,-29.24 C 21.237,-28.969 21.489,-28.836 21.9,-28.836 C 22.108,-28.836 22.272,-28.869 22.394,-28.937 z"
             id="path2855"
             style="fill:#000000;fill-opacity:1;fill-rule:nonzero;stroke:none" /></g></g><g
         id="g2857"><g
           transform="translate(375.267,29.244)"
           id="g2859"><path
             d="M 23.446,-1.275 C 23.652,-1.48 23.756,-1.756 23.756,-2.092 C 23.756,-2.637 23.446,-3.064 22.829,-3.371 C 22.829,-3.371 21.962,-3.676 21.962,-3.676 C 21.55,-3.676 21.167,-3.64 20.818,-3.572 C 20.468,-3.5 19.964,-3.305 19.305,-2.982 C 19.056,-2.91 18.849,-2.877 18.684,-2.877 C 18.024,-2.877 17.263,-3.168 16.399,-3.744 C 15.289,-4.494 14.154,-5.64 13,-7.176 C 13,-7.176 12.134,-8.4 12.134,-8.4 C 12.134,-8.4 12.134,-10.806 12.134,-10.806 C 12.134,-10.806 12.379,-12.799 12.379,-12.799 C 12.379,-12.799 12.379,-14.437 12.379,-14.437 C 12.379,-14.437 12.379,-16.432 12.379,-16.432 C 12.379,-16.432 12.379,-16.793 12.379,-16.793 C 12.379,-16.793 12.379,-19.976 12.379,-19.976 C 12.379,-19.976 12.379,-23.588 12.379,-23.588 C 12.379,-23.588 12.379,-27.822 12.379,-27.822 C 11.517,-27.752 10.53,-27.705 9.422,-27.67 C 8.313,-27.633 7.225,-27.619 6.159,-27.619 C 4.107,-27.619 2.053,-27.724 0,-27.945 C 0,-27.945 0.123,-22.853 0.123,-22.853 C 0.123,-22.853 0.123,-21.447 0.123,-21.447 C 0.123,-21.447 0.123,-18.75 0.123,-18.75 C 0.123,-18.75 0.123,-15 0.123,-15 C 0.123,-15 0.123,-6.109 0.123,-6.109 C 0.123,-6.109 0.123,-5.392 0.123,-5.392 C 0.123,-5.392 0.123,-3.553 0.123,-3.553 C 0.123,-3.553 0.123,-2.205 0.123,-2.205 C 0.123,-2.205 0.123,-0.826 0.123,-0.826 C 0.123,-0.826 1.104,-0.877 1.104,-0.877 C 1.104,-0.877 3.068,-0.93 3.068,-0.93 C 3.068,-0.93 7.979,-0.93 7.979,-0.93 C 8.467,-0.93 8.839,-0.93 9.085,-0.93 C 10.067,-0.93 11.109,-0.877 12.215,-0.775 C 12.215,-0.775 12.134,-1.928 12.134,-1.928 C 12.134,-1.928 12.134,-3.189 12.134,-3.189 C 12.134,-3.189 12.134,-4.412 12.134,-4.412 C 12.134,-4.412 12.134,-5.392 12.134,-5.392 C 12.134,-5.392 13.371,-3.994 13.371,-3.994 C 14.399,-2.928 15.41,-2.098 16.399,-1.498 C 18.045,-0.5 19.447,0 20.602,0 C 21.385,0 22.129,-0.24 22.829,-0.713 C 22.829,-0.713 23.446,-1.275 23.446,-1.275 z"
             id="path2861"
             style="fill:#000000;fill-opacity:1;fill-rule:nonzero;stroke:none" /></g></g><g
         id="g2863"><g
           transform="translate(401.444,29.244)"
           id="g2865"><path
             d="M 28.244,-16.154 C 27.996,-18.033 27.502,-19.644 26.762,-20.974 C 25.694,-22.961 24.472,-24.523 23.092,-25.668 C 21.713,-26.816 20.101,-27.642 18.251,-28.158 C 16.4,-28.668 14.696,-28.926 13.134,-28.926 C 8.818,-28.926 5.325,-26.943 2.656,-22.976 C 1.995,-21.951 1.458,-20.892 1.049,-19.795 C 0.634,-18.701 0.33,-17.506 0.123,-16.207 C 0.123,-16.207 0,-14.41 0,-14.41 C 0,-14.41 0.123,-12.564 0.123,-12.564 C 0.286,-11.094 0.666,-9.676 1.263,-8.31 C 1.862,-6.943 2.611,-5.746 3.517,-4.717 C 4.914,-3.109 6.373,-1.924 7.894,-1.156 C 9.414,-0.385 11.223,0 13.321,0 C 15.992,0 18.025,-0.24 19.423,-0.717 C 20.821,-1.197 22.425,-2.306 24.234,-4.053 C 25.425,-5.146 26.453,-6.635 27.317,-8.514 C 28.015,-10.254 28.367,-12.137 28.367,-14.152 C 28.367,-14.498 28.367,-14.752 28.367,-14.924 C 28.367,-15.129 28.367,-15.336 28.367,-15.537 C 28.283,-15.812 28.244,-16.021 28.244,-16.154 z M 26.406,-14.279 C 26.406,-12.473 26.077,-10.797 25.421,-9.26 C 25.176,-8.715 24.851,-8.142 24.441,-7.547 C 24.033,-6.949 23.619,-6.398 23.211,-5.883 C 22.433,-5.064 21.7,-4.389 21,-3.861 C 20.304,-3.332 19.586,-2.924 18.853,-2.633 C 18.116,-2.342 17.339,-2.137 16.52,-2.019 C 15.701,-1.9 14.862,-1.838 14.003,-1.838 C 14.003,-1.838 13.879,-4.512 13.879,-4.512 C 13.879,-4.512 13.82,-6.775 13.82,-6.775 C 13.82,-6.775 13.697,-15.881 13.697,-15.881 C 13.697,-15.881 13.697,-24.881 13.697,-24.881 C 13.697,-24.881 13.697,-25.494 13.697,-25.494 C 13.697,-25.494 13.634,-26.574 13.634,-26.574 C 14.21,-26.674 14.762,-26.721 15.294,-26.721 C 16.441,-26.721 17.73,-26.412 19.162,-25.799 C 19.732,-25.562 20.246,-25.299 20.696,-25.006 C 21.146,-24.715 21.7,-24.246 22.355,-23.594 C 22.598,-23.392 22.915,-23.058 23.304,-22.596 C 23.694,-22.137 23.989,-21.769 24.196,-21.496 C 25.666,-19.349 26.406,-16.939 26.406,-14.279 z"
             id="path2867"
             style="fill:#000000;fill-opacity:1;fill-rule:nonzero;stroke:none" /></g></g><g
         id="g2869"><g
           transform="translate(435.859,37.334)"
           id="g2871"><path
             d="M 12.502,-36.004 C 11.402,-35.867 10.032,-35.772 8.385,-35.727 C 6.736,-35.678 5.815,-35.654 5.611,-35.654 C 4.916,-35.654 4.289,-35.654 3.719,-35.654 C 3.153,-35.654 1.911,-35.74 0,-35.912 C 0,-35.912 0,-32.373 0,-32.373 C 0,-32.373 0,-28.111 0,-28.111 C 0,-28.111 0.245,-15.289 0.245,-15.289 C 0.245,-15.289 0.245,-12.211 0.245,-12.211 C 0.245,-12.211 0.245,-8.926 0.245,-8.926 C 0.245,-8.926 0,0 0,0 C 0,0 1.953,-0.078 1.953,-0.078 C 1.953,-0.078 3.719,-0.156 3.719,-0.156 C 3.719,-0.156 5.549,-0.156 5.549,-0.156 C 5.549,-0.156 7.745,-0.156 7.745,-0.156 C 7.745,-0.156 10.246,-0.105 10.246,-0.105 C 10.246,-0.105 12.502,-0.055 12.502,-0.055 C 12.502,-0.055 12.502,-1.717 12.502,-1.717 C 12.502,-1.717 12.502,-2.941 12.502,-2.941 C 12.502,-2.941 12.502,-3.656 12.502,-3.656 C 12.502,-3.656 12.502,-8.076 12.502,-8.076 C 12.502,-8.076 12.378,-15.057 12.378,-15.057 C 12.378,-19.168 12.389,-22.791 12.41,-25.941 C 12.428,-29.092 12.459,-32.445 12.502,-36.004 z"
             id="path2873"
             style="fill:#000000;fill-opacity:1;fill-rule:nonzero;stroke:none" /></g></g><g
         id="g2875"><g
           transform="translate(454.439,29.275)"
           id="g2877"><path
             d="M 27.582,-12.064 C 27.784,-13.025 27.889,-13.693 27.889,-14.07 C 27.889,-14.787 27.59,-15.209 26.993,-15.326 C 26.396,-15.445 24.925,-15.507 22.58,-15.507 C 22.58,-15.507 16.772,-15.507 16.772,-15.507 C 16.772,-15.507 11.153,-15.349 11.153,-15.349 C 11.153,-15.349 11.153,-26.33 11.153,-26.33 C 12.056,-26.773 13.088,-26.996 14.241,-26.996 C 14.53,-26.996 14.838,-26.996 15.167,-26.996 C 15.662,-26.896 16.03,-26.824 16.279,-26.789 C 17.967,-26.453 19.719,-25.552 21.531,-24.084 C 21.941,-23.775 22.373,-23.384 22.825,-22.908 C 23.483,-22.263 24,-21.65 24.373,-21.072 C 24.373,-21.072 25.05,-19.998 25.05,-19.998 C 25.214,-19.761 25.543,-19.642 26.04,-19.642 C 26.369,-19.642 26.644,-19.734 26.869,-19.923 C 27.097,-20.107 27.209,-20.371 27.209,-20.707 C 27.209,-21.25 26.893,-21.904 26.251,-22.666 C 25.618,-23.429 24.445,-24.49 22.738,-25.847 C 21.029,-27.201 18.634,-28.078 15.546,-28.486 C 15.176,-28.554 14.788,-28.589 14.374,-28.589 C 13.966,-28.589 13.656,-28.589 13.452,-28.589 C 11.599,-28.589 9.797,-28.213 8.052,-27.464 C 6.3,-26.711 4.646,-25.38 3.084,-23.468 C 2.546,-22.816 2.106,-22.158 1.757,-21.492 C 1.407,-20.828 1.089,-20.048 0.801,-19.162 C 0.513,-18.273 0.307,-17.41 0.184,-16.576 C 0.062,-15.736 0,-14.877 0,-13.984 C 0,-11.56 0.534,-9.349 1.6,-7.353 C 2.669,-5.355 4.245,-3.689 6.325,-2.355 C 8.4,-1.025 10.449,-0.257 12.462,-0.052 C 12.707,-0.017 12.959,0 13.204,0 C 13.533,0 13.758,0 13.88,0 C 16.474,0 18.941,-0.703 21.29,-2.101 C 22.438,-2.826 23.478,-3.74 24.404,-4.851 C 25.332,-5.966 26.081,-7.271 26.656,-8.781 C 26.819,-9.021 26.943,-9.345 27.027,-9.754 C 27.027,-9.754 27.582,-12.064 27.582,-12.064 z M 17.283,-13.011 C 17.283,-13.011 17.283,-6.504 17.283,-6.504 C 17.283,-6.504 17.283,-3.992 17.283,-3.992 C 17.203,-3.445 16.901,-2.955 16.379,-2.531 C 15.857,-2.101 15.281,-1.873 14.64,-1.837 C 13.474,-1.837 12.607,-2.197 12.024,-2.914 C 11.443,-3.63 11.153,-4.828 11.153,-6.504 C 11.153,-7.732 11.153,-8.828 11.153,-9.785 C 11.153,-10.742 11.153,-11.849 11.153,-13.113 C 11.153,-13.113 12.609,-13.267 12.609,-13.267 C 13.135,-13.267 13.517,-13.267 13.764,-13.267 C 14.328,-13.267 14.915,-13.252 15.521,-13.213 C 16.125,-13.183 16.715,-13.113 17.283,-13.011 z"
             id="path2879"
             style="fill:#000000;fill-opacity:1;fill-rule:nonzero;stroke:none" /></g></g><g
         id="g2881"><g
           transform="translate(489.478,28.387)"
           id="g2883"><path
             d="M 32.952,-27.016 C 30.716,-26.813 28.441,-26.707 26.122,-26.707 C 25.127,-26.707 24.29,-26.707 23.606,-26.707 C 22.925,-26.707 21.798,-26.776 20.223,-26.912 C 20.173,-26.395 20.148,-25.946 20.148,-25.569 C 20.148,-25.188 20.173,-24.877 20.223,-24.633 C 20.173,-24.256 20.173,-23.979 20.223,-23.807 C 20.223,-23.563 20.223,-23.393 20.223,-23.289 C 20.223,-23.289 18.87,-24.108 18.87,-24.108 C 18.87,-24.108 16.651,-25.436 16.651,-25.436 C 16.651,-25.436 16.219,-25.692 16.219,-25.692 C 16.219,-25.692 14.801,-26.408 14.801,-26.408 C 13.734,-26.924 12.693,-27.303 11.687,-27.565 C 10.679,-27.819 9.722,-27.948 8.817,-27.948 C 5.692,-27.948 3.476,-27.242 2.161,-25.84 C 0.719,-24.297 0,-21.643 0,-17.875 C 0,-17.875 0,-17.108 0,-17.108 C 0,-17.108 0,-10.785 0,-10.785 C 0,-10.785 0,-10.049 0,-10.049 C 0,-10.049 0,-3.908 0,-3.908 C 0,-3.908 0,-2.992 0,-2.992 C 0,-2.992 0,-0.051 0,-0.051 C 0,-0.051 5.929,-0.155 5.929,-0.155 C 5.929,-0.155 12.529,0 12.529,0 C 12.348,-1.893 12.257,-3.545 12.257,-4.965 C 12.257,-4.965 12.257,-6.127 12.257,-6.127 C 12.257,-6.127 12.257,-9.438 12.257,-9.438 C 12.257,-9.438 12.257,-15.688 12.257,-15.688 C 12.257,-15.688 12.257,-18.147 12.257,-18.147 C 12.257,-18.147 12.257,-22.504 12.257,-22.504 C 12.216,-22.985 12.298,-23.477 12.502,-23.992 C 12.705,-24.506 13.117,-24.76 13.728,-24.76 C 14.052,-24.76 14.445,-24.657 14.894,-24.448 C 14.894,-24.448 16.242,-23.776 16.242,-23.776 C 16.242,-23.776 16.487,-23.672 16.487,-23.672 C 16.487,-23.672 17.527,-23.049 17.527,-23.049 C 17.527,-23.049 18.081,-22.69 18.081,-22.69 C 18.081,-22.69 18.631,-22.274 18.631,-22.274 C 19.367,-21.619 19.814,-21.112 19.98,-20.748 C 20.145,-20.385 20.223,-19.69 20.223,-18.651 C 20.173,-18.03 20.173,-17.516 20.223,-17.102 C 20.223,-17.102 20.223,-14.098 20.223,-14.098 C 20.223,-14.098 20.223,-13.739 20.223,-13.739 C 20.223,-13.739 20.223,-11.047 20.223,-11.047 C 20.223,-11.047 20.223,-10.785 20.223,-10.785 C 20.223,-10.785 20.223,-7.967 20.223,-7.967 C 20.223,-7.967 20.223,-6.496 20.223,-6.496 C 20.223,-6.496 20.223,-4.684 20.223,-4.684 C 20.223,-4.684 20.223,-3.123 20.223,-3.123 C 20.223,-3.123 20.03,-1.461 20.03,-1.461 C 20.03,-1.461 19.934,-0.754 19.934,-0.754 C 19.934,-0.754 19.934,0 19.934,0 C 22.072,0 24.208,0 26.35,0 C 28.488,0 30.647,0 32.832,0 C 32.832,0 32.77,-1.18 32.77,-1.18 C 32.77,-1.18 32.703,-1.844 32.703,-1.844 C 32.703,-1.844 32.703,-21.838 32.703,-21.838 C 32.703,-21.838 32.832,-24.965 32.832,-24.965 C 32.832,-24.965 32.952,-27.016 32.952,-27.016 z"
             id="path2885"
             style="fill:#000000;fill-opacity:1;fill-rule:nonzero;stroke:none" /></g></g><g
         id="g2887"><g
           transform="translate(529.341,29.244)"
           id="g2889"><path
             d="M 52.828,-27.822 C 52.828,-27.822 49.847,-27.67 49.847,-27.67 C 48.264,-27.67 46.771,-27.678 45.374,-27.697 C 43.973,-27.719 42.362,-27.797 40.539,-27.945 C 40.539,-27.945 40.571,-25.226 40.571,-25.226 C 40.571,-25.226 40.571,-22.717 40.571,-22.717 C 40.571,-22.717 40.816,-8.976 40.816,-8.976 C 40.816,-8.976 40.816,-4.31 40.816,-4.31 C 40.693,-3.455 40.14,-3.027 39.159,-3.027 C 38.996,-3.027 38.708,-3.096 38.304,-3.232 C 37.727,-3.508 37.115,-3.834 36.464,-4.207 C 36.3,-4.31 35.545,-4.787 34.196,-5.64 C 34.196,-5.64 33.093,-6.412 33.093,-6.412 C 33.093,-6.412 32.725,-7.23 32.725,-7.23 C 32.725,-7.23 32.725,-7.433 32.725,-7.433 C 32.725,-7.982 32.725,-8.492 32.725,-8.973 C 32.725,-9.449 32.725,-9.908 32.725,-10.353 C 32.725,-11.447 32.725,-13.463 32.725,-16.402 C 32.725,-19.34 32.725,-21.627 32.725,-23.265 C 32.725,-23.265 33.093,-27.67 33.093,-27.67 C 33.093,-27.67 32.167,-27.598 32.167,-27.598 C 32.167,-27.598 31.425,-27.527 31.425,-27.527 C 31.425,-27.527 29.941,-27.455 29.941,-27.455 C 25.819,-27.455 22.647,-27.619 20.423,-27.945 C 20.423,-27.945 20.468,-25.068 20.468,-25.068 C 20.468,-25.068 20.468,-23.371 20.468,-23.371 C 20.468,-23.371 20.468,-7.031 20.468,-7.031 C 20.468,-7.031 20.468,-6.826 20.468,-6.826 C 20.468,-6.826 20.468,-4.515 20.468,-4.515 C 20.468,-3.935 20.28,-3.473 19.914,-3.133 C 19.542,-2.791 19.091,-2.672 18.553,-2.773 C 18.101,-2.842 17.711,-2.941 17.38,-3.078 C 16.638,-3.486 15.895,-3.881 15.157,-4.252 C 15.157,-4.252 13.551,-5.424 13.551,-5.424 C 13.551,-5.424 12.563,-6.14 12.563,-6.14 C 12.563,-6.14 12.502,-10.275 12.502,-10.275 C 12.502,-10.275 12.502,-18.644 12.502,-18.644 C 12.502,-18.644 12.502,-20.834 12.502,-20.834 C 12.502,-20.834 12.502,-22.795 12.502,-22.795 C 12.502,-22.795 12.647,-27.822 12.647,-27.822 C 10.671,-27.683 9.241,-27.609 8.356,-27.592 C 7.473,-27.574 6.786,-27.564 6.293,-27.564 C 4.443,-27.564 2.344,-27.691 0,-27.945 C 0,-27.945 0.059,-24.25 0.059,-24.25 C 0.059,-24.25 0.122,-21.523 0.122,-21.523 C 0.122,-21.523 0.245,-16.23 0.245,-16.23 C 0.245,-16.23 0.245,-14.537 0.245,-14.537 C 0.245,-14.537 0.306,-10.943 0.306,-10.943 C 0.306,-9.228 0.286,-7.896 0.245,-6.935 C 0.081,-3.168 0,-1.183 0,-0.976 C 0,-0.976 2.96,-1.029 2.96,-1.029 C 2.96,-1.029 5.492,-1.029 5.492,-1.029 C 5.492,-1.029 6.416,-1.029 6.416,-1.029 C 6.416,-1.029 10.242,-0.976 10.242,-0.976 C 10.242,-0.976 10.798,-0.976 10.798,-0.976 C 10.798,-0.976 12.647,-0.976 12.647,-0.976 C 12.647,-0.976 12.572,-1.592 12.572,-1.592 C 12.572,-1.592 12.572,-2.205 12.572,-2.205 C 12.572,-2.205 12.647,-3.189 12.647,-3.189 C 12.647,-3.189 12.709,-4.107 12.709,-4.107 C 12.709,-4.107 14.118,-3.49 14.118,-3.49 C 14.118,-3.49 14.363,-3.34 14.363,-3.34 C 14.363,-3.34 15.462,-2.623 15.462,-2.623 C 15.75,-2.418 16.056,-2.242 16.381,-2.105 C 16.994,-1.834 17.4,-1.662 17.608,-1.592 C 18.748,-1.08 19.81,-0.721 20.79,-0.512 C 22.423,-0.172 23.847,0 25.071,0 C 26.46,0 27.635,-0.23 28.595,-0.685 C 29.551,-1.142 30.517,-1.914 31.5,-2.994 C 31.5,-2.994 31.99,-3.652 31.99,-3.652 C 31.99,-3.652 32.725,-4.769 32.725,-4.769 C 32.725,-4.769 33.093,-4.82 33.093,-4.82 C 33.093,-4.82 34.45,-3.848 34.45,-3.848 C 34.45,-3.848 35.989,-2.773 35.989,-2.773 C 36.647,-2.293 37.367,-1.914 38.151,-1.621 C 38.93,-1.33 39.721,-1.066 40.525,-0.83 C 41.325,-0.59 41.891,-0.435 42.221,-0.367 C 43.328,-0.195 44.231,-0.109 44.932,-0.109 C 47.563,-0.109 49.677,-1.084 51.281,-3.023 C 51.898,-3.74 52.309,-4.426 52.515,-5.07 C 52.723,-5.719 52.828,-6.607 52.828,-7.73 C 52.828,-7.73 52.828,-11.719 52.828,-11.719 C 52.828,-11.719 52.828,-16.322 52.828,-16.322 C 52.828,-16.322 52.828,-23.533 52.828,-23.533 C 52.828,-23.533 52.828,-24.389 52.828,-24.389 C 52.828,-24.389 52.828,-27.822 52.828,-27.822 z"
             id="path2891"
             style="fill:#000000;fill-opacity:1;fill-rule:nonzero;stroke:none" /></g></g><g
         id="g2893"><g
           transform="translate(252.588,308.80469)"
           id="g2895"><path
             d="M 79.354,-102.34569 C 79.354,-102.34569 128.575,-100.15969 128.575,-100.15969 C 128.937,-96.88179 129.135,-93.54879 129.135,-90.16599 C 129.135,-76.45509 126.062,-63.45609 120.591,-51.81839 C 120.591,-51.81839 81.72,-48.54399 81.72,-48.54399 C 81.72,-48.54399 117.726,-46.24899 117.552,-45.93559 C 102.085,-18.51859 72.698,0 38.983,0 C 30.059,0 21.454,-1.31641 13.319,-3.72657 C 14.745,-3.53028 16.192,-3.39649 17.67,-3.39649 C 34.489,-3.39649 48.127,-16.35649 48.127,-32.35259 C 48.127,-43.10059 41.96,-52.46579 32.819,-57.45609 C 32.374,-57.69429 31.94,-57.93459 31.486,-58.16409 C 25.868,-61.23439 20.803,-65.16599 16.447,-69.77249 C 16.326,-69.89939 63.714,-71.52439 63.714,-71.52439 C 63.714,-71.52439 12.226,-74.76949 12.113,-74.92379 C 4.518,-84.99419 0,-97.48629 0,-111.03969 C 0,-115.81469 0.565,-120.44269 1.621,-124.89769 C 1.621,-124.89769 63.714,-126.94669 63.714,-126.94669 C 63.714,-126.94669 3.37,-130.79269 3.37,-130.79269 C 11.605,-154.41369 34.156,-171.38069 60.718,-171.38069 C 73.48,-171.38069 85.275,-167.41369 95.045,-160.73669 C 111.864,-147.36069 123.791,-128.10169 127.717,-106.07869 C 127.717,-106.07869 79.354,-102.34569 79.354,-102.34569 z"
             id="path2897"
             style="fill:#0012f2;fill-opacity:1;fill-rule:nonzero;stroke:none" /></g></g><g
         id="g2899"><g
           transform="translate(201.41,305.4082)"
           id="g2901"><path
             d="M 51.178,-107.6432 C 51.178,-91.7051 57.399,-77.208 67.564,-66.4258 C 71.93,-61.7939 77.023,-57.8496 82.664,-54.7676 C 82.719,-54.7275 82.76,-54.6836 82.821,-54.6543 C 83.202,-54.4561 83.596,-54.2676 83.997,-54.0596 C 93.138,-49.0693 99.305,-39.7041 99.305,-28.9561 C 99.305,-12.96 85.667,0 68.848,0 C 67.37,0 65.923,-0.13379 64.497,-0.33008 C 27.208,-11.3887 0,-45.8945 0,-86.7695 C 0,-136.5532 40.363,-176.9162 90.161,-176.9162 C 111.356,-176.9162 130.827,-169.5862 146.223,-157.3402 C 136.453,-164.0172 124.658,-167.9842 111.896,-167.9842 C 78.364,-167.9842 51.178,-140.9722 51.178,-107.6432 z"
             id="path2903"
             style="fill:#ffd600;fill-opacity:1;fill-rule:nonzero;stroke:none" /></g></g></g></g></svg>