<?xml version="1.0" encoding="UTF-8"?>
<svg id="Layer_2" data-name="Layer 2" xmlns="http://www.w3.org/2000/svg" viewBox="0 0 566.94 108.54">
  <defs>
    <style>
      .cls-1 {
        fill: #fff;
        stroke-width: 0px;
      }
    </style>
  </defs>
  <g id="Signature_AW" data-name="Signature AW">
    <path class="cls-1" d="M282.56,59.14l-.84,20.06c-.05,1.23-.5,2.2-1.72,2.2h-54.16c-.49,0-.79-.25-.79-.67,0-.36.15-.58.64-.74,4.08-1.31,5.42-2.6,5.42-7.31V22.28c0-4.71-1.34-6-5.42-7.31-.5-.16-.64-.37-.64-.74,0-.43.3-.67.79-.67h50.61c1.18,0,1.61.9,1.72,2.08.4,4.4,1.3,14.46,1.54,17.26.04.4-.28.73-.67.73-.28,0-.53-.17-.63-.43-4.9-12.43-8.87-17-14.26-17h-24.47v27.8h20.02c6.93,0,8.14-4.58,8.74-8.03.1-.55.34-.73.75-.73.38,0,.67.22.67.73v18.5c0,.5-.3.73-.67.73-.41,0-.66-.18-.75-.73-.6-3.44-1.81-7.84-8.74-7.84h-20.02v32.12h27.27c6.43,0,10-4.01,14.31-19.82.08-.29.34-.49.64-.49.38,0,.68.31.66.69h0ZM114.1,13.56h-17.02c-.46,0-.71.25-.71.65,0,.42.22.62.64.76,3.61,1.16,7.02,2.36,7.02,7.31v33.62c0,14.93-8.73,23.2-21.09,23.2-13.11,0-18.78-8.84-18.78-23.49V22.28c0-4.71,1.34-6,5.42-7.31.5-.16.64-.37.64-.74,0-.43-.3-.67-.79-.67h-19.11c-.49,0-.79.25-.79.67,0,.36.15.58.64.74,4.08,1.31,5.42,2.6,5.42,7.31v33.62c0,17.4,9.55,26.63,26.59,26.63,14.05,0,24.95-9.41,24.95-26.44V22.28c0-4.61,3-6.02,7.02-7.31.47-.15.62-.37.62-.76s-.26-.65-.69-.65h.02ZM207.4,14.97c.5-.16.64-.37.64-.74,0-.43-.3-.67-.79-.67h-12.05c-2.59,0-3.38,1.44-3.82,2.48l-22.27,52.07-18.58-41.07c-3.13-6.91-5.97-13.48-17.26-13.48h-4.94c-.41,0-.74.32-.75.73,0,.39.29.7.68.76,5.59.88,6.3,2.32,6.3,5.37v52.26c0,4.61-3.38,6.02-7.4,7.31-.47.15-.62.37-.62.76s.26.65.69.65h17.77c.46,0,.71-.25.71-.65,0-.42-.22-.62-.64-.76-3.61-1.16-7.39-2.36-7.39-7.31V20.61l23.99,53.01c.27.61.69,1,1.36,1h5.62c.68,0,1.1-.4,1.37-1.03l23.43-54.52v53.63c0,4.71-1.34,6-5.42,7.31-.5.16-.64.37-.64.74,0,.43.3.67.79.67h19.11c.49,0,.79-.25.79-.67,0-.36-.15-.58-.64-.74-4.08-1.31-5.42-2.6-5.42-7.31V22.3c0-4.71,1.34-6,5.42-7.31l-.04-.02ZM33.45,0H14.34c-.49,0-.79.25-.79.67,0,.36.15.58.64.74,4.08,1.31,5.42,2.6,5.42,7.31v69.95c0,15.46-12.19,23.95-19.22,28.36-.36.22-.49.68-.3,1.05.2.42.71.58,1.12.37,7.24-3.85,26.97-14.13,26.97-41.11V8.73c0-4.71,1.34-6,5.42-7.31.5-.16.64-.37.64-.74,0-.43-.3-.67-.79-.67h0ZM491.05,80.71c0,.37-.29.69-.71.69h-21.53c-.39,0-.71-.27-.71-.67,0-.42.26-.69.66-.74,3.57-.45,5.42-1.62,5.42-3.98,0-.88-.48-2.21-1.28-4-1.59-3.59-4.07-9.17-4.07-9.17h-34.34s-2.58,5.8-3.21,7.21c-.77,1.74-1.27,3.35-1.27,4.56,0,2.89,2.02,4.57,7.93,5.37.44.06.67.28.67.74,0,.4-.25.67-.73.67h-22.2c-.4,0-.72-.32-.72-.72s.31-.7.7-.72c5.51-.28,9.66-3.86,12.57-10.39l21.6-48.55-1.13-2.8c-.86-2.13-1.7-2.74-2.91-3.24-.39-.16-.65-.3-.65-.76,0-.38.23-.65.65-.65h5.06c4.42,0,5.88,2.15,7.41,5.54l24.02,53.09c2.45,5.42,5.27,7.36,8.09,7.8.42.07.64.3.64.72h.04ZM467.58,60.02l-15.93-35.74-15.89,35.74h31.82ZM566.3,79.99c-4.08-1.31-5.42-2.6-5.42-7.31V22.28c0-4.71,1.34-6,5.42-7.31.5-.16.64-.37.64-.74,0-.43-.3-.67-.79-.67h-19.11c-.49,0-.79.25-.79.67,0,.36.15.58.64.74,4.08,1.31,5.42,2.6,5.42,7.31v23.16h-36.42v-23.16c0-4.71,1.34-6,5.42-7.31.5-.16.64-.37.64-.74,0-.43-.3-.67-.79-.67h-19.11c-.49,0-.79.25-.79.67,0,.36.15.58.64.74,4.08,1.31,5.42,2.6,5.42,7.31v50.4c0,4.71-1.34,6-5.42,7.31-.5.16-.64.37-.64.74,0,.43.3.67.79.67h19.11c.49,0,.79-.25.79-.67,0-.36-.15-.58-.64-.74-4.08-1.31-5.42-2.6-5.42-7.31v-24.41h36.42v24.41c0,4.71-1.34,6-5.42,7.31-.5.16-.64.37-.64.74,0,.43.3.67.79.67h19.11c.49,0,.79-.25.79-.67,0-.36-.15-.58-.64-.74h0ZM322.24,14.97c.5-.16.64-.37.64-.74,0-.43-.3-.67-.79-.67h-19.11c-.49,0-.79.25-.79.67,0,.36.15.58.64.74,4.08,1.31,5.42,2.6,5.42,7.31v50.4c0,4.71-1.34,6-5.42,7.31-.5.16-.64.37-.64.74,0,.43.3.67.79.67h19.11c.49,0,.79-.25.79-.67,0-.36-.15-.58-.64-.74-4.08-1.31-5.42-2.6-5.42-7.31V22.28c0-4.71,1.34-6,5.42-7.31ZM408.12,80.68c0,.4-.32.72-.72.72h-9.11c-9.01,0-13.91-3.13-17.89-8.46l-15.74-21.04h-10.13v20.78c0,4.71,1.34,6,5.42,7.31.5.16.64.37.64.74,0,.43-.3.67-.79.67h-19.11c-.49,0-.79-.25-.79-.67,0-.36.15-.58.64-.74,4.08-1.31,5.42-2.6,5.42-7.31V22.28c0-4.71-1.34-6-5.42-7.31-.5-.16-.64-.37-.64-.74,0-.43.3-.67.79-.67h28.27c9.96,0,16.55,2.16,20.63,6.17,3.3,3.24,5.09,7.77,5.09,13s-1.8,9.76-5.09,13c-4.08,4.01-10.67,6.17-20.63,6.17h-.57c4.57,5.93,8.9,1.32,15.12,8.89,3.36,4.09,8.35,10.11,10.71,12.89,4.6,5.4,9.71,5.85,13.22,6.28.38.05.68.33.68.72h0ZM367.44,49.26c6.4,0,11.02-.56,13.68-3.21,2.66-2.64,4.18-6.16,4.18-13.32s-1.4-10.81-4.18-13.32c-2.77-2.5-7.28-3.21-13.68-3.21h-12.92v33.06s12.92,0,12.92,0Z"/>
  </g>
</svg>