<?xml version="1.0" encoding="UTF-8"?><svg id="Layer_2" xmlns="http://www.w3.org/2000/svg" viewBox="0 0 1051.34 550.7"><defs><style>.cls-1{fill:#231f20;}.cls-1,.cls-2{stroke-width:0px;}.cls-2{fill:#c7002b;}</style></defs><g id="Layer_1-2"><path class="cls-1" d="M37.26,387.97c6.91,13.13,14.14,26.61,21.68,40.42.98-1.86,2.4-4.53,4.26-8.01,1.86-3.48,4.02-7.47,6.47-11.98,2.45-4.51,5.07-9.38,7.86-14.63,2.79-5.24,5.63-10.56,8.53-15.95,2.89-5.39,5.76-10.68,8.6-15.88,2.84-5.19,5.49-10.04,7.94-14.55h1.91c1.08,9.41,2.08,18.5,3.01,27.27.93,8.77,1.89,17.4,2.87,25.87.98,8.48,1.96,16.86,2.94,25.14.98,8.28,2.06,16.49,3.23,24.62-1.18-.2-2.33-.29-3.45-.29h-6.91c-1.13,0-2.28.1-3.45.29-1.08-13.03-2.16-25.67-3.23-37.93-1.08-12.25-2.4-24.75-3.97-37.49h-.29c-6.76,12.35-13.4,24.62-19.92,36.82-6.52,12.2-12.72,24.97-18.6,38.29h-1.32c-5.88-12.35-12.03-24.72-18.45-37.12-6.42-12.4-12.86-25.06-19.33-38h-.29c-.69,6.08-1.45,12.67-2.28,19.77-.83,7.11-1.59,14.11-2.28,21.02-.69,6.91-1.27,13.43-1.76,19.55-.49,6.12-.73,11.15-.73,15.07-1.57-.2-3.28-.29-5.15-.29s-3.58.1-5.15.29c1.27-7.94,2.6-16.32,3.97-25.14,1.37-8.82,2.69-17.69,3.97-26.61,1.27-8.92,2.45-17.71,3.53-26.39,1.08-8.67,2.01-16.93,2.79-24.77h2.5c6.76,13.92,13.6,27.44,20.51,40.57Z"/><path class="cls-1" d="M155.3,368.34c-.25-6.22-.51-12.57-.81-19.04,1.27.2,2.5.37,3.67.51,1.18.15,2.35.22,3.53.22s2.35-.07,3.53-.22c1.18-.15,2.4-.32,3.68-.51-.29,6.47-.57,12.81-.81,19.04-.25,6.22-.37,12.57-.37,19.04v25.28c0,6.47.12,12.84.37,19.11.24,6.27.51,12.45.81,18.52-2.26-.2-4.66-.29-7.2-.29s-4.95.1-7.2.29c.29-6.08.56-12.25.81-18.52.24-6.27.37-12.64.37-19.11v-25.28c0-6.47-.12-12.81-.37-19.04Z"/><path class="cls-1" d="M213.81,368.34c-.25-6.22-.51-12.57-.81-19.04,1.27.2,2.5.37,3.67.51,1.18.15,2.35.22,3.53.22s2.35-.07,3.53-.22c1.18-.15,2.4-.32,3.68-.51-.29,6.47-.57,12.81-.81,19.04-.25,6.22-.37,12.57-.37,19.04,0,12.35.05,23.06.15,32.12.1,9.07.2,17.18.29,24.33,6.96,0,13.62-.07,19.99-.22,6.37-.15,13.23-.71,20.58-1.69-.49,1.76-.74,3.23-.74,4.41,0,1.08.24,2.4.74,3.97-4.51-.2-9.02-.29-13.52-.29h-27.12c-4.36,0-8.89.1-13.6.29.29-6.08.56-12.25.81-18.52.24-6.27.37-12.64.37-19.11v-25.28c0-6.47-.12-12.81-.37-19.04Z"/><path class="cls-1" d="M304.95,368.34c-.25-6.22-.51-12.57-.81-19.04,1.27.2,2.5.37,3.67.51,1.18.15,2.35.22,3.53.22s2.35-.07,3.53-.22c1.18-.15,2.4-.32,3.68-.51-.29,6.47-.57,12.81-.81,19.04-.25,6.22-.37,12.57-.37,19.04,0,12.35.05,23.06.15,32.12.1,9.07.2,17.18.29,24.33,6.96,0,13.62-.07,19.99-.22,6.37-.15,13.23-.71,20.58-1.69-.49,1.76-.74,3.23-.74,4.41,0,1.08.24,2.4.74,3.97-4.51-.2-9.02-.29-13.52-.29h-27.12c-4.36,0-8.89.1-13.6.29.29-6.08.56-12.25.81-18.52.24-6.27.37-12.64.37-19.11v-25.28c0-6.47-.12-12.81-.37-19.04Z"/><path class="cls-1" d="M396.09,368.12c-.25-6.27-.51-12.54-.81-18.82,4.41.2,8.79.37,13.16.51,4.36.15,8.75.22,13.16.22s8.77-.07,13.08-.22c4.31-.15,8.67-.32,13.08-.51-.29,1.47-.44,2.94-.44,4.41s.15,2.94.44,4.41c-3.14-.2-6-.39-8.6-.59-2.6-.2-5.34-.39-8.23-.59-2.89-.2-6.05-.37-9.48-.51-3.43-.15-7.55-.22-12.35-.22-.1,3.14-.22,6.13-.37,8.97-.15,2.84-.22,6.08-.22,9.7,0,3.82.02,7.55.07,11.17.05,3.63.07,6.37.07,8.23,4.31,0,8.18-.05,11.61-.15,3.43-.1,6.56-.22,9.41-.37,2.84-.15,5.46-.29,7.86-.44,2.4-.15,4.68-.32,6.84-.51-.29,1.47-.44,2.99-.44,4.56,0,1.47.15,2.94.44,4.41-2.55-.29-5.51-.54-8.89-.74-3.38-.2-6.76-.32-10.14-.37-3.38-.05-6.57-.1-9.56-.15-2.99-.05-5.37-.07-7.13-.07,0,.88-.03,1.84-.07,2.87-.05,1.03-.07,2.33-.07,3.9v14.55c0,5.59.02,10.19.07,13.82.05,3.63.12,6.37.22,8.23h10.29c3.72,0,7.37-.07,10.95-.22,3.58-.15,6.96-.34,10.14-.59,3.18-.24,5.95-.61,8.31-1.1-.2.69-.32,1.45-.37,2.28-.05.83-.07,1.59-.07,2.28,0,1.57.15,2.84.44,3.82-4.41-.2-8.8-.29-13.16-.29h-26.68c-4.41,0-8.87.1-13.38.29.29-6.27.56-12.52.81-18.74.24-6.22.37-12.57.37-19.04v-25.28c0-6.47-.12-12.84-.37-19.11Z"/><path class="cls-1" d="M534.34,412.15c-12.74-13.67-25.48-27.27-38.22-40.79-.1,2.75-.2,6.42-.29,11.03-.1,4.61-.15,10.88-.15,18.82,0,2.06.02,4.61.07,7.64.05,3.04.1,6.22.15,9.55.05,3.33.12,6.71.22,10.14.1,3.43.2,6.61.29,9.55.1,2.94.2,5.51.29,7.72.1,2.21.2,3.7.29,4.48-1.57-.2-3.28-.29-5.15-.29-1.96,0-3.77.1-5.44.29.2-.98.42-2.79.66-5.44.24-2.65.46-5.81.66-9.48.19-3.67.42-7.67.66-11.98.24-4.31.44-8.62.59-12.94.15-4.31.27-8.53.37-12.64.1-4.12.15-7.79.15-11.02,0-9.41-.03-17.49-.07-24.25-.05-6.76-.17-11.81-.37-15.14h2.35c5.98,6.47,12.37,13.4,19.18,20.8,6.81,7.4,13.57,14.7,20.29,21.9,6.71,7.2,13.08,14.01,19.11,20.43,6.03,6.42,11.29,11.88,15.8,16.39v-19.99c0-10.29-.07-20.31-.22-30.06-.15-9.75-.47-18.94-.96-27.56,1.96.49,3.62.74,5,.74,1.18,0,2.74-.24,4.7-.74-.2,2.16-.42,5.39-.66,9.7-.25,4.31-.49,8.92-.74,13.82-.25,4.9-.47,9.7-.66,14.41-.2,4.7-.29,8.48-.29,11.32v8.82c0,3.33.02,6.81.07,10.44.05,3.63.1,7.28.15,10.95.05,3.68.1,7.11.15,10.29.05,3.19.07,5.95.07,8.31v4.85h-2.06c-11.27-13.03-23.28-26.39-36.02-40.06Z"/><path class="cls-1" d="M666.35,412.15c-12.74-13.67-25.48-27.27-38.22-40.79-.1,2.75-.2,6.42-.29,11.03-.1,4.61-.15,10.88-.15,18.82,0,2.06.02,4.61.07,7.64.05,3.04.1,6.22.15,9.55.05,3.33.12,6.71.22,10.14.1,3.43.2,6.61.29,9.55.1,2.94.2,5.51.29,7.72.1,2.21.2,3.7.29,4.48-1.57-.2-3.28-.29-5.15-.29-1.96,0-3.77.1-5.44.29.2-.98.42-2.79.66-5.44.24-2.65.46-5.81.66-9.48.19-3.67.42-7.67.66-11.98.24-4.31.44-8.62.59-12.94.15-4.31.27-8.53.37-12.64.1-4.12.15-7.79.15-11.02,0-9.41-.03-17.49-.07-24.25-.05-6.76-.17-11.81-.37-15.14h2.35c5.98,6.47,12.37,13.4,19.18,20.8,6.81,7.4,13.57,14.7,20.29,21.9,6.71,7.2,13.08,14.01,19.11,20.43,6.03,6.42,11.29,11.88,15.8,16.39v-19.99c0-10.29-.07-20.31-.22-30.06-.15-9.75-.47-18.94-.96-27.56,1.96.49,3.62.74,5,.74,1.18,0,2.74-.24,4.7-.74-.2,2.16-.42,5.39-.66,9.7-.25,4.31-.49,8.92-.74,13.82-.25,4.9-.47,9.7-.66,14.41-.2,4.7-.29,8.48-.29,11.32v8.82c0,3.33.02,6.81.07,10.44.05,3.63.1,7.28.15,10.95.05,3.68.1,7.11.15,10.29.05,3.19.07,5.95.07,8.31v4.85h-2.06c-11.27-13.03-23.28-26.39-36.02-40.06Z"/><path class="cls-1" d="M751.24,368.34c-.25-6.22-.51-12.57-.81-19.04,1.27.2,2.5.37,3.67.51,1.18.15,2.35.22,3.53.22s2.35-.07,3.53-.22c1.18-.15,2.4-.32,3.68-.51-.29,6.47-.57,12.81-.81,19.04-.25,6.22-.37,12.57-.37,19.04v25.28c0,6.47.12,12.84.37,19.11.24,6.27.51,12.45.81,18.52-2.26-.2-4.66-.29-7.2-.29s-4.95.1-7.2.29c.29-6.08.56-12.25.81-18.52.24-6.27.37-12.64.37-19.11v-25.28c0-6.47-.12-12.81-.37-19.04Z"/><path class="cls-1" d="M886.7,397.08c0-13.92-.05-24.65-.15-32.19-.1-7.54-.34-12.74-.74-15.58,1.08.2,2.11.37,3.09.51.98.15,1.96.22,2.94.22,1.27,0,2.74-.24,4.41-.74-.29,3.43-.59,7.52-.88,12.27-.29,4.75-.54,9.85-.74,15.29-.2,5.44-.39,11.03-.59,16.76-.2,5.73-.34,11.3-.44,16.68-.1,6.57-1.1,12.45-3.01,17.64-1.91,5.2-4.63,9.61-8.16,13.23-3.53,3.63-7.86,6.37-13.01,8.23-5.15,1.86-11.05,2.79-17.71,2.79-14.7,0-25.38-3.33-32.05-10-6.67-6.66-10-17.2-10-31.61,0-4.61.12-8.7.37-12.27.24-3.58.37-7.23.37-10.95,0-8.23-.1-15.53-.29-21.9-.2-6.37-.39-11.76-.59-16.17,1.18.2,2.45.37,3.82.51,1.37.15,2.65.22,3.82.22,1.08,0,2.13-.07,3.16-.22,1.03-.15,2.08-.32,3.16-.51-.2,2.16-.39,4.98-.59,8.45-.2,3.48-.39,7.42-.59,11.83-.2,4.41-.34,9.16-.44,14.26-.1,5.1-.15,10.39-.15,15.88,0,3.33.05,6.79.15,10.36.1,3.58.44,7.06,1.03,10.44.59,3.38,1.54,6.62,2.87,9.7,1.32,3.09,3.21,5.78,5.66,8.08,2.45,2.3,5.54,4.12,9.26,5.44,3.72,1.32,8.33,1.98,13.82,1.98s9.92-.78,13.6-2.35c3.67-1.57,6.69-3.62,9.04-6.17,2.35-2.55,4.19-5.49,5.51-8.82,1.32-3.33,2.28-6.81,2.87-10.44.59-3.62.93-7.25,1.03-10.88.1-3.62.15-6.96.15-10Z"/><path class="cls-1" d="M972.04,387.97c6.91,13.13,14.13,26.61,21.68,40.42.98-1.86,2.4-4.53,4.26-8.01,1.86-3.48,4.02-7.47,6.47-11.98,2.45-4.51,5.07-9.38,7.86-14.63,2.79-5.24,5.63-10.56,8.53-15.95,2.89-5.39,5.76-10.68,8.6-15.88,2.84-5.19,5.49-10.04,7.94-14.55h1.91c1.08,9.41,2.08,18.5,3.01,27.27.93,8.77,1.89,17.4,2.87,25.87.98,8.48,1.96,16.86,2.94,25.14.98,8.28,2.06,16.49,3.23,24.62-1.18-.2-2.33-.29-3.45-.29h-6.91c-1.13,0-2.28.1-3.46.29-1.08-13.03-2.16-25.67-3.23-37.93-1.08-12.25-2.4-24.75-3.97-37.49h-.29c-6.76,12.35-13.4,24.62-19.92,36.82-6.52,12.2-12.72,24.97-18.6,38.29h-1.32c-5.88-12.35-12.03-24.72-18.45-37.12-6.42-12.4-12.86-25.06-19.33-38h-.29c-.69,6.08-1.45,12.67-2.28,19.77-.83,7.11-1.59,14.11-2.28,21.02-.69,6.91-1.27,13.43-1.76,19.55-.49,6.12-.74,11.15-.74,15.07-1.57-.2-3.28-.29-5.14-.29s-3.58.1-5.15.29c1.27-7.94,2.6-16.32,3.97-25.14,1.37-8.82,2.69-17.69,3.97-26.61,1.27-8.92,2.45-17.71,3.53-26.39,1.08-8.67,2.01-16.93,2.79-24.77h2.5c6.76,13.92,13.6,27.44,20.51,40.57Z"/><path class="cls-1" d="M62.1,499.59h5.41v22.32h28.05v-22.32h5.41v50.41h-5.41v-23.03h-28.05v23.03h-5.41v-50.41Z"/><path class="cls-1" d="M165.77,543.14c-5.04,5.04-11.16,7.56-18.35,7.56s-13.31-2.52-18.35-7.56-7.56-11.16-7.56-18.35,2.52-13.31,7.56-18.35,11.16-7.56,18.35-7.56,13.31,2.52,18.35,7.56,7.56,11.16,7.56,18.35-2.52,13.31-7.56,18.35ZM132.83,539.66c3.96,4.01,8.82,6.01,14.59,6.01s10.63-2,14.59-6.01,5.94-8.96,5.94-14.87-1.98-10.86-5.94-14.87-8.82-6.01-14.59-6.01-10.63,2-14.59,6.01-5.94,8.96-5.94,14.87,1.98,10.86,5.94,14.87Z"/><path class="cls-1" d="M221.94,499.59v5.06h-15.86v45.35h-5.38v-45.35h-15.86v-5.06h37.09Z"/><path class="cls-1" d="M274.84,544.97v5.03h-35.3v-50.41h34.56v5.06h-29.14v16.56h23.38v5.03h-23.38v18.74h29.88Z"/><path class="cls-1" d="M294.24,550v-50.41h5.41v45.39h25.91v5.03h-31.32Z"/><path class="cls-1" d="M365.77,531.89c-1.01-1.22-2.31-2.17-3.92-2.85s-3.38-1.29-5.33-1.85-3.89-1.16-5.84-1.83-3.72-1.48-5.33-2.44-2.91-2.32-3.92-4.08-1.51-3.86-1.51-6.29c0-3.8,1.49-7.03,4.46-9.69s6.89-3.99,11.74-3.99c1.83,0,3.57.23,5.22.69s3.03,1,4.13,1.62,2.09,1.24,2.95,1.86,1.49,1.15,1.86,1.6l.6.7-3.62,3.62c-.09-.14-.23-.32-.42-.54s-.63-.62-1.34-1.2-1.45-1.09-2.23-1.55-1.83-.87-3.13-1.23-2.64-.54-4.03-.54c-3.3,0-5.94.84-7.89,2.53s-2.94,3.73-2.94,6.12c0,1.73.5,3.21,1.51,4.43s2.32,2.17,3.94,2.85,3.4,1.29,5.34,1.85,3.88,1.16,5.82,1.83,3.71,1.48,5.33,2.44,2.93,2.31,3.94,4.06,1.51,3.85,1.51,6.31c0,4.27-1.5,7.73-4.5,10.39s-7.15,3.99-12.45,3.99c-2.16,0-4.21-.26-6.15-.79s-3.54-1.15-4.78-1.86-2.34-1.45-3.3-2.2-1.63-1.38-2-1.9l-.67-.81,3.3-3.66c.09.14.26.36.51.65s.78.8,1.6,1.51,1.71,1.34,2.65,1.86,2.23,1.02,3.85,1.48,3.28.69,4.99.69c3.7,0,6.55-.86,8.54-2.58s2.99-3.98,2.99-6.77c0-1.73-.5-3.21-1.51-4.43Z"/><path class="cls-1" d="M420.56,535.97l-5.77,14.03h-5.77l20.88-50.41h5.03l20.88,50.41h-5.73l-5.77-14.03h-23.77ZM432.45,507.14l-9.74,23.77h19.44l-9.7-23.77Z"/><path class="cls-1" d="M514.85,499.59v50.41h-4.68l-30.94-40.68v40.68h-5.41v-50.41h4.68l30.97,40.71v-40.71h5.38Z"/><path class="cls-1" d="M554.46,499.59c7.34,0,13.55,2.47,18.63,7.42s7.63,10.88,7.63,17.79-2.54,12.84-7.63,17.79-11.3,7.42-18.63,7.42h-15.86v-50.41h15.86ZM544.02,504.65v40.32h10.44c5.91,0,10.86-1.96,14.87-5.87s6.01-8.68,6.01-14.29-2-10.38-6.01-14.29-8.96-5.87-14.87-5.87h-10.44Z"/><path class="cls-1" d="M643.7,499.59c4.45,0,8.15,1.44,11.09,4.32s4.41,6.48,4.41,10.79c0,2.16-.36,4.12-1.09,5.91s-1.59,3.18-2.6,4.18-2.03,1.86-3.06,2.57-1.9,1.17-2.6,1.41l-1.09.35,11.88,20.88h-6.12l-11.18-20.14h-14.38v20.14h-5.41v-50.41h20.14ZM628.97,504.65v20.14h14.73c3.07,0,5.52-.91,7.35-2.72s2.74-4.27,2.74-7.35-.91-5.53-2.74-7.35-4.28-2.72-7.35-2.72h-14.73Z"/><path class="cls-1" d="M716.08,544.97v5.03h-35.3v-50.41h34.56v5.06h-29.14v16.56h23.38v5.03h-23.38v18.74h29.88Z"/><path class="cls-1" d="M758.08,531.89c-1.01-1.22-2.31-2.17-3.92-2.85s-3.38-1.29-5.33-1.85-3.89-1.16-5.84-1.83-3.72-1.48-5.33-2.44-2.91-2.32-3.92-4.08-1.51-3.86-1.51-6.29c0-3.8,1.49-7.03,4.46-9.69s6.89-3.99,11.74-3.99c1.83,0,3.57.23,5.22.69s3.03,1,4.13,1.62,2.09,1.24,2.95,1.86,1.49,1.15,1.86,1.6l.6.7-3.62,3.62c-.09-.14-.23-.32-.42-.54s-.63-.62-1.34-1.2-1.45-1.09-2.23-1.55-1.83-.87-3.13-1.23-2.64-.54-4.03-.54c-3.3,0-5.94.84-7.89,2.53s-2.94,3.73-2.94,6.12c0,1.73.5,3.21,1.51,4.43s2.32,2.17,3.94,2.85,3.4,1.29,5.34,1.85,3.88,1.16,5.82,1.83,3.71,1.48,5.33,2.44,2.93,2.31,3.94,4.06,1.51,3.85,1.51,6.31c0,4.27-1.5,7.73-4.5,10.39s-7.15,3.99-12.45,3.99c-2.16,0-4.21-.26-6.15-.79s-3.54-1.15-4.78-1.86-2.34-1.45-3.3-2.2-1.63-1.38-2-1.9l-.67-.81,3.3-3.66c.09.14.26.36.51.65s.78.8,1.6,1.51,1.71,1.34,2.65,1.86,2.23,1.02,3.85,1.48,3.28.69,4.99.69c3.7,0,6.55-.86,8.54-2.58s2.99-3.98,2.99-6.77c0-1.73-.5-3.21-1.51-4.43Z"/><path class="cls-1" d="M825.82,543.14c-5.04,5.04-11.16,7.56-18.35,7.56s-13.31-2.52-18.35-7.56-7.56-11.16-7.56-18.35,2.52-13.31,7.56-18.35,11.16-7.56,18.35-7.56,13.31,2.52,18.35,7.56,7.56,11.16,7.56,18.35-2.52,13.31-7.56,18.35ZM792.88,539.66c3.96,4.01,8.82,6.01,14.59,6.01s10.63-2,14.59-6.01,5.94-8.96,5.94-14.87-1.98-10.86-5.94-14.87-8.82-6.01-14.59-6.01-10.63,2-14.59,6.01-5.94,8.96-5.94,14.87,1.98,10.86,5.94,14.87Z"/><path class="cls-1" d="M874.05,499.59c4.45,0,8.15,1.44,11.09,4.32s4.41,6.48,4.41,10.79c0,2.16-.36,4.12-1.09,5.91s-1.59,3.18-2.6,4.18-2.03,1.86-3.06,2.57-1.9,1.17-2.6,1.41l-1.09.35,11.88,20.88h-6.12l-11.18-20.14h-14.38v20.14h-5.41v-50.41h20.14ZM859.32,504.65v20.14h14.73c3.07,0,5.52-.91,7.35-2.72s2.74-4.27,2.74-7.35-.91-5.53-2.74-7.35-4.28-2.72-7.35-2.72h-14.73Z"/><path class="cls-1" d="M940.66,499.59v5.06h-15.86v45.35h-5.38v-45.35h-15.86v-5.06h37.09Z"/><path class="cls-1" d="M982.31,531.89c-1.01-1.22-2.31-2.17-3.92-2.85s-3.38-1.29-5.33-1.85-3.89-1.16-5.84-1.83-3.72-1.48-5.33-2.44-2.91-2.32-3.92-4.08-1.51-3.86-1.51-6.29c0-3.8,1.49-7.03,4.46-9.69s6.89-3.99,11.74-3.99c1.83,0,3.57.23,5.22.69s3.03,1,4.13,1.62,2.09,1.24,2.95,1.86,1.49,1.15,1.86,1.6l.6.7-3.62,3.62c-.09-.14-.23-.32-.42-.54s-.63-.62-1.34-1.2-1.45-1.09-2.23-1.55-1.83-.87-3.13-1.23-2.64-.54-4.03-.54c-3.3,0-5.94.84-7.89,2.53s-2.94,3.73-2.94,6.12c0,1.73.5,3.21,1.51,4.43s2.32,2.17,3.94,2.85,3.4,1.29,5.34,1.85,3.88,1.16,5.82,1.83,3.71,1.48,5.33,2.44,2.93,2.31,3.94,4.06,1.51,3.85,1.51,6.31c0,4.27-1.5,7.73-4.5,10.39s-7.15,3.99-12.45,3.99c-2.16,0-4.21-.26-6.15-.79s-3.54-1.15-4.78-1.86-2.34-1.45-3.3-2.2-1.63-1.38-2-1.9l-.67-.81,3.3-3.66c.09.14.26.36.51.65s.78.8,1.6,1.51,1.71,1.34,2.65,1.86,2.23,1.02,3.85,1.48,3.28.69,4.99.69c3.7,0,6.55-.86,8.54-2.58s2.99-3.98,2.99-6.77c0-1.73-.5-3.21-1.51-4.43Z"/><rect class="cls-2" x="476.95" y="48.74" width="20.51" height="201.25"/><rect class="cls-2" x="553.89" y="48.74" width="20.5" height="201.25"/><rect class="cls-2" x="592.37" width="20.5" height="250"/><rect class="cls-2" x="438.46" width="20.5" height="250"/><rect class="cls-2" x="515.42" y="91.1" width="20.5" height="158.89"/></g></svg>